<svg width="551" height="358" fill="none" xmlns="http://www.w3.org/2000/svg"><g clip-path="url(#clip0_530_1034)"><path opacity=".5" d="M462.33 186l43.18-24.94c.74-.43.64-1.17-.21-1.67l-42.79-24.69a3.155 3.155 0 00-2.88-.12l-43.2 24.94c-.74.42-.65 1.17.21 1.66l42.78 24.7a3.226 3.226 0 002.91.12z" fill="#242993"/><path d="M461.11 198.79a4.243 4.243 0 002.07-.48l63.19-36.49a1.721 1.721 0 001-1.46 2.189 2.189 0 00-1.27-1.79l-62.59-36.13a5.167 5.167 0 00-4.69-.17l-63.19 36.48a1.714 1.714 0 00-1 1.47 2.182 2.182 0 001.27 1.78l62.61 36.13a5.332 5.332 0 002.6.66zm1.6-1.3a4.232 4.232 0 01-3.74-.17l-62.58-36.14c-.5-.28-.8-.65-.8-1a.83.83 0 01.49-.65l63.19-36.45a4.23 4.23 0 013.75.18l62.58 36.13c.5.29.8.65.8 1a.847.847 0 01-.5.65l-63.19 36.45z" fill="#42FFFF"/><path d="M415.97 142.62v-8.33h13.54l30.15-17.38a3.21 3.21 0 012.85.09l30 17.34h13.52v8.35a.83.83 0 01-.48.69l-43.2 24.94a3.162 3.162 0 01-2.88-.12l-42.78-24.7a1.198 1.198 0 01-.72-.88z" fill="url(#paint0_linear_530_1034)"/><path d="M462.33 160l43.18-24.94c.74-.43.64-1.17-.21-1.66l-42.79-24.7a3.155 3.155 0 00-2.88-.12l-43.2 24.94c-.74.42-.65 1.17.21 1.66l42.78 24.7a3.2 3.2 0 002.91.12z" fill="url(#paint1_linear_530_1034)"/><path d="M462.18 157.08L500.51 135c.65-.38.57-1-.19-1.47l-37.92-21.9a2.854 2.854 0 00-1.263-.353 2.85 2.85 0 00-1.287.253l-38.34 22.07c-.66.38-.57 1 .18 1.48L459.62 157a2.827 2.827 0 002.56.08z" fill="#242993"/><path d="M462.08 155.23l35.18-20.31c.6-.35.53-1-.17-1.36l-34.84-20.11a2.626 2.626 0 00-1.163-.33 2.62 2.62 0 00-1.187.23l-35.17 20.31c-.6.35-.53 1 .17 1.35l34.83 20.12a2.634 2.634 0 002.35.1z" fill="#4553C7"/><path d="M461.8 132.97l4.12-2.38-2.25-1.3-4.11 2.38 2.24 1.3zm-7.64-.34l4.11 2.37 2.25-1.29-4.12-2.38-2.24 1.3zm8.58.87l2.24 1.3 2.25-1.3-2.25-1.29-2.24 1.29zm-7.77 4.49l2.25 1.29 6.48-3.74-2.25-1.29-6.48 3.74z" fill="#42FFFF"/><path opacity=".5" d="M68.29 234.31l43.22-24.93c.74-.43.64-1.18-.21-1.67L68.51 183a3.228 3.228 0 00-2.88-.12l-43.2 24.94c-.74.43-.64 1.17.21 1.67l42.77 24.7a3.162 3.162 0 002.88.12z" fill="#242993"/><path d="M67.07 245.52a4.07 4.07 0 002-.47l60.55-35a1.638 1.638 0 00.93-1.42 2.114 2.114 0 00-1.22-1.73l-60-34.61a4.934 4.934 0 00-4.51-.17l-60.55 35a1.676 1.676 0 00-.93 1.43 2.107 2.107 0 001.22 1.72l60 34.62a5.19 5.19 0 002.51.63zm-.24-72.89a4.338 4.338 0 012.06.51l60 34.62c.47.27.75.61.75.91a.793.793 0 01-.46.61l-60.55 34.95a4.01 4.01 0 01-3.57-.17l-60-34.61c-.47-.28-.75-.62-.75-.92a.795.795 0 01.46-.6l60.55-35c.471-.222.99-.325 1.51-.3z" fill="#42FFFF"/><path d="M21.93 192.06v-8.34h13.58l30.12-17.38a3.155 3.155 0 012.88.12l30 17.31h13.48v8.36a.878.878 0 01-.49.69l-43.2 24.94a3.233 3.233 0 01-2.88-.12L22.63 193a1.23 1.23 0 01-.7-.94z" fill="url(#paint2_linear_530_1034)"/><path d="M68.29 209.44l43.22-24.94c.74-.43.64-1.18-.21-1.67l-42.79-24.7a3.228 3.228 0 00-2.88-.12L22.42 183c-.74.43-.64 1.17.21 1.67l42.78 24.7a3.225 3.225 0 002.88.07z" fill="url(#paint3_linear_530_1034)"/><path d="M68.29 209.44l43.22-24.94c.74-.43.64-1.18-.21-1.67l-42.79-24.7a3.228 3.228 0 00-2.88-.12L22.42 183c-.74.43-.64 1.17.21 1.67l42.78 24.7a3.225 3.225 0 002.88.07z" fill="url(#paint4_linear_530_1034)"/><path d="M68.14 206.51l38.29-22.1c.65-.38.57-1-.18-1.48L68.33 161a2.874 2.874 0 00-2.56-.11L27.51 183c-.65.38-.57 1 .18 1.47l37.93 21.9a2.809 2.809 0 002.52.14z" fill="#242993"/><path d="M68.04 204.66l35.18-20.31c.6-.34.53-.95-.17-1.35l-34.84-20.12a2.578 2.578 0 00-1.16-.324 2.583 2.583 0 00-1.18.234L30.69 183.1c-.6.34-.53 1 .17 1.35l34.84 20.12a2.592 2.592 0 002.34.09z" fill="#4553C7"/><path d="M67.76 182.4l4.12-2.37-2.25-1.3-4.11 2.37 2.24 1.3zm-7.64-.34l4.11 2.38 2.25-1.3-4.11-2.37-2.25 1.29zm8.58.88l2.24 1.3 2.25-1.3-2.25-1.3-2.24 1.3zm-7.76 4.48l2.24 1.3 6.48-3.74-2.25-1.3-6.47 3.74z" fill="#42FFFF"/><path opacity=".4" d="M21.92 172.52l18.38.11L65.62 158a3.232 3.232 0 012.88.12L94.17 173l17.81.11v10.82a.89.89 0 01-.48.61l-43.2 24.94a3.233 3.233 0 01-2.88-.12l-42.78-24.7a1.36 1.36 0 01-.68-.78l-.04-11.36z" fill="#42FFFF"/><path d="M21.93 173.59v-8.33h13.58l30.12-17.39a3.222 3.222 0 012.88.13l30 17.31h13.48v8.35a.893.893 0 01-.49.7L68.3 199.3a3.233 3.233 0 01-2.88-.12l-42.78-24.7a1.228 1.228 0 01-.71-.89z" fill="url(#paint5_linear_530_1034)"/><path d="M68.29 191l43.22-25c.74-.42.64-1.17-.21-1.66l-42.79-24.67a3.2 3.2 0 00-2.88-.12l-43.2 24.94c-.74.43-.64 1.17.21 1.66l42.78 24.7a3.2 3.2 0 002.87.15z" fill="url(#paint6_linear_530_1034)"/><path d="M68.14 188.05l38.29-22.11c.65-.37.57-1-.18-1.47l-37.92-21.89a2.834 2.834 0 00-2.56-.11l-38.26 22.11c-.65.37-.57 1 .18 1.47L65.59 188a2.836 2.836 0 002.55.05z" fill="#242993"/><path d="M68.04 186.2l35.18-20.31c.6-.35.53-.95-.17-1.36l-34.84-20.11a2.602 2.602 0 00-1.158-.33 2.6 2.6 0 00-1.182.23l-35.18 20.31c-.6.35-.53 1 .17 1.36L65.7 186.1c.355.199.751.312 1.158.33a2.6 2.6 0 001.182-.23z" fill="#4553C7"/><path d="M67.76 163.94l4.12-2.38-2.25-1.29-4.11 2.37 2.24 1.3zm-7.64-.34l4.11 2.38 2.25-1.3-4.11-2.37-2.25 1.29zm8.58.88l2.24 1.29 2.25-1.29-2.25-1.3-2.24 1.3zm-7.76 4.48l2.24 1.29 6.48-3.73-2.25-1.3-6.47 3.74z" fill="#42FFFF"/><path d="M332.98 140.58l-23.25-138 1.87-.79-2.81-1.56a2 2 0 00-2.17.15L120.8 107.69a5.258 5.258 0 00-2.42 4.72l23.44 139.05a1.757 1.757 0 001 1.42l2.69 1.58.47-2.56h-.16l184.75-106.6a5.23 5.23 0 002.41-4.72z" fill="url(#paint7_linear_530_1034)"/><path d="M121.83 111.46l-3.05-1.35a4.216 4.216 0 00-.4 2.3l23.44 139.05a1.757 1.757 0 001 1.42l2.69 1.58.47-2.56h-.16l9.35-5.4-33.34-135.04z" fill="url(#paint8_linear_530_1034)"/><path d="M333.51 147L147.65 254.27c-1.43.83-2.66.35-2.91-1.14l-23.44-139a5.243 5.243 0 01.566-2.686 5.243 5.243 0 011.844-2.034L309.51 2.07c1.43-.83 2.66-.35 2.91 1.14l23.44 139a5.255 5.255 0 01-2.35 4.79z" fill="#242993"/><path d="M307.12 10.95L127.99 114.37l22.21 130.95 179.01-103.35-22.09-131.02z" fill="#4553C7" opacity=".51"/><path opacity=".5" d="M448.73 241L264.79 347.2a7.552 7.552 0 01-6.8.28l-109.77-63.37c-1.74-1-1.52-2.77.49-3.93L332.65 174a7.573 7.573 0 016.81-.28l109.76 63.37c1.75 1.01 1.53 2.77-.49 3.91z" fill="#242993"/><path d="M261.39 357.94a9.533 9.533 0 004.64-1.17l199.2-115.06a3.665 3.665 0 002.15-3 2.797 2.797 0 00-.471-1.398 2.801 2.801 0 00-1.119-.962l-125.73-72.6c-2.16-1.24-5.79-1.1-8.26.33l-199.21 115.1a3.664 3.664 0 00-2.14 2.95 2.78 2.78 0 001.58 2.37l125.74 72.59a7.344 7.344 0 003.62.85zm75.05-194a6.388 6.388 0 013.15.72l125.73 72.55a1.86 1.86 0 011.11 1.55 2.776 2.776 0 01-1.67 2.13L265.51 356c-2.17 1.25-5.46 1.4-7.32.32l-125.68-72.64a1.878 1.878 0 01-1.11-1.55 2.793 2.793 0 011.67-2.13l199.2-115.06a8.551 8.551 0 014.17-1.04v.04z" fill="#42FFFF"/><path d="M450.3 212.81l-10.14 5.29-101.65-58.71a7.358 7.358 0 00-6.64.28L156.44 260.93c-1.68-.94-9.33-4.62-9.33-4.62l3.71 9.69c.19.488.544.894 1 1.15L258.98 329a7.353 7.353 0 006.63-.28l179.48-103.66a3.196 3.196 0 001.51-1.6l3.7-10.65z" fill="url(#paint9_linear_530_1034)"/><path d="M448.73 214.48l-183.94 106.2a7.59 7.59 0 01-6.8.28l-109.77-63.38c-1.74-1-1.52-2.76.49-3.92l183.94-106.2a7.586 7.586 0 016.81-.29l109.76 63.38c1.75 1 1.53 2.76-.49 3.93z" fill="url(#paint10_linear_530_1034)"/><path d="M209.31 297.7v-2c0-.2.11-.28.26-.2l7.11 4.11a.584.584 0 01.26.49v2c0 .19-.11.28-.26.2l-7.11-4.11a.6.6 0 01-.26-.49zm10.64 6.15v-2c0-.19.11-.28.26-.2l7.11 4.11a.617.617 0 01.26.5v2c0 .19-.12.28-.26.2l-7.11-4.11a.595.595 0 01-.26-.5z" fill="#2859CB"/><path d="M176.84 251.65L329.7 163.4a3.277 3.277 0 013.29 0l54.43 31.49a1.166 1.166 0 010 2L234.63 285.1a3.277 3.277 0 01-3.29 0l-54.5-31.45a1.166 1.166 0 010-2z" fill="#ADC8FF"/><path d="M176.84 253.68l.55.32 152.31-87.94a3.277 3.277 0 013.29 0l53.88 31.18.55-.32a1.166 1.166 0 000-2l-54.43-31.49a3.277 3.277 0 00-3.29 0l-152.86 88.25a1.17 1.17 0 000 2z" fill="#91AFFF"/><path d="M337.1 171.37l-132.78 76.66-5.91-3.4 132.78-76.66 5.91 3.4zm14.47 8.36l-124.54 71.9-5.9-3.41 124.54-71.9 5.9 3.41zm9.43 5.44l-146.64 84.66-5.9-3.41 146.63-84.66 5.91 3.41zm9.42 5.45l-146.63 84.65-5.9-3.4 146.63-84.66 5.9 3.41zm9.43 5.44l-146.63 84.66-5.91-3.41 146.64-84.66 5.9 3.41zm-183.55 56.6l-5.91 3.41-5.9-3.41 5.9-3.4 5.91 3.4zm20.82 4.7l-12.25 7.07-5.91-3.41 12.26-7.07 5.9 3.41z" fill="#242993"/><path d="M335.58 273l41.22-23.8c1.61-.93 1.61-2.44 0-3.37l-28.19-16.27a6.445 6.445 0 00-5.83 0l-41.27 23.8c-1.61.94-1.61 2.44 0 3.37L329.75 273a6.433 6.433 0 005.83 0z" fill="url(#paint11_linear_530_1034)"/><path d="M301.51 254.74L342.78 231a6.445 6.445 0 015.83 0l28.19 16.27c.42.234.766.58 1 1 .43-.81.1-1.73-1-2.37l-28.19-16.27a6.445 6.445 0 00-5.83 0l-41.27 23.73c-1.11.65-1.44 1.56-1 2.38a2.544 2.544 0 011-1z" fill="#91AFFF"/><g opacity=".11"><path d="M332.83 147.24l-183.94 106.2a7.552 7.552 0 01-6.8.28L32.32 190.35c-1.74-1-1.52-2.77.49-3.93l183.94-106.2a7.568 7.568 0 016.81-.28l109.76 63.37c1.75 1.01 1.53 2.77-.49 3.93z" fill="url(#paint12_linear_530_1034)"/><path d="M148.34 166.28l41.17-23.8c1.61-.93 1.61-2.44 0-3.37l-28.19-16.27a6.445 6.445 0 00-5.83 0l-41.22 23.8c-1.61.93-1.61 2.44 0 3.37l28.24 16.27a6.433 6.433 0 005.83 0z" fill="url(#paint13_linear_530_1034)"/><path d="M114.32 148l41.19-23.78a6.445 6.445 0 015.83 0l28.17 16.27c.423.229.771.577 1 1 .43-.82.1-1.73-1-2.38l-28.19-16.27a6.445 6.445 0 00-5.83 0l-41.22 23.8c-1.11.64-1.43 1.56-1 2.37a2.524 2.524 0 011.05-1.01z" fill="#91AFFF"/><path d="M96.21 203.47l152.85-88.26a3.316 3.316 0 013.3 0l54.43 31.5a1.166 1.166 0 010 2L154 237a3.277 3.277 0 01-3.29 0l-54.5-31.45a1.17 1.17 0 010-2.08z" fill="#ADC8FF"/><path d="M96.21 205.5l.54.31 152.31-87.93a3.298 3.298 0 013.3 0l53.88 31.18.55-.32a1.166 1.166 0 000-2l-54.43-31.5a3.316 3.316 0 00-3.3 0L96.21 203.47a1.17 1.17 0 000 2.03z" fill="#91AFFF"/><path d="M292.55 144.56l-133.17 76.88 5.27 3.05 133.17-76.89-5.27-3.04zm-14.04-8.1l-126.57 73.07 5.28 3.05 126.57-73.08-5.28-3.04zm-136.02 78.53l-11.82 6.83 5.27 3.04 11.82-6.82-5.27-3.05zm10.44 10.17l-8.23 4.76 5.27 3.04 8.24-4.75-5.28-3.05zm116.79-93.78l-147.84 85.36 5.27 3.05L275 134.43l-5.28-3.05zm-8.79-5.07l-147.84 85.35 5.27 3.05 147.85-85.36-5.28-3.04zm-8.79-5.08l-147.85 85.36 5.28 3.04 147.84-85.35-5.27-3.05z" fill="#242993"/></g><path opacity=".42" d="M247.67 243.79l-39.63-24.39 89.09-51.43 42.05 28.26-91.51 47.56z" fill="url(#paint14_radial_530_1034)"/><path opacity=".42" d="M208.04 219.4l-9.08-57.34 83.61-47.96v62.16l-74.53 43.14z" fill="url(#paint15_radial_530_1034)"/><path d="M291.32 86.25l-8.81-5.09a.41.41 0 00-.44 0l-110.83 64a1.582 1.582 0 00-.66 1.25v20.93a.63.63 0 00.18.49l8.93 5.17.07-10.11 102.27-59.04a1.583 1.583 0 00.66-1.25v-7.18l8.63-9.17z" fill="url(#paint16_linear_530_1034)"/><path d="M290.92 109l-110.83 64c-.36.21-.65 0-.65-.5v-20.96a1.56 1.56 0 01.65-1.25l110.83-64c.37-.21.66 0 .66.49v20.93a1.555 1.555 0 01-.66 1.29z" fill="url(#paint17_linear_530_1034)"/><path opacity=".6" d="M275.64 104.73l-86.3 50.74a60.59 60.59 0 017.51 7.81l86.93-50.19a59.238 59.238 0 00-8.14-8.36z" fill="#242993"/><path d="M287.76 102.69L183.25 163c-.25.15-.45 0-.45-.33v-5.26a1.086 1.086 0 01.45-.86l104.51-60.32c.25-.14.45 0 .45.34v5.26a1.1 1.1 0 01-.45.86z" fill="#242993"/><path d="M287.76 96.23l-2.12 1.23v2.84a1.058 1.058 0 01-.45.85L182.8 160.27v2.42c0 .33.2.48.45.33l104.51-60.33a1.096 1.096 0 00.45-.86v-5.26c0-.33-.2-.48-.45-.34z" fill="#4553C7"/><path opacity=".96" d="M346.51 329.08l86.95-50.2c-11.22-6.48-20.67-20.65-23.56-34.2a19.712 19.712 0 00-9.4-13.07l-65.7-37.93A62.863 62.863 0 01303.36 143c-1-17.81-14.52-35.32-25-41.36l-86.94 50.2c10.29 5.94 21.63 22.56 22.92 40.06a63.672 63.672 0 0031.34 50.76l67.83 39.14a19.792 19.792 0 019.4 13.07c2.88 13.56 12.34 27.73 23.55 34.21h.05z" fill="url(#paint18_linear_530_1034)"/><path opacity=".8" d="M278.39 101.64l-86.94 50.2c.7.4 1.38.84 2.07 1.29l86.93-50.19c-.67-.46-1.36-.94-2.06-1.3z" fill="#4553C7"/><path d="M361.67 145h-27.73v59.24c0 2.05 1.35 4.1 4.06 5.66 5.41 3.13 14.2 3.13 19.61 0 2.71-1.56 4.06-3.61 4.06-5.66V145z" fill="url(#paint19_linear_530_1034)"/><path d="M361.67 145h-27.73v59.24c0 2.05 1.35 4.1 4.06 5.66 5.41 3.13 14.2 3.13 19.61 0 2.71-1.56 4.06-3.61 4.06-5.66V145z" fill="url(#paint20_linear_530_1034)"/><path d="M347.8 153c-7.66 0-13.87-3.586-13.87-8.01 0-4.424 6.21-8.01 13.87-8.01 7.66 0 13.87 3.586 13.87 8.01 0 4.424-6.21 8.01-13.87 8.01z" fill="url(#paint21_linear_530_1034)"/><path opacity=".3" d="M354.14 148.65a14.054 14.054 0 01-12.67 0c-3.49-2-3.49-5.3 0-7.31a14.002 14.002 0 0112.67 0c3.49 2.01 3.49 5.29 0 7.31z" fill="url(#paint22_linear_530_1034)"/><path opacity=".5" d="M357.61 150.06c-5.41 3.12-14.2 3.12-19.61 0-2.58-1.49-3.91-3.42-4-5.37-.14 2.15 1.2 4.32 4 6 5.41 3.13 14.2 3.13 19.61 0 2.84-1.64 4.18-3.81 4-6-.1 1.95-1.42 3.88-4 5.37z" fill="#fff"/><path d="M361.67 132.12h-27.73v5.41c0 2.05 1.35 4.1 4.06 5.66 5.41 3.13 14.2 3.13 19.61 0 2.71-1.56 4.06-3.61 4.06-5.66v-5.41z" fill="url(#paint23_linear_530_1034)"/><path d="M361.67 132.12h-27.73v5.41c0 2.05 1.35 4.1 4.06 5.66 5.41 3.13 14.2 3.13 19.61 0 2.71-1.56 4.06-3.61 4.06-5.66v-5.41z" fill="url(#paint24_linear_530_1034)"/><path d="M347.8 140.13c-7.66 0-13.87-3.586-13.87-8.01 0-4.424 6.21-8.01 13.87-8.01 7.66 0 13.87 3.586 13.87 8.01 0 4.424-6.21 8.01-13.87 8.01z" fill="url(#paint25_linear_530_1034)"/><path opacity=".5" d="M357.61 137.19c-5.41 3.12-14.2 3.12-19.61 0-2.58-1.49-3.91-3.42-4-5.37-.14 2.15 1.2 4.32 4 6 5.41 3.13 14.2 3.13 19.61 0 2.84-1.64 4.18-3.81 4-6-.1 1.95-1.42 3.88-4 5.37z" fill="#fff"/><path d="M338.74 178h-27.73v39.49c0 2.05 1.35 4.1 4.06 5.66 5.41 3.13 14.19 3.13 19.61 0 2.71-1.56 4.06-3.61 4.06-5.66V178z" fill="url(#paint26_linear_530_1034)"/><path d="M338.74 178h-27.73v39.49c0 2.05 1.35 4.1 4.06 5.66 5.41 3.13 14.19 3.13 19.61 0 2.71-1.56 4.06-3.61 4.06-5.66V178z" fill="url(#paint27_linear_530_1034)"/><path d="M324.87 185.97c-7.66 0-13.87-3.586-13.87-8.01 0-4.424 6.21-8.01 13.87-8.01 7.66 0 13.87 3.586 13.87 8.01 0 4.424-6.21 8.01-13.87 8.01z" fill="url(#paint28_linear_530_1034)"/><path opacity=".5" d="M334.68 183c-5.42 3.12-14.2 3.12-19.61 0-2.58-1.49-3.92-3.42-4-5.37-.14 2.15 1.2 4.32 4 6 5.41 3.13 14.19 3.13 19.61 0 2.84-1.64 4.17-3.81 4-6-.09 1.98-1.42 3.91-4 5.37z" fill="#fff"/><path d="M315.81 171h-27.74v59.72c0 2 1.36 4.09 4.07 5.66 5.41 3.12 14.19 3.12 19.61 0 2.71-1.57 4.06-3.61 4.06-5.66V171z" fill="url(#paint29_linear_530_1034)"/><path d="M315.81 171h-27.74v59.72c0 2 1.36 4.09 4.07 5.66 5.41 3.12 14.19 3.12 19.61 0 2.71-1.57 4.06-3.61 4.06-5.66V171z" fill="url(#paint30_linear_530_1034)"/><path d="M311.75 176.62c-5.42 3.13-14.2 3.13-19.61 0s-5.42-8.2 0-11.32c5.42-3.12 14.19-3.13 19.61 0s5.41 8.19 0 11.32z" fill="url(#paint31_linear_530_1034)"/><path opacity=".5" d="M311.75 176c-5.42 3.12-14.2 3.12-19.61 0-2.58-1.49-3.92-3.42-4-5.37-.14 2.15 1.2 4.32 4 6 5.41 3.13 14.19 3.13 19.61 0 2.84-1.64 4.17-3.81 4-6-.09 1.98-1.43 3.91-4 5.37z" fill="#fff"/><path d="M292.88 195h-27.74v49c0 2 1.36 4.1 4.06 5.66 5.42 3.13 14.2 3.13 19.62 0 2.7-1.56 4.06-3.61 4.06-5.66v-49z" fill="url(#paint32_linear_530_1034)"/><path d="M292.88 195h-27.74v49c0 2 1.36 4.1 4.06 5.66 5.42 3.13 14.2 3.13 19.62 0 2.7-1.56 4.06-3.61 4.06-5.66v-49z" fill="url(#paint33_linear_530_1034)"/><path d="M288.82 200.61c-5.42 3.13-14.2 3.13-19.62 0-5.42-3.13-5.41-8.2 0-11.32 5.41-3.12 14.2-3.13 19.62 0 5.42 3.13 5.41 8.19 0 11.32z" fill="url(#paint34_linear_530_1034)"/><path opacity=".5" d="M288.82 200c-5.42 3.12-14.2 3.12-19.62 0-2.57-1.49-3.91-3.42-4-5.37-.14 2.15 1.19 4.32 4 6 5.42 3.13 14.2 3.13 19.62 0 2.83-1.64 4.17-3.81 4-6-.09 1.97-1.43 3.9-4 5.37z" fill="#fff"/><path d="M269.95 220.24h-27.74v36.88c0 2.05 1.35 4.1 4.06 5.67 5.42 3.12 14.2 3.12 19.61 0 2.71-1.57 4.07-3.62 4.07-5.67v-36.88z" fill="url(#paint35_linear_530_1034)"/><path d="M269.95 220.24h-27.74v36.88c0 2.05 1.35 4.1 4.06 5.67 5.42 3.12 14.2 3.12 19.61 0 2.71-1.57 4.07-3.62 4.07-5.67v-36.88z" fill="url(#paint36_linear_530_1034)"/><path d="M256.08 228.25c-7.66 0-13.87-3.586-13.87-8.01 0-4.424 6.21-8.01 13.87-8.01 7.66 0 13.87 3.586 13.87 8.01 0 4.424-6.21 8.01-13.87 8.01z" fill="url(#paint37_linear_530_1034)"/><path opacity=".5" d="M265.88 225.31c-5.41 3.13-14.19 3.13-19.61 0-2.57-1.49-3.91-3.42-4-5.37-.13 2.15 1.2 4.32 4 6 5.42 3.13 14.2 3.13 19.61 0 2.84-1.64 4.18-3.81 4-6-.08 1.95-1.42 3.88-4 5.37z" fill="#fff"/><path d="M145.02 120.82l-2.68 1.7-.32-1.98 2.68-1.7.32 1.98zm2.15 13.38l-2.68 1.71-1.86-11.58 2.68-1.71 1.86 11.58zm1.03 6.4l-2.68 1.71-.74-4.6 2.68-1.71.74 4.6zm1.06 6.64l-2.68 1.7-.74-4.6 2.68-1.7.74 4.6zm.79-22.56l-2.68 1.7-.74-4.6 2.68-1.7.74 4.6zm1.4 8.78l-2.67 1.71-1.09-6.75 2.68-1.71 1.08 6.75zm1.3 8.09l-2.68 1.71-.93-5.79 2.68-1.71.93 5.79zm-2.42 12.32l-2.68 1.7-.74-4.59 2.68-1.71.74 4.6zm-1.31-35.59l-2.68 1.7-.32-1.98 2.68-1.7.32 1.98zm4.34 40.76l-4.68 2.97-.31-1.92 4.68-2.97.31 1.92zM161.21 344a3.998 3.998 0 002-.53L198.65 323l-.47-.81-35.46 20.47a3.002 3.002 0 01-3 0L1.31 251.21a.707.707 0 01-.35-.61.682.682 0 01.35-.61L37.51 229l-.47-.81L.79 249.11a1.647 1.647 0 00-.6 2.247c.144.25.351.458.6.603l158.4 91.46c.61.37 1.307.57 2.02.58zm299.78-77.88a5.083 5.083 0 002.54-.67l86.23-49.75a1.465 1.465 0 00.75-1.29 1.496 1.496 0 00-.74-1.29l-56.84-32.81-.47.82 56.84 32.81a.545.545 0 01.195.748.552.552 0 01-.205.202l-86.24 49.74a4.145 4.145 0 01-4.12 0l-17.4-10-.47.82 17.4 10a5.07 5.07 0 002.53.67z" fill="#42FFFF"/><path d="M389.91 133l31.77-18.34-31.77-18.35-31.77 18.35L389.91 133zm30-18.34l-30 17.34-30-17.34 30-17.35 30 17.35zm63.22 217.23l31.78-18.35-31.78-18.34-31.77 18.34 31.77 18.35zm30-18.35l-30 17.35-30-17.35 30-17.34 30 17.34z" fill="#88FFF3"/></g><defs><linearGradient id="paint0_linear_530_1034" x1="435.21" y1="117.99" x2="505.38" y2="174.26" gradientUnits="userSpaceOnUse"><stop stop-color="#BCD5FF"/><stop offset=".15" stop-color="#A3BEFF"/><stop offset=".39" stop-color="#82A0FF"/><stop offset=".61" stop-color="#6A8AFF"/><stop offset=".82" stop-color="#5C7DFF"/><stop offset="1" stop-color="#5778FF"/></linearGradient><linearGradient id="paint1_linear_530_1034" x1="422.088" y1="136.726" x2="520.123" y2="106.521" gradientUnits="userSpaceOnUse"><stop stop-color="#C0D6FF"/><stop offset=".3" stop-color="#C5DBFF"/><stop offset=".65" stop-color="#D3E9FF"/><stop offset="1" stop-color="#E9FFFF"/></linearGradient><linearGradient id="paint2_linear_530_1034" x1="41.17" y1="167.42" x2="111.35" y2="223.7" gradientUnits="userSpaceOnUse"><stop stop-color="#BCD5FF"/><stop offset=".15" stop-color="#A3BEFF"/><stop offset=".39" stop-color="#82A0FF"/><stop offset=".61" stop-color="#6A8AFF"/><stop offset=".82" stop-color="#5C7DFF"/><stop offset="1" stop-color="#5778FF"/></linearGradient><linearGradient id="paint3_linear_530_1034" x1="26.941" y1="185.765" x2="124.976" y2="155.56" gradientUnits="userSpaceOnUse"><stop stop-color="#C0D6FF"/><stop offset=".3" stop-color="#C5DBFF"/><stop offset=".65" stop-color="#D3E9FF"/><stop offset="1" stop-color="#E9FFFF"/></linearGradient><linearGradient id="paint4_linear_530_1034" x1="26.941" y1="185.765" x2="124.976" y2="155.56" gradientUnits="userSpaceOnUse"><stop stop-color="#C0D6FF"/><stop offset=".3" stop-color="#C5DBFF"/><stop offset=".65" stop-color="#D3E9FF"/><stop offset="1" stop-color="#E9FFFF"/></linearGradient><linearGradient id="paint5_linear_530_1034" x1="41.17" y1="148.96" x2="111.35" y2="205.23" gradientUnits="userSpaceOnUse"><stop stop-color="#BCD5FF"/><stop offset=".15" stop-color="#A3BEFF"/><stop offset=".39" stop-color="#82A0FF"/><stop offset=".61" stop-color="#6A8AFF"/><stop offset=".82" stop-color="#5C7DFF"/><stop offset="1" stop-color="#5778FF"/></linearGradient><linearGradient id="paint6_linear_530_1034" x1="27.011" y1="167.261" x2="125.049" y2="137.042" gradientUnits="userSpaceOnUse"><stop stop-color="#C0D6FF"/><stop offset=".3" stop-color="#C5DBFF"/><stop offset=".65" stop-color="#D3E9FF"/><stop offset="1" stop-color="#E9FFFF"/></linearGradient><linearGradient id="paint7_linear_530_1034" x1="118.35" y1="127.23" x2="333.03" y2="127.23" gradientUnits="userSpaceOnUse"><stop stop-color="#C0D6FF"/><stop offset=".3" stop-color="#C5DBFF"/><stop offset=".65" stop-color="#D3E9FF"/><stop offset="1" stop-color="#E9FFFF"/></linearGradient><linearGradient id="paint8_linear_530_1034" x1="118.35" y1="182.29" x2="155.21" y2="182.29" gradientUnits="userSpaceOnUse"><stop stop-color="#5778FF"/><stop offset=".18" stop-color="#5C7DFF"/><stop offset=".39" stop-color="#6A8AFF"/><stop offset=".61" stop-color="#82A0FF"/><stop offset=".85" stop-color="#A3BEFF"/><stop offset="1" stop-color="#BCD5FF"/></linearGradient><linearGradient id="paint9_linear_530_1034" x1="147.11" y1="244.18" x2="450.3" y2="244.18" gradientUnits="userSpaceOnUse"><stop stop-color="#5778FF"/><stop offset=".18" stop-color="#5C7DFF"/><stop offset=".39" stop-color="#6A8AFF"/><stop offset=".61" stop-color="#82A0FF"/><stop offset=".85" stop-color="#A3BEFF"/><stop offset="1" stop-color="#BCD5FF"/></linearGradient><linearGradient id="paint10_linear_530_1034" x1="248.98" y1="234.07" x2="552.34" y2="234.07" gradientUnits="userSpaceOnUse"><stop stop-color="#C0D6FF"/><stop offset=".3" stop-color="#C5DBFF"/><stop offset=".65" stop-color="#D3E9FF"/><stop offset="1" stop-color="#E9FFFF"/></linearGradient><linearGradient id="paint11_linear_530_1034" x1="300.36" y1="251.29" x2="378.01" y2="251.29" gradientUnits="userSpaceOnUse"><stop stop-color="#C0D6FF"/><stop offset=".3" stop-color="#C5DBFF"/><stop offset=".65" stop-color="#D3E9FF"/><stop offset="1" stop-color="#E9FFFF"/></linearGradient><linearGradient id="paint12_linear_530_1034" x1="133.08" y1="166.83" x2="436.44" y2="166.83" gradientUnits="userSpaceOnUse"><stop stop-color="#C0D6FF"/><stop offset=".3" stop-color="#C5DBFF"/><stop offset=".65" stop-color="#D3E9FF"/><stop offset="1" stop-color="#E9FFFF"/></linearGradient><linearGradient id="paint13_linear_530_1034" x1="113.12" y1="144.56" x2="190.77" y2="144.56" gradientUnits="userSpaceOnUse"><stop stop-color="#C0D6FF"/><stop offset=".3" stop-color="#C5DBFF"/><stop offset=".65" stop-color="#D3E9FF"/><stop offset="1" stop-color="#E9FFFF"/></linearGradient><linearGradient id="paint16_linear_530_1034" x1="192.49" y1="185.97" x2="251.12" y2="80.38" gradientUnits="userSpaceOnUse"><stop stop-color="#5778FF"/><stop offset=".04" stop-color="#5C7DFF"/><stop offset=".09" stop-color="#6A8AFF"/><stop offset=".14" stop-color="#82A0FF"/><stop offset=".19" stop-color="#A3BEFF"/><stop offset=".22" stop-color="#BCD5FF"/></linearGradient><linearGradient id="paint17_linear_530_1034" x1="264.52" y1="186.35" x2="225.49" y2="110.05" gradientUnits="userSpaceOnUse"><stop stop-color="#C0D6FF"/><stop offset=".3" stop-color="#C5DBFF"/><stop offset=".65" stop-color="#D3E9FF"/><stop offset="1" stop-color="#E9FFFF"/></linearGradient><linearGradient id="paint18_linear_530_1034" x1="370.01" y1="323.5" x2="245.97" y2="103.7" gradientUnits="userSpaceOnUse"><stop stop-color="#C0D6FF"/><stop offset=".08" stop-color="#C3D9FF"/><stop offset=".13" stop-color="#CCE2FF"/><stop offset=".18" stop-color="#DCF2FF"/><stop offset=".21" stop-color="#E9FFFF"/><stop offset=".26" stop-color="#D8EEFF"/><stop offset=".31" stop-color="#CBE1FF"/><stop offset=".39" stop-color="#C2D8FF"/><stop offset=".51" stop-color="#C0D6FF"/><stop offset=".62" stop-color="#D0E6FF"/><stop offset=".75" stop-color="#E9FFFF"/><stop offset="1" stop-color="#C0D6FF"/></linearGradient><linearGradient id="paint19_linear_530_1034" x1="333.93" y1="178.61" x2="361.51" y2="178.61" gradientUnits="userSpaceOnUse"><stop stop-color="#C0D6FF"/><stop offset=".5" stop-color="#D2E8FF"/><stop offset="1" stop-color="#E9FFFF"/></linearGradient><linearGradient id="paint20_linear_530_1034" x1="303.03" y1="178.61" x2="356.32" y2="178.61" gradientUnits="userSpaceOnUse"><stop stop-color="#5778FF"/><stop offset=".18" stop-color="#5C7DFF"/><stop offset=".39" stop-color="#6A8AFF"/><stop offset=".61" stop-color="#82A0FF"/><stop offset=".85" stop-color="#A3BEFF"/><stop offset="1" stop-color="#BCD5FF"/></linearGradient><linearGradient id="paint21_linear_530_1034" x1="346.034" y1="139.335" x2="355.815" y2="156.354" gradientUnits="userSpaceOnUse"><stop stop-color="#C0D6FF"/><stop offset=".3" stop-color="#C5DBFF"/><stop offset=".65" stop-color="#D3E9FF"/><stop offset="1" stop-color="#E9FFFF"/></linearGradient><linearGradient id="paint22_linear_530_1034" x1="349.523" y1="141.34" x2="355.839" y2="152.33" gradientUnits="userSpaceOnUse"><stop stop-color="#5778FF"/><stop offset=".18" stop-color="#5C7DFF"/><stop offset=".39" stop-color="#6A8AFF"/><stop offset=".61" stop-color="#82A0FF"/><stop offset=".85" stop-color="#A3BEFF"/><stop offset="1" stop-color="#BCD5FF"/></linearGradient><linearGradient id="paint23_linear_530_1034" x1="333.93" y1="138.83" x2="361.51" y2="138.83" gradientUnits="userSpaceOnUse"><stop stop-color="#C0D6FF"/><stop offset=".5" stop-color="#D2E8FF"/><stop offset="1" stop-color="#E9FFFF"/></linearGradient><linearGradient id="paint24_linear_530_1034" x1="303.03" y1="138.83" x2="356.32" y2="138.83" gradientUnits="userSpaceOnUse"><stop stop-color="#5778FF"/><stop offset=".18" stop-color="#5C7DFF"/><stop offset=".39" stop-color="#6A8AFF"/><stop offset=".61" stop-color="#82A0FF"/><stop offset=".85" stop-color="#A3BEFF"/><stop offset="1" stop-color="#BCD5FF"/></linearGradient><linearGradient id="paint25_linear_530_1034" x1="346.025" y1="126.46" x2="355.811" y2="143.486" gradientUnits="userSpaceOnUse"><stop stop-color="#C0D6FF"/><stop offset=".3" stop-color="#C5DBFF"/><stop offset=".65" stop-color="#D3E9FF"/><stop offset="1" stop-color="#E9FFFF"/></linearGradient><linearGradient id="paint26_linear_530_1034" x1="311" y1="201.71" x2="338.58" y2="201.71" gradientUnits="userSpaceOnUse"><stop stop-color="#C0D6FF"/><stop offset=".5" stop-color="#D2E8FF"/><stop offset="1" stop-color="#E9FFFF"/></linearGradient><linearGradient id="paint27_linear_530_1034" x1="280.1" y1="201.71" x2="333.39" y2="201.71" gradientUnits="userSpaceOnUse"><stop stop-color="#5778FF"/><stop offset=".18" stop-color="#5C7DFF"/><stop offset=".39" stop-color="#6A8AFF"/><stop offset=".61" stop-color="#82A0FF"/><stop offset=".85" stop-color="#A3BEFF"/><stop offset="1" stop-color="#BCD5FF"/></linearGradient><linearGradient id="paint28_linear_530_1034" x1="322.988" y1="172.3" x2="332.773" y2="189.326" gradientUnits="userSpaceOnUse"><stop stop-color="#C0D6FF"/><stop offset=".3" stop-color="#C5DBFF"/><stop offset=".65" stop-color="#D3E9FF"/><stop offset="1" stop-color="#E9FFFF"/></linearGradient><linearGradient id="paint29_linear_530_1034" x1="288.07" y1="204.82" x2="315.65" y2="204.82" gradientUnits="userSpaceOnUse"><stop stop-color="#C0D6FF"/><stop offset=".5" stop-color="#D2E8FF"/><stop offset="1" stop-color="#E9FFFF"/></linearGradient><linearGradient id="paint30_linear_530_1034" x1="257.17" y1="204.82" x2="310.46" y2="204.82" gradientUnits="userSpaceOnUse"><stop stop-color="#5778FF"/><stop offset=".18" stop-color="#5C7DFF"/><stop offset=".39" stop-color="#6A8AFF"/><stop offset=".61" stop-color="#82A0FF"/><stop offset=".85" stop-color="#A3BEFF"/><stop offset="1" stop-color="#BCD5FF"/></linearGradient><linearGradient id="paint31_linear_530_1034" x1="299.95" y1="165.3" x2="309.735" y2="182.326" gradientUnits="userSpaceOnUse"><stop stop-color="#C0D6FF"/><stop offset=".3" stop-color="#C5DBFF"/><stop offset=".65" stop-color="#D3E9FF"/><stop offset="1" stop-color="#E9FFFF"/></linearGradient><linearGradient id="paint32_linear_530_1034" x1="265.14" y1="223.43" x2="292.72" y2="223.43" gradientUnits="userSpaceOnUse"><stop stop-color="#C0D6FF"/><stop offset=".5" stop-color="#D2E8FF"/><stop offset="1" stop-color="#E9FFFF"/></linearGradient><linearGradient id="paint33_linear_530_1034" x1="234.23" y1="223.43" x2="287.53" y2="223.43" gradientUnits="userSpaceOnUse"><stop stop-color="#5778FF"/><stop offset=".18" stop-color="#5C7DFF"/><stop offset=".39" stop-color="#6A8AFF"/><stop offset=".61" stop-color="#82A0FF"/><stop offset=".85" stop-color="#A3BEFF"/><stop offset="1" stop-color="#BCD5FF"/></linearGradient><linearGradient id="paint34_linear_530_1034" x1="276.913" y1="189.29" x2="286.698" y2="206.316" gradientUnits="userSpaceOnUse"><stop stop-color="#C0D6FF"/><stop offset=".3" stop-color="#C5DBFF"/><stop offset=".65" stop-color="#D3E9FF"/><stop offset="1" stop-color="#E9FFFF"/></linearGradient><linearGradient id="paint35_linear_530_1034" x1="242.21" y1="242.69" x2="269.79" y2="242.69" gradientUnits="userSpaceOnUse"><stop stop-color="#C0D6FF"/><stop offset=".5" stop-color="#D2E8FF"/><stop offset="1" stop-color="#E9FFFF"/></linearGradient><linearGradient id="paint36_linear_530_1034" x1="211.3" y1="242.69" x2="264.6" y2="242.69" gradientUnits="userSpaceOnUse"><stop stop-color="#5778FF"/><stop offset=".18" stop-color="#5C7DFF"/><stop offset=".39" stop-color="#6A8AFF"/><stop offset=".61" stop-color="#82A0FF"/><stop offset=".85" stop-color="#A3BEFF"/><stop offset="1" stop-color="#BCD5FF"/></linearGradient><linearGradient id="paint37_linear_530_1034" x1="253.884" y1="214.585" x2="263.665" y2="231.604" gradientUnits="userSpaceOnUse"><stop stop-color="#C0D6FF"/><stop offset=".3" stop-color="#C5DBFF"/><stop offset=".65" stop-color="#D3E9FF"/><stop offset="1" stop-color="#E9FFFF"/></linearGradient><radialGradient id="paint14_radial_530_1034" cx="0" cy="0" r="1" gradientUnits="userSpaceOnUse" gradientTransform="translate(235.47 205.88) scale(86.97)"><stop stop-color="#2B3AA5"/><stop offset="1" stop-color="#182484"/></radialGradient><radialGradient id="paint15_radial_530_1034" cx="0" cy="0" r="1" gradientUnits="userSpaceOnUse" gradientTransform="translate(216.45 166.75) scale(66.57)"><stop stop-color="#2B3AA5"/><stop offset="1" stop-color="#182484"/></radialGradient><clipPath id="clip0_530_1034"><path fill="#fff" transform="matrix(-1 0 0 1 550.51 0)" d="M0 0h550.51v357.94H0z"/></clipPath></defs></svg>