<svg width="635" height="408" fill="none" xmlns="http://www.w3.org/2000/svg"><g clip-path="url(#clip0_582_7115)"><path d="M122.616 25.878l-7.208-12.551L108.2.777l-7.267 12.526-7.268 12.515 10.005.024-.096 48.386 8.941.024.096-48.398 10.005.024zM94.12 57.71l-4.364-7.591-4.362-7.59-4.387 7.578-4.4 7.566 6.05.012-.049 29.25 5.403.012.06-29.25 6.048.012z" fill="#E0E0E0"/><path d="M509.086 43.867H141.681v285.885h367.405V43.867z" fill="#fff"/><path d="M509.087 329.752c0-2.14-.108-113.316-.263-285.885l.263.251-367.37.06.311-.31v285.884l-.275-.287 367.405.287-367.405.275h-.275V43.557h367.967v.263a853149.83 853149.83 0 00-.358 285.932z" fill="#263238"/><path d="M242.71 305.738c-.18 0-.311-31.078-.311-69.4s.131-69.412.311-69.412c.179 0 .31 31.078.31 69.412s-.143 69.4-.31 69.4zm159.443 0c-.179 0-.31-31.078-.31-69.4s.131-69.412.31-69.412c.18 0 .311 31.078.311 69.412s-.143 69.4-.311 69.4zm-105.02 0c-.168 0-.311-39.732-.311-88.729 0-48.996.143-88.728.311-88.728.167 0 .31 39.72.31 88.728 0 49.009-.131 88.729-.31 88.729zm-110.329 0c-.179 0-.31-39.732-.31-88.729 0-48.996.131-88.728.31-88.728.18 0 .311 39.72.311 88.728 0 49.009-.143 88.729-.311 88.729zm277.924 0c-.167 0-.311-39.732-.311-88.729 0-48.996.144-88.728.311-88.728.168 0 .311 39.72.311 88.728 0 49.009-.131 88.729-.311 88.729zm-119.854 0c-.18 0-.311-45.876-.311-102.439 0-56.562.131-102.463.311-102.463.179 0 .31 45.865.31 102.463 0 56.598-.143 102.439-.31 102.439z" fill="#263238"/><path d="M244.013 166.925a1.304 1.304 0 11-2.607-.001 1.304 1.304 0 012.607.001zm53.119-37.341a1.303 1.303 0 100-2.606 1.303 1.303 0 000 2.606z" fill="#263238"/><path d="M297.133 132.847a4.564 4.564 0 01-4.465-5.464 4.56 4.56 0 013.59-3.581 4.561 4.561 0 014.684 1.943 4.57 4.57 0 01.769 2.536 4.582 4.582 0 01-4.578 4.566zm0-8.833a4.263 4.263 0 00-4.172 5.107 4.263 4.263 0 003.355 3.346 4.267 4.267 0 005.096-4.186 4.28 4.28 0 00-4.279-4.267zm47.74-21.875a1.303 1.303 0 10.001-2.605 1.303 1.303 0 00-.001 2.605zm57.28 67.392a1.303 1.303 0 10.001-2.605 1.303 1.303 0 00-.001 2.605zm62.611-39.947a1.303 1.303 0 100-2.606 1.303 1.303 0 000 2.606zm-276.656 0a1.309 1.309 0 01-.805 1.204 1.31 1.31 0 01-.753.074 1.3 1.3 0 01-.949-1.777 1.3 1.3 0 011.204-.804 1.303 1.303 0 011.303 1.303z" fill="#263238"/><path d="M477.064 191.083c-.329.15-.674.262-1.028.335a20.84 20.84 0 00-2.953 1.016 28.45 28.45 0 00-9.49 7.172c-3.586 3.848-7.113 9.203-11.571 15.228a73.6 73.6 0 01-7.865 9.12 44.907 44.907 0 01-5.104 4.232 36.713 36.713 0 01-6.156 3.358 34.662 34.662 0 01-14.727 2.475 38.827 38.827 0 01-7.925-.992 20.648 20.648 0 01-7.673-3.371 24.811 24.811 0 01-5.977-6.252c-1.65-2.39-3.132-4.924-4.566-7.494-2.869-5.176-5.833-10.388-9.216-15.623-3.383-5.236-6.395-10.89-9.826-16.376a78.046 78.046 0 00-12.036-15.539 34.67 34.67 0 00-8.081-5.786 26.703 26.703 0 00-9.562-2.809 33.7 33.7 0 00-19.902 4.256 50.205 50.205 0 00-15.157 14.14 156.083 156.083 0 00-10.889 17.44 174.594 174.594 0 01-10.483 17.045 83.27 83.27 0 01-12.707 14.488c-1.195 1.016-2.39 2.044-3.681 2.94a42.26 42.26 0 01-3.933 2.582 33.94 33.94 0 01-8.463 3.478 26.893 26.893 0 01-4.422.825c-.737.098-1.48.142-2.224.132h-2.211a34.244 34.244 0 01-8.475-1.578 57.373 57.373 0 01-14.344-7.483c-4.255-2.928-8.14-5.976-11.953-8.702a63.698 63.698 0 00-11.343-6.885 37.51 37.51 0 00-11.296-3.203 27.61 27.61 0 00-10.136.705c-.748.186-1.483.422-2.2.705-.706.215-1.394.487-2.056.813a26.824 26.824 0 00-3.586 1.984 39.415 39.415 0 00-5.391 4.315l-1.876 2.056a16.779 16.779 0 00-1.506 1.757l-1.901 2.499a5.432 5.432 0 01-.705.824c.143-.332.328-.645.55-.932l1.757-2.618c.441-.641.924-1.252 1.446-1.829.562-.657 1.195-1.374 1.841-2.139a36.837 36.837 0 015.391-4.542 26.954 26.954 0 013.586-2.116 15.625 15.625 0 012.092-.873 19.298 19.298 0 012.259-.765 28.576 28.576 0 0110.495-.836 38.006 38.006 0 0111.666 3.167 64.394 64.394 0 0111.642 6.885c3.849 2.726 7.758 5.714 11.953 8.583a56.463 56.463 0 0013.986 7.172 32.078 32.078 0 008.08 1.446h2.092c.699.004 1.398-.04 2.092-.132a27.788 27.788 0 004.183-.8 38.313 38.313 0 0015.348-8.678 82.485 82.485 0 0012.372-14.225 175.84 175.84 0 0010.363-16.902 156.575 156.575 0 0110.937-17.631 52.195 52.195 0 0115.731-14.654 35.745 35.745 0 0121.013-4.483 28.861 28.861 0 0110.352 2.941 36.643 36.643 0 018.499 6.108 80.136 80.136 0 0112.299 15.91c3.443 5.558 6.503 11.152 9.766 16.411a338.247 338.247 0 019.192 15.731c2.821 5.152 5.654 10.196 10.029 13.292a19.123 19.123 0 007.172 3.179c2.498.588 5.049.924 7.614 1.004a33.549 33.549 0 0014.177-2.259 34.85 34.85 0 005.976-3.179 42.067 42.067 0 004.997-4.052 73.473 73.473 0 007.853-8.894c4.518-5.916 8.188-11.26 11.881-15.085a27.496 27.496 0 019.874-7.052 17.049 17.049 0 013.048-.861c.327-.067.658-.107.992-.119z" fill="#E8505B"/><path d="M249.559 75.95h-64.057v3.562h64.057V75.95zm-32.405 8.343h-31.652v3.562h31.652v-3.562zM146.63 20.535h357.066a5.392 5.392 0 015.391 5.343v17.93H141.239v-17.93a5.391 5.391 0 015.391-5.343z" fill="#263238"/><path d="M160.304 32.655a2.509 2.509 0 01-4.285 1.775 2.512 2.512 0 01.381-3.862 2.508 2.508 0 013.904 2.087zm10.961 0a2.509 2.509 0 01-4.285 1.775 2.512 2.512 0 01.381-3.862 2.51 2.51 0 013.904 2.087zm10.949 0a2.509 2.509 0 01-4.285 1.775 2.512 2.512 0 01.381-3.862 2.508 2.508 0 013.904 2.087z" fill="#fff"/><path d="M147 212.097H3.86A3.86 3.86 0 000 215.958v34.58a3.861 3.861 0 003.86 3.861H147a3.86 3.86 0 003.861-3.861v-34.58a3.86 3.86 0 00-3.861-3.861z" fill="#E6E6E6"/><path d="M31.796 240.294a9.192 9.192 0 11-14.345-11.498 9.192 9.192 0 0114.345 11.498z" fill="#fff"/><path d="M29.8 231.473a43.481 43.481 0 01-4.985 5.283c-.407.406-.813.789-1.196 1.195l-.215.216-.215-.216a28.872 28.872 0 01-3.717-4.147 28.874 28.874 0 014.136 3.645h-.419l1.195-1.195a42.724 42.724 0 015.415-4.781zm106.335-1.327c0 .167-19.125.311-42.828.311-23.704 0-42.829-.144-42.829-.311s19.125-.311 42.829-.311c23.703 0 42.828.132 42.828.311zm-35.13 8.355c0 .18-11.093.323-24.767.323-13.675 0-24.756-.143-24.756-.323 0-.179 11.081-.311 24.755-.311 13.675 0 24.768.144 24.768.311z" fill="#263238"/><path d="M190.127 110.184H47.657a3.132 3.132 0 00-3.131 3.131v55.499a3.132 3.132 0 003.131 3.132h142.47a3.132 3.132 0 003.132-3.132v-55.499a3.131 3.131 0 00-3.132-3.131z" fill="#E0E0E0"/><path d="M75.437 129.703a6.947 6.947 0 01-8.293 6.825 6.947 6.947 0 01-5.07-9.468 6.944 6.944 0 0111.324-2.26 6.944 6.944 0 012.039 4.903z" fill="#7F5AF0"/><path d="M130.684 124.91H82.369v2.678h48.315v-2.678z" fill="#E8505B"/><path d="M176.345 131.006H82.369v2.678h93.976v-2.678z" fill="#fff"/><path d="M75.437 151.016a6.941 6.941 0 01-4.28 6.425 6.947 6.947 0 01-6.526-12.187 6.95 6.95 0 018.767.859 6.944 6.944 0 012.039 4.903z" fill="#7F5AF0"/><path d="M107.041 146.223H82.369v2.677h24.672v-2.677z" fill="#E8505B"/><path d="M176.345 152.319H82.369v2.677h93.976v-2.677z" fill="#fff"/><path d="M257.902 272.616H75.472a4.733 4.733 0 00-4.733 4.733v72.102a4.733 4.733 0 004.733 4.733h182.43a4.734 4.734 0 004.734-4.733v-72.102a4.734 4.734 0 00-4.734-4.733z" fill="#E0E0E0"/><path d="M105.846 312.025l-.108-16.543a21.195 21.195 0 00-13.698 5.319 19.58 19.58 0 00-6.575 17.141c.084.789.216 1.59.383 2.391l19.938-4.495.06-3.813zm20.547-5.092a19.605 19.605 0 00-16.089-11.26l-.634-.059h-1.709l.108 16.543v3.885l19.938 4.351c.308-1.41.457-2.849.442-4.292.002-3.17-.7-6.302-2.056-9.168z" fill="#E8505B"/><path d="M126.393 306.933a19.605 19.605 0 00-16.089-11.26l-.634-.059h-1.709l.108 16.543v3.885l19.938 4.351c.308-1.41.457-2.849.442-4.292.002-3.17-.7-6.302-2.056-9.168z" fill="#000" opacity=".2"/><path d="M106.909 317.978l-19.926 4.494a20.43 20.43 0 0032.789 11.412 20.428 20.428 0 007.111-11.555l-19.938-4.351" fill="#E8505B"/><path d="M106.909 317.978l-19.926 4.494a20.43 20.43 0 0032.789 11.412 20.428 20.428 0 007.111-11.555l-19.938-4.351" fill="#000" opacity=".1"/><path d="M243.14 300.431H141.861v4.59H243.14v-4.59zm0 12.096H141.861v4.59H243.14v-4.59zm-46.534 13.376h-54.745v4.59h54.745v-4.59z" fill="#fff"/><path d="M484.451 214.774H304.472c-5.552 0-10.053 4.501-10.053 10.053v172.544c0 5.552 4.501 10.053 10.053 10.053h179.979c5.552 0 10.053-4.501 10.053-10.053V224.827c0-5.552-4.501-10.053-10.053-10.053z" fill="#E6E6E6"/><path d="M314.967 346.749h-6.563v1.889h6.563v-1.889zm16.698 10.113h-8.403v1.888h8.403v-1.888zm29.238 0H352.5v1.888h8.403v-1.888zm29.237 0h-8.403v1.888h8.403v-1.888zm29.226 0h-8.403v1.888h8.403v-1.888zm29.237 0H440.2v1.888h8.403v-1.888zm29.238 0h-8.403v1.888h8.403v-1.888zM314.967 321.48h-6.563v1.889h6.563v-1.889zm0-47.573h-6.563v1.888h6.563v-1.888zm0-23.907h-6.563v1.889h6.563V250zm.334 47.693h-6.562v1.889h6.562v-1.889zm162.301 50.921h-2.773l-7.949.06-29.226.095-96.402.084h-23.166v-.239c0-32.274.084-60.603.108-80.947 0-10.136.072-18.276.096-23.906v-8.666c.01.187.01.374 0 .561v8.105c0 5.618.059 13.758.095 23.906 0 20.32 0 48.709.108 80.947l-.311-.299h22.855l96.402.096 29.226.096 7.948.059h2.068l.921.048z" fill="#263238"/><path d="M479.443 298.638c0 .179-34.665.311-77.338.311-42.672 0-77.349-.132-77.349-.311 0-.18 34.665-.311 77.349-.311 42.685 0 77.338.143 77.338.311zm0-23.787c0 .179-34.665.311-77.338.311-42.672 0-77.349-.132-77.349-.311s34.665-.311 77.349-.311c42.685 0 77.338.144 77.338.311zm0-23.895c0 .168-34.665.311-77.338.311-42.672 0-77.349-.143-77.349-.311 0-.167 34.665-.31 77.349-.31 42.685 0 77.338.131 77.338.31zm0 71.469c0 .167-34.665.31-77.338.31-42.672 0-77.349-.143-77.349-.31 0-.168 34.665-.311 77.349-.311 42.685 0 77.338.203 77.338.311z" fill="#263238"/><path d="M326.322 343.522v-21.097l13.149-20.428 8.929 6.849 18.312-28.461 10.758 7.614 15.037-26.297 12.216 9.957 18.42-34.783 19.735 38.931 15.969-19.484 18.791-5.367v92.566H326.322z" fill="#7F5AF0"/><path d="M479.443 243.426h-5.116l-14.416.084h.132l-15.384 20.236-.084.096h-38.8l.263-.155-16.364 27.145c-5.534 9.216-10.901 18.121-15.969 26.548l-.227.383-.275-.371-20.942-28.807h.418c-7.961 12.396-14.523 22.628-19.125 29.776l-5.319 8.235-1.423 2.152c-.322.478-.502.717-.502.717s.144-.263.443-.765l1.35-2.187a879.158 879.158 0 015.212-8.308c4.542-7.172 11.045-17.452 18.934-29.883l.203-.311.215.299 21.026 28.76h-.502l15.945-26.548c5.69-9.455 11.188-18.6 16.292-27.062l.084-.156h.168l38.68.06-.191.096 15.539-20.106v-.071h.096l14.415.083h4.793a.96.96 0 01.431.06z" fill="#263238"/><path d="M358.835 295.195a1.482 1.482 0 11-1.482-1.422 1.455 1.455 0 011.482 1.422zm44.621-25.352a1.478 1.478 0 01-.881 1.403 1.481 1.481 0 11-.601-2.838 1.467 1.467 0 011.038.41 1.467 1.467 0 01.444 1.025zm34.688-6.24a1.492 1.492 0 01-2.953.383 1.487 1.487 0 011.471-1.805 1.466 1.466 0 011.482 1.422z" fill="#263238"/><path d="M332.861 391.395c5.301 0 9.598-4.137 9.598-9.24 0-5.103-4.297-9.24-9.598-9.24-5.301 0-9.599 4.137-9.599 9.24 0 5.103 4.298 9.24 9.599 9.24zm136.577-15.432H356.695v3.454h112.743v-3.454zm-65.934 8.642h-46.809v3.455h46.809v-3.455z" fill="#fff"/><path d="M557.043 65.144H436.005a5.905 5.905 0 00-5.905 5.905v98.375a5.905 5.905 0 005.905 5.905h121.038a5.905 5.905 0 005.905-5.905V71.049a5.905 5.905 0 00-5.905-5.905z" fill="#E6E6E6"/><path d="M460.449 109.251h-7.16v54.065h7.16v-54.065zm32.549-4.386h-7.16v58.451h7.16v-58.451zm33.708-7.423h-7.16v65.874h7.16V97.442z" fill="#7F5AF0"/><path d="M510.879 136.995h-7.16v26.321h7.16v-26.321z" fill="#E8505B"/><path d="M510.879 136.995h-7.16v26.321h7.16v-26.321z" fill="#2CB67D" opacity=".2"/><path d="M468.792 103.466h-7.16v59.862h7.16v-59.862z" fill="#E8505B"/><path d="M468.792 103.466h-7.16v59.862h7.16v-59.862z" fill="#2CB67D" opacity=".1"/><path d="M501.927 90.927h-7.16v72.401h7.16v-72.4z" fill="#E8505B"/><path d="M501.927 90.927h-7.16v72.401h7.16v-72.4z" fill="#2CB67D" opacity=".1"/><path d="M545.185 90.927h-7.16v72.401h7.16v-72.4z" fill="#E8505B"/><path d="M545.185 90.927h-7.16v72.401h7.16v-72.4z" fill="#2CB67D" opacity=".2"/><path d="M535.838 76.631h-7.16v86.697h7.16V76.631z" fill="#E8505B"/><path d="M535.838 76.631h-7.16v86.697h7.16V76.631z" fill="#2CB67D" opacity=".1"/><path d="M477.554 125.328h-7.16v37.988h7.16v-37.988z" fill="#E8505B"/><path d="M477.554 125.328h-7.16v37.988h7.16v-37.988z" fill="#2CB67D" opacity=".2"/><path d="M555.429 166.603c0 .167-25.556.311-57.064.311-31.509 0-57.077-.144-57.077-.311 0-.168 25.544-.311 57.077-.311 31.532 0 57.064.143 57.064.311zM442.34 153.705h-4.375v1.447h4.375v-1.447zm0-19.244h-4.375v1.446h4.375v-1.446zm0-36.207h-4.375v1.447h4.375v-1.447zm0-18.192h-4.375v1.446h4.375v-1.446zm.227 36.302h-4.375v1.446h4.375v-1.446z" fill="#263238"/><path d="M409.528 56.18H280.984a3.86 3.86 0 00-3.861 3.86v30.48a3.86 3.86 0 003.861 3.862h128.544a3.86 3.86 0 003.861-3.861V60.04a3.86 3.86 0 00-3.861-3.862z" fill="#7F5AF0"/><path d="M305.846 81.663a8.303 8.303 0 01-8.803 2.776 8.311 8.311 0 01-5.934-7.07 8.305 8.305 0 014.263-8.189 8.307 8.307 0 019.195.805 8.365 8.365 0 011.279 11.678z" fill="#fff"/><path d="M299.356 84.795a8.365 8.365 0 01-7.913-7.905 8.37 8.37 0 017.016-8.71c.307-.017.614-.017.921 0a8.369 8.369 0 018.233 9.286 8.372 8.372 0 01-1.743 4.257 8.282 8.282 0 01-5.594 3.072 8.068 8.068 0 01-.92 0zm0-16.603a8.085 8.085 0 00-.921 0 8.272 8.272 0 109.129 9.17 8.276 8.276 0 00-3.806-7.943 8.272 8.272 0 00-4.402-1.275v.048z" fill="#263238"/><path d="M304.03 73.69a33.721 33.721 0 01-4.471 4.782l-1.088 1.064-.227.215-.203-.215a24.173 24.173 0 01-3.335-3.766 24.126 24.126 0 013.765 3.335h-.43l1.088-1.075a35.73 35.73 0 014.901-4.34z" fill="#E8505B"/><path d="M400.085 72.495c0 .18-17.32.311-38.68.311s-38.669-.143-38.669-.31c0-.168 17.321-.311 38.693-.311 21.372 0 38.656.131 38.656.31zm-31.735 7.543c0 .179-10.005.322-22.365.322-12.359 0-22.364-.143-22.364-.322 0-.18 10.017-.311 22.364-.311 12.348 0 22.365.143 22.365.31z" fill="#fff"/><path d="M622.379 128.879s-.155.203-.502.573c-.347.371-.825.933-1.518 1.614a29.51 29.51 0 01-6.933 4.781 22.98 22.98 0 01-2.666 1.196l-1.47.526-1.578.406a28.588 28.588 0 01-3.406.657c-.598.072-1.196.096-1.829.144-.633.048-1.268.048-1.901 0a28.688 28.688 0 01-16.34-5.248h.203l-14.212 2.738-.801.155.538-.61 7.818-9.012v.37a32.278 32.278 0 01-3.503-6.227 31.216 31.216 0 01-1.888-7.172 28.68 28.68 0 018.711-24.563 28.698 28.698 0 0124.997-7.376 26.898 26.898 0 018.152 2.82 27.633 27.633 0 016.586 4.782 28.69 28.69 0 018.487 24.301 27.77 27.77 0 01-2.63 8.654c-.275.562-.55 1.088-.801 1.578s-.574.896-.825 1.303a15.31 15.31 0 01-1.398 1.984l-.944 1.195a3.39 3.39 0 01-.335.383c.076-.152.172-.293.287-.419l.896-1.195c.493-.633.941-1.3 1.339-1.996.239-.407.538-.837.801-1.315s.49-1.016.765-1.566a28.18 28.18 0 001.458-20.32 27.908 27.908 0 00-7.459-12.12A27.492 27.492 0 00614 85.224a27.061 27.061 0 00-7.973-2.737 28.15 28.15 0 00-33.003 31.306c.6 4.76 2.411 9.287 5.26 13.148l.131.203-.143.168c-2.726 3.119-5.355 6.144-7.854 8.988l-.251-.454 14.225-2.689h.191a28.43 28.43 0 0016.053 5.259c.621.042 1.244.042 1.865 0 .621 0 1.195-.072 1.817-.131a31.053 31.053 0 003.358-.61l1.566-.394 1.459-.514c.903-.31 1.785-.678 2.641-1.1a30.122 30.122 0 006.957-4.686c.717-.657 1.195-1.195 1.578-1.554.382-.358.502-.549.502-.549z" fill="#263238"/><path d="M601.258 104.231l-4.794-1.59-4.805-1.589 1.028 4.948 1.016 4.949 2.618-2.319 11.236 12.622 2.331-2.079-11.236-12.623 2.606-2.319z" fill="#263238"/><path d="M591.945 250.84h-36.122v-11.489h35.725c2.693 0 4.9-.397 6.622-1.192 1.722-.795 2.991-1.92 3.807-3.377.817-1.457 1.225-3.178 1.225-5.165 0-1.942-.408-3.697-1.225-5.264-.816-1.567-2.063-2.815-3.741-3.742-1.677-.927-3.774-1.39-6.291-1.39h-12.25v56.153h-14.237v-67.808h26.487c5.364 0 9.955.961 13.774 2.881 3.84 1.898 6.776 4.503 8.807 7.814 2.03 3.288 3.035 7.019 3.013 11.19.022 4.371-1.005 8.156-3.079 11.357-2.075 3.2-5.033 5.673-8.874 7.416-3.84 1.744-8.387 2.616-13.641 2.616zm2.55 4.37v11.489h-38.672V255.21h38.672z" fill="#fff"/></g><defs><clipPath id="clip0_582_7115"><path fill="#fff" transform="translate(0 .776)" d="M0 0h634.87v406.648H0z"/></clipPath></defs></svg>