<svg width="548" height="464" fill="none" xmlns="http://www.w3.org/2000/svg"><g clip-path="url(#clip0_582_6936)"><path d="M509.427 429.284a8.611 8.611 0 01-2.525 6.062 8.597 8.597 0 01-6.062 2.516H36.914a8.598 8.598 0 01-8.578-8.578l-3.86-266.801c0-4.717 5.552-13.928 15.732-13.236l453.406-11.74a21.608 21.608 0 0115.831 6.306 21.659 21.659 0 016.352 15.822l-6.37 269.649z" fill="#7F5AF0"/><path d="M500.957 421.056a8.14 8.14 0 01-8.117 8.123H48.103a8.14 8.14 0 01-5.733-2.387 8.151 8.151 0 01-2.384-5.736l-3.642-242.205c.43-14.575 13.197-19.814 20.937-19.505l434.55-11.666a15.19 15.19 0 0114.5 9.538 15.22 15.22 0 011.087 6.021l-6.461 257.817z" fill="url(#paint0_linear_582_6936)"/><path d="M44.086 257.326a.656.656 0 01-.658-.651l-1.104-75.236c.021-5.025 1.561-9.039 4.598-11.943 5.511-5.285 14.136-5.015 14.495-5.004l138.763-3.726h.018a.662.662 0 01.633.651.658.658 0 01-.616.667l-138.8 3.731c-.39-.014-8.47-.264-13.582 4.636-2.761 2.649-4.17 6.344-4.192 10.986l1.103 75.217a.654.654 0 01-.397.616.66.66 0 01-.251.054l-.01.002z" fill="#fff" opacity=".66"/><path d="M59.58 407.619c.465-20.017.291-197.288-.856-212.596-1.148-15.308 22.68-18.183 59.26-19.906 36.58-1.723 345.231-8.543 353.179-9.189 17.863-1.449 19.368 25.245 19.774 83.277.24 34.413.337 88.232.378 126.211.026 24.459-19.907 44.23-44.337 44.001-100.765-.941-339.519-3.099-356.69-2.588-21.808.649-30.893-1.271-30.708-9.21z" fill="url(#paint1_linear_582_6936)"/><path d="M545.06 436.567H2.108a2.003 2.003 0 00-2.003 2.004v19.435c0 1.107.897 2.004 2.003 2.004H545.06a2.004 2.004 0 002.003-2.004v-19.435a2.004 2.004 0 00-2.003-2.004z" fill="#7F5AF0"/><path d="M62.775 202.554l4.721 191.987c.154 6.287 5.01 11.293 10.9 11.236l79.784-.758c5.914-.056 10.664-5.193 10.643-11.507l-.676-195.03c-.021-6.541-5.142-11.762-11.263-11.484l-83.831 3.8c-5.861.264-10.432 5.485-10.278 11.756z" fill="url(#paint2_linear_582_6936)"/><path d="M179.067 199.896l3.825 194.461c.123 6.322 4.866 11.371 10.613 11.301l275.235-3.377c5.809-.072 10.428-5.34 10.284-11.719l-4.405-195.647c-.143-6.326-4.903-11.361-10.654-11.265l-274.654 4.557c-5.781.095-10.369 5.341-10.244 11.689z" fill="url(#paint3_linear_582_6936)"/><path d="M303.407 451.627H61.684a3.913 3.913 0 00-3.913 3.916 3.916 3.916 0 003.913 3.916h241.723a3.913 3.913 0 003.913-3.916 3.913 3.913 0 00-3.913-3.916z" fill="url(#paint4_linear_582_6936)"/><path d="M269.169 411.818H95.922a9.465 9.465 0 00-3.62.717 9.464 9.464 0 00-5.843 8.741v30.351h192.158v-30.351a9.462 9.462 0 00-9.448-9.458z" fill="url(#paint5_linear_582_6936)"/><path d="M256.353 394.91H108.741a9.454 9.454 0 00-6.688 2.772 9.466 9.466 0 00-2.77 6.693v7.447h166.533v-7.447a9.466 9.466 0 00-5.842-8.746 9.454 9.454 0 00-3.621-.719z" fill="url(#paint6_linear_582_6936)"/><path d="M140.551 345.027h83.988a2.474 2.474 0 012.471 2.472v47.411h-88.93v-47.411a2.47 2.47 0 012.471-2.472z" fill="url(#paint7_linear_582_6936)"/><path d="M126.296 420.085h-15.527v31.542h15.527v-31.542z" fill="url(#paint8_linear_582_6936)"/><path d="M138.08 420.085h-6.239v31.542h6.239v-31.542z" fill="url(#paint9_linear_582_6936)"/><path d="M146.874 420.085h-6.239v31.542h6.239v-31.542z" fill="url(#paint10_linear_582_6936)"/><path d="M155.668 420.085h-6.239v31.542h6.239v-31.542z" fill="url(#paint11_linear_582_6936)"/><path d="M37.526 202.323a5.454 5.454 0 00-.425 7.582l121.692 142.207a5.432 5.432 0 001.716 1.323 5.431 5.431 0 004.238.239 5.46 5.46 0 001.853-1.122l10.344-9.541L42.937 197.347l-5.41 4.976z" fill="url(#paint12_linear_582_6936)"/><path d="M54.19 156.635a10.99 10.99 0 00-15.38-.476l-10.915 10.056a11.005 11.005 0 00-.79 15.378l145.203 165.699 30.446-28.044a5.97 5.97 0 001.923-4.223 5.976 5.976 0 00-1.675-4.328L54.19 156.635z" fill="#fff"/><path d="M64.6 191.355l-1.142 1.053a8.705 8.705 0 00-.507 12.304l76.624 83.281a8.698 8.698 0 0012.296.508l1.141-1.053a8.71 8.71 0 00.508-12.304l-76.625-83.281a8.693 8.693 0 00-9.397-2.278 8.7 8.7 0 00-2.898 1.77z" fill="url(#paint13_linear_582_6936)"/><path d="M65.648 190.385l-3.217 2.964 88.415 96.086 3.218-2.965-88.416-96.085z" fill="#91B3FA"/><path d="M183.554 373.118c21.424 0 38.791-17.38 38.791-38.82 0-21.439-17.367-38.819-38.791-38.819-21.424 0-38.791 17.38-38.791 38.819 0 21.44 17.367 38.82 38.791 38.82z" fill="url(#paint14_linear_582_6936)"/><path d="M183.554 363.952c16.365 0 29.632-13.276 29.632-29.654 0-16.377-13.267-29.653-29.632-29.653-16.366 0-29.632 13.276-29.632 29.653 0 16.378 13.266 29.654 29.632 29.654z" fill="#91B3FA"/><path d="M35.86 165.885l7.662 8.328a4.366 4.366 0 003.102 1.411 4.377 4.377 0 003.173-1.245l106.785-105.76a4.38 4.38 0 00.16-6.095l-3.993-4.341-116.89 107.702z" fill="url(#paint15_linear_582_6936)"/><path d="M158.768 25.492l8.07 8.771a8.84 8.84 0 01-.391 12.36L39.295 169.618l-22.51-24.46a4.802 4.802 0 01.366-6.859L146.427 24.855a8.826 8.826 0 0112.341.637z" fill="#fff"/><path d="M121.94 55.218L52.07 119.6a7.61 7.61 0 00-2.587 5.321 7.625 7.625 0 002 5.569 7.61 7.61 0 0010.894.315l69.87-64.385a7.615 7.615 0 002.587-5.322 7.61 7.61 0 00-2.001-5.57 7.615 7.615 0 00-5.382-2.454 7.609 7.609 0 00-5.513 2.143h.002z" fill="url(#paint16_linear_582_6936)"/><path d="M50.423 129.069l2.378 2.585L133.87 56.95l-2.379-2.585-81.067 74.704z" fill="#91B3FA"/><path d="M53.177 180.517c12.166-12.174 12.166-31.911 0-44.085-12.165-12.174-31.888-12.174-44.053 0-12.165 12.174-12.165 31.911 0 44.085s31.888 12.174 44.053 0z" fill="url(#paint17_linear_582_6936)"/><path d="M54.65 162.204c2.068-12.987-6.777-25.192-19.755-27.26-12.978-2.069-25.174 6.782-27.241 19.769-2.067 12.988 6.777 25.193 19.755 27.261 12.978 2.069 25.174-6.782 27.242-19.77z" fill="#91B3FA"/><path d="M254.337 77.72l-4.86 7.995c-1.952 3.225-5.506 4.674-7.978 3.26L150.278 37.38l13.545-22.298c1.1-1.806 3.107-2.578 4.443-1.703l85.288 55.752c2.399 1.547 2.742 5.364.783 8.588z" fill="#fff"/><path d="M179.827 44.672c9.549-9.557 9.549-25.05 0-34.606-9.55-9.557-25.032-9.557-34.581 0-9.55 9.556-9.55 25.05 0 34.606 9.549 9.556 25.031 9.556 34.581 0z" fill="url(#paint18_linear_582_6936)"/><path d="M171.403 43.826c9.079-4.9 12.47-16.238 7.573-25.323-4.897-9.086-16.226-12.478-25.305-7.578-9.079 4.9-12.47 16.238-7.573 25.323 4.897 9.086 16.226 12.479 25.305 7.578z" fill="#91B3FA"/><path d="M265.621 71.677l-8.876-5.356a.427.427 0 00-.585.145l-16.133 26.772a.43.43 0 00.145.586l8.876 5.356a.426.426 0 00.585-.145l16.131-26.773a.428.428 0 00-.143-.585z" fill="url(#paint19_linear_582_6936)"/><path d="M277.444 82.592l20.43-14.76 28.309 34.455-4.291 5.072-25.595-27.476-15.81 11.582-3.043-8.873z" fill="url(#paint20_linear_582_6936)"/><path d="M264.437 104.385l-3.148 25.018 43.785 8.34 2.389-6.199-36.363-9.304 2.574-19.437-9.237 1.582z" fill="url(#paint21_linear_582_6936)"/><path d="M257.84 103.734a15.815 15.815 0 0023.491-3.904 15.843 15.843 0 00-6.98-22.783l-16.511 26.687z" fill="url(#paint22_linear_582_6936)"/><path d="M248.851 98.18l-2.584 4.296c-.467.782-.174 1.805.653 2.305l7.946 4.785c.827.5 1.875.277 2.342-.496l20.607-34.194a1.696 1.696 0 00-.656-2.305l-7.945-4.8c-.827-.499-1.875-.278-2.342.497l-2.367 3.93-15.654 25.982z" fill="url(#paint23_linear_582_6936)"/><path d="M222.427 319.674a1.645 1.645 0 01-1.395-.77 101.52 101.52 0 01-1.396-2.283 1.647 1.647 0 012.83-1.683c.442.743.893 1.48 1.353 2.21a1.652 1.652 0 01-.556 2.296 1.65 1.65 0 01-.836.23zm-5.402-9.723a1.64 1.64 0 01-1.48-.922 105.952 105.952 0 01-2.215-4.824 1.648 1.648 0 013.027-1.298c.67 1.562 1.392 3.124 2.147 4.673a1.656 1.656 0 01-.244 1.814 1.649 1.649 0 01-1.235.557zm-5.213-12.677c-.345 0-.681-.108-.961-.31a1.643 1.643 0 01-.6-.811 99.375 99.375 0 01-1.562-5.078 1.649 1.649 0 012.385-1.875c.38.209.662.56.785.976a99.305 99.305 0 001.522 4.914 1.654 1.654 0 01-.81 1.993c-.233.12-.49.182-.751.183l-.008.008zm-3.538-13.248a1.64 1.64 0 01-1.612-1.324 106.923 106.923 0 01-.912-5.228 1.654 1.654 0 01.304-1.224 1.644 1.644 0 012.951.735c.254 1.692.551 3.397.885 5.078a1.65 1.65 0 01-.911 1.812 1.641 1.641 0 01-.705.157v-.006zm-1.817-13.589a1.648 1.648 0 01-1.642-1.535 111.582 111.582 0 01-.232-5.303 1.645 1.645 0 011.614-1.678h.033a1.648 1.648 0 011.645 1.616c.034 1.708.11 3.439.225 5.14a1.658 1.658 0 01-.91 1.59 1.65 1.65 0 01-.62.168l-.113.002zm-.047-13.709h-.102a1.645 1.645 0 01-1.542-1.746c.108-1.758.264-3.545.459-5.297a1.647 1.647 0 013.273.366c-.195 1.699-.34 3.425-.447 5.134a1.642 1.642 0 01-.516 1.104 1.64 1.64 0 01-1.133.447l.008-.008zm1.739-13.609a1.65 1.65 0 01-1.616-1.32 1.637 1.637 0 01-.002-.643c.337-1.736.722-3.482 1.143-5.191a1.644 1.644 0 012.968-.423c.228.357.31.788.229 1.204-.41 1.654-.78 3.348-1.108 5.029a1.654 1.654 0 01-1.622 1.352l.008-.008zm3.487-13.265c-.177 0-.354-.029-.523-.084a1.641 1.641 0 01-1.12-1.448 1.644 1.644 0 01.082-.638 112.756 112.756 0 011.805-4.994 1.649 1.649 0 013.016-.041c.177.39.196.834.052 1.238-.62 1.59-1.208 3.219-1.756 4.842a1.65 1.65 0 01-1.563 1.133l.007-.008zm5.174-12.695a1.648 1.648 0 01-1.481-2.367 122.67 122.67 0 012.434-4.719 1.644 1.644 0 012.219-.624 1.651 1.651 0 01.669 2.208 104.297 104.297 0 00-2.36 4.572 1.643 1.643 0 01-1.489.936l.008-.006zm6.763-11.924a1.637 1.637 0 01-.84-.237 1.647 1.647 0 01-.526-2.315 110.045 110.045 0 013.017-4.363 1.643 1.643 0 012.3-.361 1.646 1.646 0 01.36 2.302 106.172 106.172 0 00-2.928 4.23 1.642 1.642 0 01-1.391.75l.008-.006zm8.238-10.954a1.648 1.648 0 01-1.247-2.721 110.275 110.275 0 013.55-3.937 1.642 1.642 0 012.289-.022 1.645 1.645 0 01.099 2.289 107.139 107.139 0 00-3.44 3.816 1.642 1.642 0 01-1.259.58l.008-.005zm9.576-9.797a1.641 1.641 0 01-1.539-1.057 1.653 1.653 0 01.439-1.816 98.687 98.687 0 014.028-3.445 1.645 1.645 0 012.486 2.061 1.63 1.63 0 01-.409.495 102.321 102.321 0 00-3.904 3.34 1.646 1.646 0 01-1.108.428l.007-.006zm10.76-8.476a1.652 1.652 0 01-1.573-1.159 1.646 1.646 0 01.638-1.847 107.367 107.367 0 014.438-2.889 1.646 1.646 0 111.727 2.805 98.499 98.499 0 00-4.293 2.801 1.636 1.636 0 01-.945.294l.008-.005zm11.763-7a1.645 1.645 0 01-1.619-1.264 1.65 1.65 0 01.869-1.861 109.003 109.003 0 014.784-2.291 1.65 1.65 0 011.259-.036 1.65 1.65 0 01.916.865 1.649 1.649 0 01-.829 2.177 97.94 97.94 0 00-4.635 2.222 1.65 1.65 0 01-.753.194l.008-.006zm12.58-5.416a1.647 1.647 0 01-.55-3.201 110.132 110.132 0 015.037-1.651 1.644 1.644 0 011.749.536c.136.167.239.36.301.567.062.207.083.424.062.64a1.656 1.656 0 01-.597 1.11c-.167.137-.36.239-.567.302a103.77 103.77 0 00-4.879 1.601 1.64 1.64 0 01-.564.102l.008-.006zm59.159-3.484a1.78 1.78 0 01-.371-.041 95.805 95.805 0 00-5.037-1.03 1.648 1.648 0 01.585-3.244c1.733.311 3.482.666 5.199 1.061a1.645 1.645 0 011.264 1.791 1.648 1.648 0 01-1.632 1.463h-.008zm-45.985-.26a1.647 1.647 0 01-1.329-2.611c.237-.329.586-.559.981-.647l.644-.139a109.52 109.52 0 014.565-.857 1.647 1.647 0 01.539 3.25c-1.477.246-2.967.525-4.428.832l-.623.133a1.654 1.654 0 01-.357.045l.008-.006zm32.462-1.934a1.423 1.423 0 01-.16 0c-1.694-.162-3.42-.285-5.127-.363a1.647 1.647 0 01.15-3.291c1.756.08 3.542.207 5.291.375a1.649 1.649 0 01.992 2.838c-.31.292-.72.453-1.146.449v-.008zm-18.912-.101a1.647 1.647 0 01-1.222-2.73 1.638 1.638 0 011.084-.559c1.756-.149 3.538-.256 5.294-.317a1.654 1.654 0 011.607.949 1.655 1.655 0 01.045 1.286 1.654 1.654 0 01-.893.927 1.654 1.654 0 01-.643.131c-1.702.059-3.429.162-5.131.307l-.141.006zm43.169 5.38c-.183 0-.364-.03-.537-.089a94.474 94.474 0 00-2.461-.815 1.647 1.647 0 01.996-3.142c.851.269 1.696.55 2.537.842a1.645 1.645 0 011.082 1.829 1.648 1.648 0 01-1.619 1.375h.002zm60.814 53.907a1.648 1.648 0 01-1.483-.929 86.528 86.528 0 00-1.16-2.321 1.648 1.648 0 012.928-1.509c.408.793.807 1.591 1.196 2.394a1.644 1.644 0 01-.087 1.592 1.642 1.642 0 01-1.394.773zm-95.3 152.098c-.606 0-1.212-.005-1.817-.016a1.646 1.646 0 01-1.62-1.674 1.631 1.631 0 011.675-1.621c1.68.03 3.38.018 5.06-.037a1.648 1.648 0 01.106 3.293c-1.128.037-2.274.055-3.404.055zm-10.125-.49a1.423 1.423 0 01-.16 0 104 104 0 01-5.184-.631 1.657 1.657 0 01-1.081-.647 1.651 1.651 0 01-.093-1.828 1.637 1.637 0 011.011-.752 1.65 1.65 0 01.641-.033c1.659.244 3.348.449 5.022.611a1.646 1.646 0 01-.156 3.287v-.007zm21.814-.164a1.652 1.652 0 01-1.631-1.558 1.652 1.652 0 011.449-1.728c1.667-.185 3.355-.416 5.016-.681a1.647 1.647 0 011.561 2.581 1.65 1.65 0 01-1.04.673c-1.714.275-3.453.511-5.172.703-.072.01-.133.01-.183.01zm-35.13-1.996a1.76 1.76 0 01-.369-.041c-1.688-.391-3.39-.821-5.059-1.29a1.646 1.646 0 01.89-3.171c1.616.453 3.267.873 4.903 1.248a1.65 1.65 0 01-.365 3.254zm48.401-.332c-.403 0-.792-.148-1.093-.416a1.644 1.644 0 01-.261-2.172c.229-.331.572-.567.964-.662a99.4 99.4 0 004.879-1.305 1.647 1.647 0 01.925 3.162c-1.663.486-3.357.939-5.043 1.346a1.721 1.721 0 01-.371.047zm12.881-3.987a1.646 1.646 0 01-1.432-2.455c.188-.335.487-.594.846-.732a94.674 94.674 0 004.684-1.914 1.65 1.65 0 011.824.304 1.656 1.656 0 01.393 1.808 1.657 1.657 0 01-.895.907 98.32 98.32 0 01-4.833 1.975 1.654 1.654 0 01-.587.107zm12.268-5.593a1.643 1.643 0 01-1.596-1.246 1.645 1.645 0 01.815-1.854c1.48-.793 2.959-1.633 4.399-2.498a1.655 1.655 0 011.267-.222 1.632 1.632 0 011.041.756 1.656 1.656 0 01-.113 1.863c-.136.175-.305.32-.499.427a109.795 109.795 0 01-4.539 2.578 1.63 1.63 0 01-.777.19l.002.006zm11.45-7.119a1.654 1.654 0 01-1.567-1.145 1.65 1.65 0 01.609-1.843 96.435 96.435 0 004.036-3.038 1.644 1.644 0 012.304.279 1.646 1.646 0 01-.26 2.307 106.156 106.156 0 01-4.167 3.125 1.638 1.638 0 01-.956.315h.001zm10.436-8.512a1.646 1.646 0 01-1.12-2.853 105.805 105.805 0 003.622-3.531 1.649 1.649 0 012.731.481 1.645 1.645 0 01-.005 1.284 1.663 1.663 0 01-.372.539 108.698 108.698 0 01-3.736 3.641c-.304.283-.704.44-1.12.439zm9.276-9.785a1.641 1.641 0 01-1.489-.95 1.653 1.653 0 01.227-1.753 103.141 103.141 0 003.146-3.963 1.644 1.644 0 012.285-.292 1.647 1.647 0 01.342 2.281 122.748 122.748 0 01-3.246 4.088 1.659 1.659 0 01-1.265.58v.009zm7.965-10.882a1.644 1.644 0 01-1.445-.858 1.654 1.654 0 01.059-1.681 102.064 102.064 0 002.621-4.33 1.65 1.65 0 011.638-.816 1.652 1.652 0 011.379 1.202 1.651 1.651 0 01-.159 1.251 110.21 110.21 0 01-2.703 4.468 1.645 1.645 0 01-1.39.754v.01zm6.526-11.807a1.645 1.645 0 01-1.487-2.343 105.084 105.084 0 002.055-4.631 1.649 1.649 0 013.041 1.264 108.234 108.234 0 01-2.12 4.775 1.64 1.64 0 01-1.489.926v.009zm4.983-12.54a1.661 1.661 0 01-1.07-.396 1.653 1.653 0 01-.495-1.762 104.812 104.812 0 001.45-4.856 1.643 1.643 0 012.017-1.161 1.648 1.648 0 011.16 2.019 103.582 103.582 0 01-1.495 5.011 1.643 1.643 0 01-1.567 1.135v.01zm3.345-13.086a1.64 1.64 0 01-1.62-1.953c.314-1.656.586-3.34.818-5.004a1.647 1.647 0 113.261.452 105.887 105.887 0 01-.843 5.163 1.647 1.647 0 01-1.616 1.34v.002zm1.645-13.402h-.097a1.644 1.644 0 01-1.548-1.74c.098-1.676.154-3.377.168-5.058a1.647 1.647 0 011.647-1.633h.014a1.64 1.64 0 011.16.492 1.66 1.66 0 01.471 1.17c-.013 1.734-.072 3.49-.173 5.218a1.642 1.642 0 01-1.642 1.549v.002zm-.089-13.492a1.64 1.64 0 01-1.64-1.531 105.823 105.823 0 00-.478-5.041 1.635 1.635 0 01.341-1.214 1.649 1.649 0 011.739-.567 1.65 1.65 0 011.189 1.391c.195 1.718.371 3.468.494 5.199.029.435-.115.865-.401 1.195a1.656 1.656 0 01-1.127.563 1.523 1.523 0 01-.117.003v.002zm-1.8-13.372a1.648 1.648 0 01-1.612-1.326 100.754 100.754 0 00-1.108-4.934 1.644 1.644 0 011.209-1.953 1.645 1.645 0 011.985 1.154 110.108 110.108 0 011.144 5.098 1.644 1.644 0 01-1.618 1.969v-.008zm-3.46-13.041a1.645 1.645 0 01-1.562-1.125 103.892 103.892 0 00-1.721-4.762 1.647 1.647 0 013.068-1.195 107.136 107.136 0 011.776 4.91 1.65 1.65 0 01-1.561 2.17v.002zM275.487 362.684c-.195 0-.387-.034-.57-.101-.838-.311-1.67-.63-2.496-.957a1.645 1.645 0 01-.923-2.139 1.649 1.649 0 012.137-.924c.803.319 1.61.629 2.422.928.361.135.664.392.856.727a1.653 1.653 0 01-.372 2.08 1.64 1.64 0 01-1.054.386z" opacity=".64" fill="#fff"/><path d="M272.78 332.894a1.264 1.264 0 001.475-.014l12.503-9.087a67.274 67.274 0 0021.29 4.724l7.497 13.51a1.268 1.268 0 001.331.634l18.252-3.226a1.27 1.27 0 001.032-1.051l2.418-15.263a67.311 67.311 0 0018.385-11.738l14.858 4.25a1.268 1.268 0 001.389-.492l10.625-15.199a1.269 1.269 0 00-.011-1.475l-9.081-12.511a67.42 67.42 0 004.721-21.306l13.499-7.502a1.268 1.268 0 00.635-1.332l-3.225-18.265a1.264 1.264 0 00-1.052-1.035l-15.252-2.418a67.305 67.305 0 00-11.729-18.4l4.248-14.867a1.264 1.264 0 00-.493-1.39l-15.186-10.635a1.264 1.264 0 00-1.474.014l-12.502 9.087a67.273 67.273 0 00-21.291-4.724l-7.498-13.502a1.271 1.271 0 00-1.329-.634l-18.254 3.226a1.268 1.268 0 00-1.032 1.053l-2.419 15.261a67.274 67.274 0 00-18.384 11.74l-14.856-4.252a1.272 1.272 0 00-1.39.492l-10.621 15.191a1.27 1.27 0 00.014 1.475l9.079 12.511a67.39 67.39 0 00-4.719 21.306l-13.502 7.502a1.268 1.268 0 00-.632 1.332l3.224 18.265a1.266 1.266 0 001.05 1.035l15.252 2.42a67.384 67.384 0 0011.73 18.398l-4.247 14.867a1.271 1.271 0 00.492 1.391l15.18 10.634z" fill="#91B3FA"/><path opacity=".72" d="M311.876 278.638a17.768 17.768 0 01-11.898-4.546 17.796 17.796 0 01-2.536-23.662 17.767 17.767 0 0131.291 4.874 17.803 17.803 0 01-.627 12.73 17.784 17.784 0 01-16.23 10.604zm-.049-32.939a15.149 15.149 0 00-11.763 5.639 15.17 15.17 0 00-3.017 12.698 15.156 15.156 0 007.966 10.335 15.14 15.14 0 0013.04.302l.538 1.201-.538-1.201a15.155 15.155 0 00-6.226-28.974z" fill="#fff"/><path opacity=".72" d="M311.983 305.932h-.373c-.437 0-.874-.014-1.311-.029a.658.658 0 11.047-1.317 44.278 44.278 0 009.367-.65 43.918 43.918 0 003.002-.637h.035a44.1 44.1 0 0024.002-15.61 44.162 44.162 0 009.372-27.068 44.734 44.734 0 00-.683-7.774 44.122 44.122 0 00-6.237-16.034 44.078 44.078 0 00-27.633-19.349 44.036 44.036 0 00-17.19-.37c-21.345 3.774-36.404 22.422-36.404 43.404a44.206 44.206 0 0010.761 28.905.648.648 0 01.162.432.66.66 0 01-.82.639.663.663 0 01-.335-.208 45.548 45.548 0 01-11.086-29.768c0-21.607 15.51-40.82 37.494-44.7a45.368 45.368 0 0146.161 20.309 45.438 45.438 0 016.423 16.514c.469 2.643.704 5.323.704 8.007a45.46 45.46 0 01-10.657 29.121 45.4 45.4 0 01-26.842 15.497c-2.628.46-5.291.69-7.959.686z" fill="#fff"/><path d="M416.68 240.307a.658.658 0 01-.631-.475 44.553 44.553 0 01-.441-1.611.672.672 0 01.064-.508.66.66 0 01.668-.322.653.653 0 01.436.268.666.666 0 01.107.238c.13.52.273 1.041.429 1.562a.66.66 0 01-.632.848zm-1.128-4.838a.658.658 0 01-.648-.543 47.083 47.083 0 01-.47-3.338.654.654 0 01.586-.723.654.654 0 01.723.587 46.34 46.34 0 00.457 3.244.674.674 0 01-.005.257.67.67 0 01-.528.506.559.559 0 01-.115.01zm-.687-6.605a.664.664 0 01-.658-.639 49.94 49.94 0 01.018-3.371.636.636 0 01.685-.631.66.66 0 01.591.431c.03.082.043.168.039.255a46.556 46.556 0 00-.037 1.865c0 .473 0 .941.022 1.41a.66.66 0 01-.639.68h-.021zm.271-6.641h-.074a.665.665 0 01-.444-.242.662.662 0 01-.142-.486c.125-1.117.293-2.238.496-3.334a.661.661 0 011.18-.237c.099.138.141.31.116.479a46.306 46.306 0 00-.482 3.238.656.656 0 01-.65.586v-.004zm1.214-6.527a.663.663 0 01-.638-.826c.283-1.078.609-2.164.976-3.227a.658.658 0 011.197-.061.66.66 0 01.05.487 44.334 44.334 0 00-.945 3.135.659.659 0 01-.64.496v-.004zm2.147-6.283a.655.655 0 01-.61-.413.664.664 0 01.005-.505 46.65 46.65 0 011.43-3.053.664.664 0 01.867-.246.657.657 0 01.304.848 43.603 43.603 0 00-1.393 2.969.658.658 0 01-.605.404l.002-.004zm3.039-5.91a.66.66 0 01-.659-.671.648.648 0 01.097-.331 47.437 47.437 0 011.859-2.812.66.66 0 111.072.767 44.249 44.249 0 00-1.807 2.735.665.665 0 01-.24.234.669.669 0 01-.324.084l.002-.006zm3.862-5.404a.66.66 0 01-.507-1.08 45.923 45.923 0 012.244-2.514.656.656 0 01.931-.019.656.656 0 01.019.931 44.217 44.217 0 00-2.18 2.444.659.659 0 01-.509.242l.002-.004zm4.598-4.791a.654.654 0 01-.641-.813.658.658 0 01.2-.335 46.107 46.107 0 012.582-2.164.653.653 0 01.923.115.662.662 0 01-.115.924 42.862 42.862 0 00-2.508 2.103.65.65 0 01-.443.174l.002-.004zm5.236-4.078a.655.655 0 01-.633-.467.659.659 0 01.266-.74 47.186 47.186 0 012.864-1.771.645.645 0 01.511-.081.667.667 0 01.495.565.65.65 0 01-.024.263.655.655 0 01-.331.399 45.15 45.15 0 00-2.783 1.721.675.675 0 01-.367.115l.002-.004zm47.348-2.166a.649.649 0 01-.314-.08 45.077 45.077 0 00-2.928-1.459.661.661 0 01.545-1.201c1.018.461 2.033.976 3.015 1.502a.656.656 0 01.321.74.66.66 0 01-.635.498h-.004zm-41.582-1.117a.658.658 0 01-.283-1.254 47.049 47.049 0 013.087-1.338.658.658 0 01.48 1.229c-1.011.39-2.02.832-3.001 1.298a.644.644 0 01-.285.069l.002-.004zm35.535-1.625a.603.603 0 01-.226-.041 43.278 43.278 0 00-3.123-1.016.663.663 0 01-.42-.806.66.66 0 01.783-.461 46.57 46.57 0 013.203 1.047.658.658 0 01-.226 1.277h.009zm-29.358-.781a.662.662 0 01-.555-1.009.654.654 0 01.359-.28 46.83 46.83 0 013.252-.877.658.658 0 01.762.5.66.66 0 01-.465.785c-1.06.244-2.124.531-3.16.851a.681.681 0 01-.195.028l.002.002zm22.98-1.047a.698.698 0 01-.136-.014 45.556 45.556 0 00-3.226-.555.657.657 0 01-.291-1.162.655.655 0 01.466-.144c1.111.15 2.227.342 3.318.572a.658.658 0 01-.134 1.303h.003zm-16.513-.447a.662.662 0 01-.513-1.067.651.651 0 01.414-.242 44.472 44.472 0 013.343-.391.67.67 0 01.5.142.667.667 0 01.242.459.652.652 0 01-.377.652.656.656 0 01-.258.062 41.49 41.49 0 00-3.249.39l-.102-.005zm9.934-.444h-.041c-.96-.06-1.934-.092-2.892-.092h-.39a.66.66 0 010-1.318h.39c.99 0 1.989.031 2.976.094a.66.66 0 01-.041 1.316h-.002zm23.254 8.092a.666.666 0 01-.376-.117 41.718 41.718 0 00-1.349-.905.657.657 0 01.219-1.198.659.659 0 01.495.091c.467.301.929.611 1.386.928a.656.656 0 01.252.737.664.664 0 01-.627.464zm19.086 30.157a.659.659 0 01-.65-.551 46.218 46.218 0 00-.293-1.595.654.654 0 01.096-.495.676.676 0 01.417-.283.673.673 0 01.495.096.67.67 0 01.282.418c.111.545.211 1.094.303 1.645a.662.662 0 01-.541.757.667.667 0 01-.109.008zm-44.075 53.397a.659.659 0 01-.457-1.108.66.66 0 01.442-.21 43.841 43.841 0 003.214-.195.645.645 0 01.504.132.658.658 0 01.091.954.659.659 0 01-.47.226 46.29 46.29 0 01-3.308.195l-.016.006zm-3.267-.037h-.031a48.65 48.65 0 01-3.304-.271.667.667 0 01-.44-.247.663.663 0 01-.058-.729.67.67 0 01.396-.313.67.67 0 01.256-.02c.716.084 1.448.152 2.176.195.346.024.691.043 1.036.061a.656.656 0 01.643.674.66.66 0 01-.674.642v.008zm9.758-.586a.657.657 0 01-.109-1.308 41.976 41.976 0 003.154-.651.66.66 0 01.312 1.281c-1.067.26-2.158.485-3.247.668a.591.591 0 01-.102.012l-.008-.002zm-16.253-.178a.745.745 0 01-.125-.011 46.56 46.56 0 01-3.232-.735.642.642 0 01-.23-.113.642.642 0 01-.17-.193.65.65 0 01.046-.73.65.65 0 01.692-.237c1.028.271 2.086.512 3.14.713a.66.66 0 01.327 1.138.654.654 0 01-.448.168zm22.594-1.367a.657.657 0 01-.55-1.005.658.658 0 01.355-.282 44.259 44.259 0 003.027-1.092.664.664 0 01.716.151.66.66 0 01-.226 1.072 49.751 49.751 0 01-3.122 1.125.664.664 0 01-.192.035l-.008-.004zm-28.91-.306a.65.65 0 01-.214-.037 45.497 45.497 0 01-3.096-1.19.652.652 0 01-.352-.36.66.66 0 01.618-.904.662.662 0 01.252.053c.975.418 1.994.807 3.005 1.154a.661.661 0 01-.213 1.284zm34.966-2.127a.656.656 0 01-.645-.51.657.657 0 01.357-.742 44.59 44.59 0 002.839-1.514.661.661 0 01.983.484.65.65 0 01-.13.487.668.668 0 01-.193.17 48.429 48.429 0 01-2.928 1.562.635.635 0 01-.275.065l-.008-.002zm-40.984-.434a.633.633 0 01-.299-.074 47.195 47.195 0 01-2.894-1.619.66.66 0 01.685-1.127c.913.557 1.86 1.086 2.81 1.574a.659.659 0 01.104 1.105.659.659 0 01-.406.141zm46.625-2.84a.655.655 0 01-.632-.465.663.663 0 01.263-.74 46.433 46.433 0 002.6-1.9.656.656 0 011.06.596.657.657 0 01-.247.439 41.494 41.494 0 01-2.675 1.953.661.661 0 01-.354.119l-.015-.002zm5.133-4.041a.654.654 0 01-.616-.42.658.658 0 01.173-.726 53.04 53.04 0 002.305-2.25.658.658 0 11.952.91 49.255 49.255 0 01-2.371 2.315.66.66 0 01-.428.173l-.015-.002zm4.508-4.726a.654.654 0 01-.594-.379.654.654 0 01.088-.699 45.154 45.154 0 001.964-2.557.658.658 0 111.071.766 45.894 45.894 0 01-2.02 2.631.666.666 0 01-.493.24l-.016-.002zm3.798-5.32a.657.657 0 01-.64-.506.659.659 0 01.078-.498 44.167 44.167 0 001.581-2.809.657.657 0 01.875-.258.66.66 0 01.296.864 44.81 44.81 0 01-1.628 2.89.656.656 0 01-.55.319l-.012-.002zm3.002-5.811a.648.648 0 01-.612-.413.664.664 0 01.007-.504c.419-.977.811-1.995 1.161-3.006a.663.663 0 01.338-.355.664.664 0 01.49-.023.665.665 0 01.417.809 47.271 47.271 0 01-1.196 3.094.66.66 0 01-.59.4l-.015-.002zm2.137-6.173a.666.666 0 01-.522-.259.666.666 0 01-.115-.571c.276-1.031.52-2.088.721-3.141a.66.66 0 011.294.25 46.853 46.853 0 01-.744 3.233.659.659 0 01-.619.49l-.015-.002zm1.235-6.416h-.08a.661.661 0 01-.576-.732 44.123 44.123 0 00.274-3.213.658.658 0 111.315.066c-.018.313-.035.623-.057.934a46.032 46.032 0 01-.222 2.371.663.663 0 01-.638.576l-.016-.002zm.32-6.527a.665.665 0 01-.658-.647 45.597 45.597 0 00-.183-3.216.664.664 0 01.596-.711.66.66 0 01.717.588c.1 1.099.164 2.212.196 3.32a.661.661 0 01-.644.674l-.024-.008zm-72.352 38.442a.65.65 0 01-.38-.123 43.08 43.08 0 01-1.343-.992.654.654 0 01-.236-.692.666.666 0 01.307-.4.652.652 0 01.729.047c.429.328.865.65 1.306.963a.665.665 0 01.243.742.657.657 0 01-.634.455h.008z" opacity=".64" fill="#fff"/><path d="M435.933 251.793a.55.55 0 00.615.17l6.286-2.315a29.127 29.127 0 008.32 4.492l1.534 6.52a.553.553 0 00.48.422l7.99.81a.556.556 0 00.556-.316l2.807-6.08a29.152 29.152 0 009.052-2.723l5.693 3.527a.555.555 0 00.638-.043l6.222-5.078a.545.545 0 00.17-.615l-2.311-6.291a29.249 29.249 0 004.489-8.326l6.512-1.535a.545.545 0 00.422-.48l.81-7.996a.556.556 0 00-.316-.557l-6.076-2.808a29.187 29.187 0 00-2.72-9.059l3.524-5.697a.556.556 0 00.082-.326.559.559 0 00-.123-.312l-5.074-6.227a.555.555 0 00-.617-.17l-6.284 2.315a29.124 29.124 0 00-8.322-4.492l-1.532-6.518a.548.548 0 00-.48-.422l-7.992-.81a.544.544 0 00-.554.316l-2.809 6.08a29.148 29.148 0 00-9.05 2.723l-5.695-3.527a.544.544 0 00-.636.041l-6.224 5.078a.552.552 0 00-.168.617l2.311 6.289a29.197 29.197 0 00-4.489 8.328l-6.514 1.533a.55.55 0 00-.422.48l-.81 8.008a.552.552 0 00.316.554l6.076 2.811a29.189 29.189 0 002.72 9.056l-3.524 5.699a.553.553 0 00.043.639l5.074 6.215z" fill="#91B3FA"/><path opacity=".56" d="M460.702 234.172a7.827 7.827 0 01-7.828-7.54 7.836 7.836 0 017.241-8.106 7.823 7.823 0 015.58 1.783 7.837 7.837 0 01-3.842 13.777 7.782 7.782 0 01-1.151.086zm.019-14.279a6.49 6.49 0 00-4.899 2.245 6.482 6.482 0 001.033 9.435 6.469 6.469 0 004.807 1.21 6.475 6.475 0 005.464-7.353 6.488 6.488 0 00-6.405-5.545v.008z" fill="#fff"/><path opacity=".56" d="M460.877 246.305a20.49 20.49 0 01-5.857-.864l-.06-.019-.314-.098a.655.655 0 01-.424-.83.661.661 0 01.83-.424 18.772 18.772 0 004.664.881 18.58 18.58 0 009.419-1.896 18.938 18.938 0 003.362-2.149l.184-.148a18.614 18.614 0 006.79-12.629 18.743 18.743 0 00-5.077-14.818 18.722 18.722 0 00-12.624-5.783 18.722 18.722 0 00-13.133 4.506 18.75 18.75 0 00-6.422 12.318 18.68 18.68 0 001.671 9.84.653.653 0 01-.083.69.664.664 0 01-.803.179.655.655 0 01-.306-.309 19.997 19.997 0 01-1.892-8.498c0-.679.034-1.358.102-2.035a20.06 20.06 0 016.862-13.217 20.029 20.029 0 0127.605 1.373 20.063 20.063 0 015.413 15.893 20.062 20.062 0 01-6.489 12.847 20.037 20.037 0 01-13.418 5.19z" fill="#fff"/><path d="M327.51 153.52a1.646 1.646 0 01-1.582-1.182 67.667 67.667 0 01-.711-2.603 1.659 1.659 0 01.605-1.745 1.638 1.638 0 011.233-.31 1.64 1.64 0 011.357 1.252c.207.824.435 1.66.675 2.481a1.647 1.647 0 01-1.118 2.043 1.616 1.616 0 01-.459.064zm-2.248-10.992a1.644 1.644 0 01-1.633-1.453 68.262 68.262 0 01-.428-5.4 1.643 1.643 0 01.943-1.604 1.643 1.643 0 011.835.297 1.644 1.644 0 01.513 1.176c.066 1.711.195 3.441.406 5.142a1.65 1.65 0 01-.83 1.632 1.627 1.627 0 01-.806.21zm-.219-13.867h-.142a1.648 1.648 0 01-1.118-.58 1.639 1.639 0 01-.381-1.201 69.99 69.99 0 01.67-5.375 1.648 1.648 0 011.885-1.315 1.649 1.649 0 011.364 1.85 66.42 66.42 0 00-.638 5.121 1.65 1.65 0 01-1.64 1.506v-.006zm2.579-13.615a1.64 1.64 0 01-.737-.177 1.64 1.64 0 01-.882-1.184 1.647 1.647 0 01.042-.758c.513-1.72 1.1-3.445 1.756-5.127a1.649 1.649 0 013.016-.051c.179.39.199.834.056 1.239a69.503 69.503 0 00-1.669 4.883 1.646 1.646 0 01-1.582 1.181v-.006zm5.31-12.806a1.639 1.639 0 01-1.412-.805 1.649 1.649 0 01-.034-1.627 70.642 70.642 0 012.765-4.66 1.65 1.65 0 012.257-.454 1.65 1.65 0 01.507 2.247 66.195 66.195 0 00-2.635 4.438 1.657 1.657 0 01-1.448.867v-.006zm7.822-11.445a1.648 1.648 0 01-1.257-2.713 75.968 75.968 0 013.656-3.996 1.635 1.635 0 011.166-.502 1.645 1.645 0 011.665 1.648 1.648 1.648 0 01-.489 1.173 67.795 67.795 0 00-3.482 3.806 1.643 1.643 0 01-1.253.59l-.006-.006zm9.981-9.615a1.642 1.642 0 01-1.558-1.108 1.648 1.648 0 01.541-1.835 70.524 70.524 0 014.388-3.172 1.64 1.64 0 011.906-.09 1.648 1.648 0 01-.083 2.824 67.443 67.443 0 00-4.181 3.022 1.632 1.632 0 01-1.013.365v-.006zm11.71-7.385a1.648 1.648 0 01-.732-3.124 69.209 69.209 0 014.94-2.211 1.646 1.646 0 012.306 1.542 1.642 1.642 0 01-1.08 1.517 65.687 65.687 0 00-4.706 2.105 1.627 1.627 0 01-.722.177l-.006-.005zm58.767-.556c-.243 0-.482-.054-.701-.158a65.56 65.56 0 00-4.748-2.014 1.647 1.647 0 111.171-3.082 69.129 69.129 0 014.986 2.115 1.648 1.648 0 01-.703 3.139h-.005zm-45.788-4.285a1.646 1.646 0 01-.412-3.242 69.032 69.032 0 015.289-1.153 1.647 1.647 0 011.181 3.019 1.645 1.645 0 01-.607.227 65.109 65.109 0 00-5.038 1.096 1.677 1.677 0 01-.413.059v-.006zm32.715-.3a1.615 1.615 0 01-.39-.046 69.5 69.5 0 00-5.061-.998 1.642 1.642 0 01-1.344-1.24 1.648 1.648 0 011.854-2.014 69.13 69.13 0 015.312 1.047 1.647 1.647 0 01-.378 3.25h.007zm-19.022-1.776a1.646 1.646 0 01-.077-3.293 62.183 62.183 0 013.291-.076c.704 0 1.412.01 2.123.031a1.65 1.65 0 011.595 1.697 1.667 1.667 0 01-1.696 1.598c-.683-.022-1.366-.02-2.042-.031a64.08 64.08 0 00-3.122.074h-.072zm41.835 12.002a1.64 1.64 0 01-.938-.295 67.016 67.016 0 00-2.135-1.426 1.648 1.648 0 011.772-2.778c.755.485 1.51.989 2.244 1.498a1.65 1.65 0 01-.943 3zm28.18 44.68a1.648 1.648 0 01-1.621-1.385 62.95 62.95 0 00-.463-2.527 1.652 1.652 0 011.291-1.918 1.648 1.648 0 011.937 1.262c.18.884.342 1.779.484 2.656a1.638 1.638 0 01-.291 1.229 1.658 1.658 0 01-1.337.683zm-67.238 78.56h-.016a69.472 69.472 0 01-5.32-.248 1.627 1.627 0 01-.635-.164 1.626 1.626 0 01-.521-.399 1.635 1.635 0 01-.4-1.223 1.66 1.66 0 01.184-.63 1.662 1.662 0 011.651-.867 66.196 66.196 0 005.07.236 1.65 1.65 0 011.585 1.654 1.65 1.65 0 01-1.598 1.641zm8.431-.453a1.645 1.645 0 01-1.643-1.55 1.648 1.648 0 011.448-1.735 66.444 66.444 0 005.01-.781 1.646 1.646 0 011.898 1.307 1.649 1.649 0 01-1.264 1.927c-1.733.34-3.513.617-5.269.822a1.512 1.512 0 01-.19.01h.01zm-21.984-1.019a1.798 1.798 0 01-.343-.035 69.82 69.82 0 01-5.166-1.305 1.65 1.65 0 01-.301-3.002 1.65 1.65 0 011.228-.16c1.614.474 3.269.892 4.92 1.242a1.646 1.646 0 011.291 1.781 1.648 1.648 0 01-1.629 1.479zm35.29-1.93a1.646 1.646 0 01-.515-3.211 66.38 66.38 0 004.747-1.779 1.637 1.637 0 011.285-.037c.206.08.393.201.551.356a1.636 1.636 0 01.497 1.186 1.652 1.652 0 01-1.061 1.534 70.467 70.467 0 01-4.986 1.867c-.17.057-.348.085-.527.084h.009zm-48.28-2.23a1.66 1.66 0 01-.658-.139 68.935 68.935 0 01-4.797-2.32 1.652 1.652 0 01-.663-2.221 1.647 1.647 0 012.211-.689 65.067 65.067 0 004.567 2.211 1.644 1.644 0 01.951 1.847 1.649 1.649 0 01-1.611 1.311zm60.697-3.33a1.649 1.649 0 01-.822-3.076 70.007 70.007 0 004.294-2.7 1.649 1.649 0 011.856 2.723 69.643 69.643 0 01-4.512 2.832c-.248.144-.53.22-.816.221zm11.072-7.953a1.649 1.649 0 01-1.089-2.883 66.347 66.347 0 003.675-3.502 1.644 1.644 0 012.327-.032 1.648 1.648 0 01.032 2.329 73.09 73.09 0 01-3.856 3.678 1.641 1.641 0 01-1.083.402l-.006.008zm9.264-10.004a1.648 1.648 0 01-1.64-1.8c.029-.305.142-.596.327-.84a66.443 66.443 0 002.902-4.168 1.652 1.652 0 011.037-.76 1.643 1.643 0 011.992 1.279 1.644 1.644 0 01-.258 1.26 69.896 69.896 0 01-3.044 4.375 1.648 1.648 0 01-1.31.642l-.006.012zm7.077-11.662a1.651 1.651 0 01-1.392-.769 1.648 1.648 0 01-.093-1.588 64.72 64.72 0 002-4.668 1.649 1.649 0 013.013-.055c.18.389.202.832.061 1.237a68.35 68.35 0 01-2.102 4.902 1.646 1.646 0 01-1.481.933l-.006.008zm4.58-12.849a1.634 1.634 0 01-1.405-.795 1.653 1.653 0 01-.191-1.246c.39-1.635.744-3.306 1.019-4.972a1.657 1.657 0 011.248-1.372 1.653 1.653 0 011.993 1.256c.046.215.049.437.008.653a69.231 69.231 0 01-1.071 5.22 1.651 1.651 0 01-1.587 1.248l-.014.008zm1.905-13.505h-.068a1.652 1.652 0 01-1.579-1.713 66.417 66.417 0 00.014-5.08 1.653 1.653 0 01.419-1.217c.148-.164.327-.297.528-.39a1.639 1.639 0 011.285-.046 1.652 1.652 0 011.058 1.536c.03.816.043 1.654.043 2.488 0 .939-.017 1.894-.056 2.841a1.644 1.644 0 01-1.638 1.573l-.006.008zm-106.514 52.58c-.339 0-.671-.106-.948-.303a67.332 67.332 0 01-2.172-1.599 1.645 1.645 0 01-.306-2.31 1.644 1.644 0 012.308-.305 59.217 59.217 0 002.069 1.523 1.65 1.65 0 01.021 2.676 1.641 1.641 0 01-.972.318z" opacity=".64" fill="#fff"/><path d="M355.891 169.785a.814.814 0 00.91.248l9.268-3.41a43.032 43.032 0 0012.272 6.613l2.26 9.613a.812.812 0 00.709.623l11.784 1.194a.82.82 0 00.485-.102.822.822 0 00.335-.365l4.141-8.965a43.03 43.03 0 0013.348-4.015l8.392 5.201a.816.816 0 00.94-.061l9.173-7.496a.81.81 0 00.25-.908l-3.41-9.277a43.018 43.018 0 006.609-12.279l9.616-2.264a.808.808 0 00.62-.707l1.191-11.792a.808.808 0 00-.467-.819l-8.958-4.144a43.046 43.046 0 00-4.014-13.357l5.199-8.398a.82.82 0 00-.063-.942l-7.488-9.18a.81.81 0 00-.91-.247l-9.256 3.398a42.976 42.976 0 00-12.272-6.613l-2.26-9.615a.813.813 0 00-.709-.621L391.8 79.903a.81.81 0 00-.818.466l-4.141 8.967a43.003 43.003 0 00-13.355 4.02l-8.392-5.201a.813.813 0 00-.941.06l-9.173 7.496a.816.816 0 00-.248.908l3.398 9.271a43.121 43.121 0 00-6.61 12.281l-9.606 2.262a.81.81 0 00-.621.709l-1.194 11.794a.809.809 0 00.466.819l8.958 4.144a43.013 43.013 0 004.015 13.357l-5.2 8.399a.814.814 0 00.063.939l7.49 9.191z" fill="#91B3FA"/><path opacity=".56" d="M392.417 144.79a12.505 12.505 0 01-8.676-3.517 12.525 12.525 0 01-.619-17.362 12.509 12.509 0 018.403-4.127 12.509 12.509 0 018.912 2.864 12.526 12.526 0 011.903 17.269 12.507 12.507 0 01-9.923 4.873zm.045-21.056a8.547 8.547 0 00-6.472 2.961 8.578 8.578 0 00-1.997 6.835 8.554 8.554 0 006.063 6.957 8.541 8.541 0 0010.157-11.751 8.532 8.532 0 00-7.751-5.002z" fill="#fff"/><path opacity=".56" d="M392.674 161.377a29.413 29.413 0 01-9.094-1.431.655.655 0 01-.424-.821.66.66 0 01.83-.424 27.927 27.927 0 0025.059-3.986 27.984 27.984 0 0011.507-22.63c0-14.152-10.746-26.322-25.112-27.779-15.319-1.562-29.045 9.656-30.598 24.988a27.989 27.989 0 002.492 14.675.662.662 0 01.063.28.657.657 0 01-.882.609.653.653 0 01-.373-.338 29.275 29.275 0 01-2.61-15.369c1.626-16.054 16.004-27.788 32.041-26.171 15.043 1.526 26.294 14.269 26.296 29.087a29.28 29.28 0 01-9.614 21.731 29.236 29.236 0 01-19.581 7.579z" fill="#fff"/></g><defs><linearGradient id="paint0_linear_582_6936" x1="290.745" y1="272.615" x2="-314.14" y2="962.999" gradientUnits="userSpaceOnUse"><stop stop-color="#FF928E"/><stop offset="1" stop-color="#FE7062"/></linearGradient><linearGradient id="paint1_linear_582_6936" x1="-304.824" y1="668.807" x2="271.265" y2="296.546" gradientUnits="userSpaceOnUse"><stop stop-color="#E1473D"/><stop offset="1" stop-color="#E9605A"/></linearGradient><linearGradient id="paint2_linear_582_6936" x1="208.631" y1="102.119" x2="88.976" y2="354.104" gradientUnits="userSpaceOnUse"><stop stop-color="#FF928E"/><stop offset="1" stop-color="#FE7062"/></linearGradient><linearGradient id="paint3_linear_582_6936" x1="152.559" y1="453.545" x2="448.079" y2="188.856" gradientUnits="userSpaceOnUse"><stop stop-color="#FF928E"/><stop offset="1" stop-color="#FE7062"/></linearGradient><linearGradient id="paint4_linear_582_6936" x1="184.411" y1="426.616" x2="183.514" y2="440.532" gradientUnits="userSpaceOnUse"><stop stop-color="#09005D"/><stop offset="1" stop-color="#1A0F91"/></linearGradient><linearGradient id="paint5_linear_582_6936" x1="184.762" y1="388.18" x2="181.617" y2="456.41" gradientUnits="userSpaceOnUse"><stop stop-color="#4F52FF"/><stop offset="1" stop-color="#4042E2"/></linearGradient><linearGradient id="paint6_linear_582_6936" x1="184.356" y1="369.631" x2="181.661" y2="426.64" gradientUnits="userSpaceOnUse"><stop stop-color="#4F52FF"/><stop offset="1" stop-color="#4042E2"/></linearGradient><linearGradient id="paint7_linear_582_6936" x1="185.58" y1="329.674" x2="181.53" y2="384.967" gradientUnits="userSpaceOnUse"><stop stop-color="#09005D"/><stop offset="1" stop-color="#1A0F91"/></linearGradient><linearGradient id="paint8_linear_582_6936" x1="130.432" y1="384.717" x2="116.141" y2="446.037" gradientUnits="userSpaceOnUse"><stop stop-color="#09005D"/><stop offset="1" stop-color="#1A0F91"/></linearGradient><linearGradient id="paint9_linear_582_6936" x1="146.016" y1="388.35" x2="131.725" y2="449.67" gradientUnits="userSpaceOnUse"><stop stop-color="#09005D"/><stop offset="1" stop-color="#1A0F91"/></linearGradient><linearGradient id="paint10_linear_582_6936" x1="154.357" y1="390.293" x2="140.067" y2="451.613" gradientUnits="userSpaceOnUse"><stop stop-color="#09005D"/><stop offset="1" stop-color="#1A0F91"/></linearGradient><linearGradient id="paint11_linear_582_6936" x1="162.698" y1="392.236" x2="148.408" y2="453.556" gradientUnits="userSpaceOnUse"><stop stop-color="#09005D"/><stop offset="1" stop-color="#1A0F91"/></linearGradient><linearGradient id="paint12_linear_582_6936" x1="95.603" y1="283.401" x2="109.972" y2="270.179" gradientUnits="userSpaceOnUse"><stop stop-color="#09005D"/><stop offset="1" stop-color="#1A0F91"/></linearGradient><linearGradient id="paint13_linear_582_6936" x1="68.804" y1="150.1" x2="123.105" y2="273.533" gradientUnits="userSpaceOnUse"><stop stop-color="#4F52FF"/><stop offset="1" stop-color="#4042E2"/></linearGradient><linearGradient id="paint14_linear_582_6936" x1="155.04" y1="360.577" x2="212.147" y2="308.029" gradientUnits="userSpaceOnUse"><stop stop-color="#4F52FF"/><stop offset="1" stop-color="#4042E2"/></linearGradient><linearGradient id="paint15_linear_582_6936" x1="117.104" y1="144.421" x2="95.521" y2="113.051" gradientUnits="userSpaceOnUse"><stop stop-color="#09005D"/><stop offset="1" stop-color="#1A0F91"/></linearGradient><linearGradient id="paint16_linear_582_6936" x1="72.109" y1="62.039" x2="108.124" y2="117.562" gradientUnits="userSpaceOnUse"><stop stop-color="#4F52FF"/><stop offset="1" stop-color="#4042E2"/></linearGradient><linearGradient id="paint17_linear_582_6936" x1="8.258" y1="179.591" x2="54.117" y2="137.392" gradientUnits="userSpaceOnUse"><stop stop-color="#4F52FF"/><stop offset="1" stop-color="#4042E2"/></linearGradient><linearGradient id="paint18_linear_582_6936" x1="211.982" y1="14.773" x2="104.535" y2="38.401" gradientUnits="userSpaceOnUse"><stop stop-color="#4F52FF"/><stop offset="1" stop-color="#4042E2"/></linearGradient><linearGradient id="paint19_linear_582_6936" x1="153.854" y1="99.618" x2="251.534" y2="82.932" gradientUnits="userSpaceOnUse"><stop stop-color="#4F52FF"/><stop offset="1" stop-color="#4042E2"/></linearGradient><linearGradient id="paint20_linear_582_6936" x1="351.955" y1="121.345" x2="296.26" y2="86.367" gradientUnits="userSpaceOnUse"><stop stop-color="#4F52FF"/><stop offset="1" stop-color="#4042E2"/></linearGradient><linearGradient id="paint21_linear_582_6936" x1="329.477" y1="157.132" x2="273.783" y2="122.157" gradientUnits="userSpaceOnUse"><stop stop-color="#4F52FF"/><stop offset="1" stop-color="#4042E2"/></linearGradient><linearGradient id="paint22_linear_582_6936" x1="263.267" y1="90.717" x2="278.608" y2="100.095" gradientUnits="userSpaceOnUse"><stop stop-color="#09005D"/><stop offset="1" stop-color="#1A0F91"/></linearGradient><linearGradient id="paint23_linear_582_6936" x1="277.693" y1="83.024" x2="234.321" y2="97.235" gradientUnits="userSpaceOnUse"><stop stop-color="#4F52FF"/><stop offset="1" stop-color="#4042E2"/></linearGradient><clipPath id="clip0_582_6936"><path fill="#fff" d="M0 0h547.063v464H0z"/></clipPath></defs></svg>