<svg width="498" height="259" fill="none" xmlns="http://www.w3.org/2000/svg"><path d="M404.153 64.716a25.77 25.77 0 01-2.29-.102.373.373 0 01-.34-.407.374.374 0 01.408-.34 24.92 24.92 0 004.48 0 .373.373 0 01.408.339.374.374 0 01-.338.408 27.3 27.3 0 01-2.328.102zm-6.728-.929a.386.386 0 01-.104-.014 24.824 24.824 0 01-4.308-1.666.378.378 0 01-.169-.503.374.374 0 01.503-.168 24.224 24.224 0 004.185 1.616.375.375 0 01-.101.735h-.006zm13.492-.01a.377.377 0 01-.372-.323.375.375 0 01.27-.412A24.136 24.136 0 00415 61.419a.377.377 0 01.337.672 25.022 25.022 0 01-4.307 1.672.364.364 0 01-.113.014zm-21.605-4.026a.358.358 0 01-.225-.075 25.118 25.118 0 01-3.416-3.11.372.372 0 01.015-.537.37.37 0 01.275-.098.375.375 0 01.262.13 24.581 24.581 0 003.314 3.027.371.371 0 01.129.417.372.372 0 01-.354.256v-.01zm29.712-.02a.377.377 0 01-.227-.675 24.712 24.712 0 003.31-3.02.375.375 0 11.554.505 25.282 25.282 0 01-3.412 3.115.383.383 0 01-.229.075h.004zM383.2 53.063a.37.37 0 01-.319-.177 24.78 24.78 0 01-2.067-4.13.375.375 0 01.621-.396.379.379 0 01.079.124 24.187 24.187 0 001.993 4.007.38.38 0 01.011.38.376.376 0 01-.328.192h.01zm41.926-.03a.375.375 0 01-.319-.572 24.187 24.187 0 001.993-4.01.38.38 0 01.341-.239.376.376 0 01.359.51 24.82 24.82 0 01-2.061 4.134.371.371 0 01-.313.177zm-45.213-8.412a.375.375 0 01-.366-.305 25.17 25.17 0 01-.429-4.6.371.371 0 01.11-.264.379.379 0 01.265-.11.375.375 0 01.374.375c.002 1.496.141 2.99.417 4.46a.374.374 0 01-.371.444zm48.485-.035a.394.394 0 01-.067 0 .375.375 0 01-.301-.439 24.53 24.53 0 00.408-4.46.408.408 0 01.375-.413.346.346 0 01.375.34v.035a25.288 25.288 0 01-.423 4.636.374.374 0 01-.367.3zm-48.497-9.014a.375.375 0 01-.067 0 .368.368 0 01-.241-.156.37.37 0 01-.06-.28c.28-1.518.7-3.007 1.253-4.447a.378.378 0 01.683-.006.38.38 0 01.019.277 24.069 24.069 0 00-1.218 4.31.375.375 0 01-.369.302zm48.483-.108a.377.377 0 01-.368-.305 23.94 23.94 0 00-1.236-4.304.377.377 0 01.7-.276 24.912 24.912 0 011.273 4.44.362.362 0 01-.001.147.368.368 0 01-.298.292c-.023 0-.045 0-.068-.004l-.002.01zm-45.224-8.346a.37.37 0 01-.307-.155.366.366 0 01-.061-.133.361.361 0 01.045-.284 25.235 25.235 0 012.79-3.689.375.375 0 11.556.504 24.23 24.23 0 00-2.696 3.587.381.381 0 01-.327.16v.01zm41.93-.09a.37.37 0 01-.319-.177 24.506 24.506 0 00-2.712-3.567.372.372 0 01.015-.538.37.37 0 01.275-.098.375.375 0 01.262.13 24.876 24.876 0 012.79 3.676.38.38 0 01.009.38.374.374 0 01-.326.195h.006zm-35.836-6.616a.378.378 0 01-.355-.256.376.376 0 01.13-.418 25.16 25.16 0 013.918-2.441.375.375 0 01.337.67 24.491 24.491 0 00-3.803 2.369.37.37 0 01-.227.066v.01zm8.099-4.058a.374.374 0 01-.102-.735 25.025 25.025 0 014.538-.853.374.374 0 11.07.745c-1.49.14-2.964.418-4.402.83a.358.358 0 01-.104.003v.01zm21.268 4.851h-2.013v-6.41h2.013v6.41zm-1.819-.2h1.62V14.99h-1.624l.004 6.017zm-1.292.2h-2.013v-8.657h2.013v8.657zm-1.817-.2h1.624v-8.264h-1.624v8.265zm-1.282.2h-2.012V10.196h2.012v11.009zm-1.819-.2h1.626V10.393h-1.626v10.614zm11.118.2h-2.013v-8.709h2.013v8.709zm-1.819-.2h1.626V12.69h-1.626v8.317zm4.918.2h-2.003V10.627h2.013l-.01 10.578zm-1.819-.2h1.626V10.82h-1.626v10.186zm-4.992-10.028h-.026l-6.964-1.993a.097.097 0 01-.069-.082.095.095 0 01.004-.037.086.086 0 01.017-.034.1.1 0 01.065-.035.094.094 0 01.037.003l6.924 1.977 6.875-3.725a.093.093 0 01.106.01c.01.007.018.017.024.028a.099.099 0 01.008.074.103.103 0 01-.046.058l-6.91 3.744a.09.09 0 01-.045.012z" fill="#92B5F2"/><path d="M424.634 8.584a.078.078 0 01-.036 0 .094.094 0 01-.053-.052.094.094 0 01-.001-.074l.622-1.496h-1.662a.1.1 0 01-.038-.007.1.1 0 01-.031-.02.084.084 0 01-.021-.032.095.095 0 01.021-.106.097.097 0 01.069-.029h1.807c.016 0 .032.004.046.012a.09.09 0 01.034.032.088.088 0 010 .09l-.676 1.63a.093.093 0 01-.034.037.094.094 0 01-.047.015zM361.932 19.43H342.8a.134.134 0 01-.134-.134V4.748a.134.134 0 01.134-.134h19.132a.133.133 0 01.133.134v14.548a.134.134 0 01-.133.133zm-18.999-.266h18.865V4.881h-18.865v14.283z" fill="#92B5F2"/><path d="M362.529 21.097h-20.327a.13.13 0 01-.051-.01.126.126 0 01-.072-.072.13.13 0 01-.011-.051V19.3a.134.134 0 01.134-.132h20.327a.134.134 0 01.134.132v1.664a.148.148 0 01-.01.05.134.134 0 01-.124.082zm-20.194-.273h20.061V19.43h-20.061v1.395zm10.031 3.159a.963.963 0 01-.946-1.153.962.962 0 011.315-.703.966.966 0 01.313 1.574.97.97 0 01-.682.282zm0-1.664a.699.699 0 10-.001 1.398.699.699 0 00.001-1.398z" fill="#92B5F2"/><path d="M352.366 22.279a.134.134 0 01-.134-.134v-1.133a.134.134 0 01.008-.053.118.118 0 01.029-.044.115.115 0 01.044-.03.128.128 0 01.053-.007.133.133 0 01.092.04.131.131 0 01.039.094v1.135a.134.134 0 01-.038.093.134.134 0 01-.093.039zm-4.648-4.233h-2.804a.132.132 0 01-.123-.08.127.127 0 01-.01-.051v-6.886a.134.134 0 01.133-.133h2.804a.134.134 0 01.134.133v6.886a.147.147 0 01-.01.05.142.142 0 01-.029.043.144.144 0 01-.044.029.128.128 0 01-.051.01zm-2.672-.265h2.541v-6.62h-2.541v6.62zm8.209.265h-2.791a.133.133 0 01-.123-.08.127.127 0 01-.01-.051V8.269c0-.035.015-.068.04-.093a.132.132 0 01.093-.038h2.791a.13.13 0 01.093.038c.025.025.04.058.04.093v9.646a.127.127 0 01-.039.093.133.133 0 01-.094.038zm-2.673-.265h2.539V8.4h-2.539v9.382zm8.541.265h-2.804a.133.133 0 01-.123-.08.127.127 0 01-.01-.051V6.276a.134.134 0 01.133-.133h2.804a.134.134 0 01.134.133v11.639a.127.127 0 01-.039.093.133.133 0 01-.095.038zm-2.68-.265h2.541V6.401h-2.541v11.38zm-199.261 2.922a3.93 3.93 0 010-7.858c.025 0 .049.01.068.028a.106.106 0 01.026.065l-.044 3.797h3.786a.087.087 0 01.066.028.091.091 0 01.028.065 3.942 3.942 0 01-3.93 3.875zm-.104-7.67a3.743 3.743 0 103.841 3.887h-3.787a.095.095 0 01-.086-.058.107.107 0 01-.006-.035l.038-3.795z" fill="#92B5F2"/><path d="M161.738 16.24h-3.882a.095.095 0 01-.094-.093l.046-3.892c0-.012.002-.025.007-.036a.11.11 0 01.02-.03.091.091 0 01.031-.02.087.087 0 01.035-.006 3.937 3.937 0 013.938 3.928v.056a.084.084 0 01-.007.038.085.085 0 01-.022.032.092.092 0 01-.072.024zm-3.787-.185h3.703a3.745 3.745 0 00-3.659-3.703l-.044 3.703z" fill="#92B5F2"/><path d="M122.966 8.849L95.825 35.99c.251.713.54 1.413.867 2.095l28.377-28.37a21.229 21.229 0 00-2.103-.866zm-4.988-1.114L94.711 31.002c.075.756.19 1.507.345 2.25L120.228 8.08a21.41 21.41 0 00-2.25-.345zm19.15 21.157c0-.182 0-.363-.014-.545l-21.791 21.79c.182 0 .361.015.544.015.742 0 1.483-.04 2.22-.116l18.933-18.932c.074-.735.11-1.474.108-2.212zm-8.141-16.722a19.387 19.387 0 00-1.678-1.197l-29.358 29.36c.371.58.77 1.14 1.196 1.678l29.84-29.842zM94.653 27.554l19.875-19.883c-.574.036-1.142.094-1.704.174l-17.998 18c-.08.564-.137 1.134-.173 1.71zm36.195-13.743l-30.061 30.065a21.448 21.448 0 001.808 1.618L132.47 15.62a21.476 21.476 0 00-1.622-1.808zm4.239 5.985a21.457 21.457 0 00-1.162-2.124l-29.278 29.277c.686.427 1.395.815 2.125 1.162l28.315-28.315zM108.045 9.122a21.319 21.319 0 00-11.957 11.957l11.957-11.957zm14.516 39.948a21.293 21.293 0 0013.484-13.483L122.561 49.07zm13.522-26.763l-26.8 26.8c.933.303 1.886.54 2.852.712l24.66-24.66a21.195 21.195 0 00-.712-2.852z" fill="#FFC3C8"/><path d="M193.628 4.59a1.931 1.931 0 10-2.732-2.732 1.931 1.931 0 002.732 2.731zm10.866-.923a1.931 1.931 0 10-3.76-.887 1.931 1.931 0 003.76.887zm9.857.923a1.931 1.931 0 10-2.731-2.731 1.931 1.931 0 002.731 2.731zm10.864-.923a1.931 1.931 0 10-3.76-.887 1.931 1.931 0 003.76.887zm-31.082 10.359a1.931 1.931 0 10-3.759-.887 1.931 1.931 0 003.759.887zm9.857.927a1.931 1.931 0 10-2.732-2.731 1.931 1.931 0 002.732 2.73zm10.866-.927a1.931 1.931 0 10-3.759-.887 1.931 1.931 0 003.759.887zm9.855.926a1.931 1.931 0 10-2.732-2.731 1.931 1.931 0 002.732 2.73zm206.754 95.734l9.231-17.239-1.415-2.599-11.68 21.817h23.554l-1.076-1.979h-18.614z" fill="#ABC9FD"/><path d="M446.458 86.859l-11.68 21.816h23.554l-11.874-21.816zm-138.53-71.866l1.638-1.638c.349-.365.54-.852.534-1.356a1.933 1.933 0 00-3.264-1.375l-1.638 1.63-1.638-1.637a1.934 1.934 0 00-2.763-.033 1.928 1.928 0 00-.565 1.388 1.924 1.924 0 00.598 1.375l1.638 1.638-1.638 1.654a1.927 1.927 0 00-.455 2.126 1.927 1.927 0 002.558 1.042 1.93 1.93 0 00.627-.438l1.638-1.638 1.638 1.638a1.932 1.932 0 003.264-1.374 1.927 1.927 0 00-.534-1.356l-1.638-1.646z" fill="#FFC3C8"/><path d="M497.994 258.843H.22v-2.413a5.979 5.979 0 015.979-5.979H492.02a5.98 5.98 0 015.98 5.979l-.006 2.413z" fill="#7F5AF0"/><path d="M160.464 226.859h-19.329v13.572h19.329v-13.572zm205.467 0h-19.329v13.572h19.329v-13.572z" fill="#363636"/><path d="M409.416 28.734H97.652a5.638 5.638 0 00-5.637 5.638v190.861a5.638 5.638 0 005.637 5.638h311.764a5.638 5.638 0 005.638-5.638V34.372a5.638 5.638 0 00-5.638-5.638zm12.207 207.918H87.092a4.64 4.64 0 00-4.64 4.64v4.599a4.64 4.64 0 004.64 4.64h334.531a4.64 4.64 0 004.639-4.64v-4.599a4.64 4.64 0 00-4.639-4.64z" fill="#404040"/><path d="M407.013 31.855H100.054a4.92 4.92 0 00-4.92 4.92v175.658a4.92 4.92 0 004.92 4.92h306.959a4.92 4.92 0 004.92-4.92V36.775a4.92 4.92 0 00-4.92-4.92z" fill="#737373"/><path d="M407.08 36.708H99.986V212.5H407.08V36.708z" fill="#EBF3FE"/><path d="M397.592 203.012V46.196H109.474v156.816h288.118z" fill="#fff"/><path d="M152.53 160.673h-18.151a7.425 7.425 0 00-7.425 7.426v18.151a7.425 7.425 0 007.425 7.426h18.151a7.426 7.426 0 007.426-7.426v-18.151a7.426 7.426 0 00-7.426-7.426z" fill="#B6BDD4"/><path d="M149.964 157.557h-18.152a7.425 7.425 0 00-7.425 7.425v18.151a7.425 7.425 0 007.425 7.426h18.152a7.425 7.425 0 007.425-7.426v-18.151a7.425 7.425 0 00-7.425-7.425z" fill="#EBF3FE"/><path d="M195.051 160.673H176.9a7.426 7.426 0 00-7.426 7.426v18.151a7.426 7.426 0 007.426 7.426h18.151a7.425 7.425 0 007.425-7.426v-18.151a7.425 7.425 0 00-7.425-7.426z" fill="#B6BDD4"/><path d="M192.484 157.557h-18.151a7.425 7.425 0 00-7.426 7.425v18.151a7.426 7.426 0 007.426 7.426h18.151a7.425 7.425 0 007.425-7.426v-18.151a7.425 7.425 0 00-7.425-7.425z" fill="#EBF3FE"/><path d="M237.571 160.673H219.42a7.426 7.426 0 00-7.426 7.426v18.151a7.426 7.426 0 007.426 7.426h18.151a7.426 7.426 0 007.426-7.426v-18.151a7.426 7.426 0 00-7.426-7.426z" fill="#B6BDD4"/><path d="M235.004 157.557h-18.151a7.425 7.425 0 00-7.425 7.425v18.151a7.425 7.425 0 007.425 7.426h18.151a7.426 7.426 0 007.426-7.426v-18.151a7.425 7.425 0 00-7.426-7.425z" fill="#EBF3FE"/><path d="M224.544 66.16h-95.569a9.076 9.076 0 00-9.076 9.076v62.794a9.076 9.076 0 009.076 9.076h95.569a9.076 9.076 0 009.075-9.076V75.236a9.075 9.075 0 00-9.075-9.076z" fill="#B6BDD4"/><path d="M219.081 60.202h-95.569a9.076 9.076 0 00-9.076 9.075v62.794a9.076 9.076 0 009.076 9.076h95.569a9.076 9.076 0 009.076-9.076V69.277a9.076 9.076 0 00-9.076-9.075z" fill="#EBF3FE"/><path d="M219.081 60.202h-95.569a9.071 9.071 0 00-9.076 9.073v2.476h113.721v-2.476a9.076 9.076 0 00-9.076-9.073z" fill="#7F5AF0"/><path d="M123.696 66.436a1.58 1.58 0 10-3.119-.508 1.58 1.58 0 003.119.508zm7.362.074a1.58 1.58 0 10-3.09-.663 1.58 1.58 0 003.09.663zm6.956.789a1.579 1.579 0 10-2.234-2.235 1.579 1.579 0 102.234 2.235z" fill="#fff"/><path d="M135.338 107.87c8.101 0 14.668-6.567 14.668-14.668 0-8.1-6.567-14.668-14.668-14.668-8.101 0-14.668 6.567-14.668 14.668 0 8.101 6.567 14.668 14.668 14.668z" fill="#B6BDD4"/><path d="M133.138 106.403c8.1 0 14.667-6.567 14.667-14.668 0-8.1-6.567-14.668-14.667-14.668-8.101 0-14.668 6.567-14.668 14.668 0 8.1 6.567 14.668 14.668 14.668z" fill="#75A2FF"/><path d="M184.497 87.564h-22.56a3.711 3.711 0 01-3.713-3.713 3.71 3.71 0 013.713-3.712h22.56a3.713 3.713 0 013.712 3.712 3.713 3.713 0 01-3.712 3.713z" fill="#B6BDD4"/><path d="M183.327 86.052h-22.55a3.71 3.71 0 01-3.713-3.713 3.717 3.717 0 013.713-3.72h22.55a3.712 3.712 0 013.72 3.72 3.714 3.714 0 01-3.72 3.713z" fill="#fff"/><path d="M212.608 94.547h-50.663a3.713 3.713 0 100 7.426h50.663a3.713 3.713 0 000-7.426z" fill="#B6BDD4"/><path d="M211.44 93.035h-50.663a3.713 3.713 0 000 7.425h50.663a3.713 3.713 0 100-7.425z" fill="#fff"/><path d="M178.139 115.632h-50.663a3.713 3.713 0 000 7.426h50.663a3.713 3.713 0 000-7.426z" fill="#B6BDD4"/><path d="M176.971 121.545h-50.663a3.713 3.713 0 01-3.713-3.713 3.713 3.713 0 013.713-3.713h50.663a3.717 3.717 0 013.713 3.713 3.712 3.712 0 01-3.713 3.713z" fill="#fff"/><path d="M105.329 139.405h-6.391v110.919h6.391V139.405z" fill="#FF7A86"/><path d="M139.049 192.203H84.463a1.925 1.925 0 00-1.925 1.925v54.476c0 1.063.862 1.925 1.925 1.925h54.586a1.925 1.925 0 001.925-1.925v-54.476a1.925 1.925 0 00-1.925-1.925z" fill="#FFF0F1"/><path d="M109.558 193.349H85.934a1.925 1.925 0 00-1.925 1.925v23.624c0 1.063.862 1.925 1.925 1.925h23.624a1.925 1.925 0 001.925-1.925v-23.624a1.925 1.925 0 00-1.925-1.925zm28.345 0h-23.624a1.925 1.925 0 00-1.925 1.925v23.624c0 1.063.862 1.925 1.925 1.925h23.624a1.925 1.925 0 001.925-1.925v-23.624a1.925 1.925 0 00-1.925-1.925zm-28.345 28.418H85.934a1.925 1.925 0 00-1.925 1.925v23.624c0 1.063.862 1.925 1.925 1.925h23.624a1.925 1.925 0 001.925-1.925v-23.624a1.925 1.925 0 00-1.925-1.925zm28.345 0h-23.624a1.925 1.925 0 00-1.925 1.925v23.624c0 1.063.862 1.925 1.925 1.925h23.624a1.925 1.925 0 001.925-1.925v-23.624a1.925 1.925 0 00-1.925-1.925z" fill="#7F5AF0"/><path d="M96.407 203.772c0 3.188-1.676 4.783-3.631 4.783-1.885 0-3.516-1.515-3.54-4.564-.023-3.049 1.654-4.725 3.655-4.725 2.119-.002 3.516 1.626 3.516 4.506zm-5.54.139c-.048 1.933.675 3.4 1.955 3.4 1.35 0 1.955-1.445 1.955-3.446 0-1.839-.534-3.376-1.955-3.376-1.28.008-1.955 1.521-1.955 3.43v-.008zm1.77 10.989l8.892-15.644h1.303L93.94 214.9h-1.304zm13.619-4.867c0 3.189-1.678 4.783-3.609 4.783-1.886 0-3.516-1.512-3.54-4.54-.024-3.027 1.654-4.749 3.655-4.749 2.119-.002 3.494 1.633 3.494 4.514v-.008zm-5.543.14c-.021 1.933.722 3.4 1.979 3.4 1.352 0 1.957-1.443 1.957-3.446 0-1.839-.536-3.376-1.957-3.376-1.279.01-1.979 1.523-1.979 3.43v-.008zm3.901 23.968H90.876v2.726h13.738v-2.726zm28.346-2.507h-13.737v2.726h13.737v-2.726zm0 5.014h-13.737v2.726h13.737v-2.726zm0-30.925h-5.506v-5.507h-2.726v5.507h-5.505v2.726h5.505v5.504h2.726v-5.504h5.506v-2.726z" fill="#fff"/><path d="M296.126 75.507a23.806 23.806 0 00-23.55 20.355l23.666 3.504-12.103 20.505a23.81 23.81 0 0021.027 1.458 23.8 23.8 0 00-9.04-45.82v-.002z" fill="#ACBFF0"/><path d="M294.699 99.366l-12.103 20.505a23.792 23.792 0 0021.937 1.06 23.784 23.784 0 008.853-7.03 23.786 23.786 0 004.61-10.322l-23.297-4.213z" fill="#FF7A86"/><path d="M257.111 93.802l37.588 5.564-19.53-32.58a37.888 37.888 0 00-18.058 27.016z" fill="#75A2FF"/><path d="M332.457 99.308a37.702 37.702 0 00-7.573-22.719l-30.185 22.777 15.407 34.477a37.858 37.858 0 0016.274-13.968 37.855 37.855 0 006.077-20.567z" fill="#FF5766"/><path d="M284.621 103.884l-37.588-5.566a37.854 37.854 0 0018.259 38.144l19.329-32.578z" fill="#ACBFF0"/><path d="M294.584 137.849a38.496 38.496 0 01-19.652-5.381.675.675 0 01-.32-.668.672.672 0 01.495-.55.647.647 0 01.259-.014c.087.012.17.041.245.086a37.156 37.156 0 0018.973 5.193c20.527 0 37.207-16.692 37.207-37.209 0-20.517-16.69-37.207-37.207-37.207-18.231 0-34.045 13.568-36.785 31.561a.666.666 0 11-1.315-.199 38.546 38.546 0 0138.1-32.683c21.25 0 38.538 17.29 38.538 38.54s-17.288 38.531-38.538 38.531z" fill="#4879E0"/><path d="M346.935 78.403h-8.107v8.107h8.107v-8.107z" fill="#FF5766"/><path d="M386.476 78.403h-33.885v8.107h33.885v-8.107z" fill="#ACBFF0"/><path d="M346.935 101.046h-8.107v8.107h8.107v-8.107z" fill="#75A2FF"/><path d="M386.43 101.046h-33.839v8.107h33.839v-8.107z" fill="#ACBFF0"/><path d="M375.079 142.315h-18.373v56.203h18.373v-56.203zm-34.886 17.78h-18.372v38.421h18.372v-38.421zm-37.422 17.781h-18.373v20.64h18.373v-20.64z" fill="#75A2FF"/><path d="M369.977 119.817l-15.27 6.413 5.345 1.417-12.798 12.798h-21.342a1.48 1.48 0 00-1.349.869l-7.489 16.45h-3.841a1.473 1.473 0 00-1.395.972l-1.965 5.365h-25.244a1.478 1.478 0 00-1.215.636l-4.638 6.648a1.492 1.492 0 00-.244 1.107 1.478 1.478 0 00.611.956 1.485 1.485 0 001.646.033 1.47 1.47 0 00.417-.4l4.197-6.015h25.509a1.488 1.488 0 001.395-.974l1.965-5.365h3.756a1.49 1.49 0 001.349-.869l7.49-16.449h21.007a1.488 1.488 0 001.046-.433l13.233-13.234 1.419 5.347 6.405-15.272z" fill="#FF5766"/><path d="M397.538 46.266H109.675v9.888h287.863v-9.889z" fill="#7F5AF0"/><path d="M379.068 51.826h-5.512v1.225h5.512v-1.225zm7.634.951l-3.898-3.898-.866.867 3.897 3.898.867-.867z" fill="#fff"/><path d="M382.804 53.642l3.898-3.898-.867-.866-3.898 3.898.867.866zm6.183-5.027v5.026h5.026v-5.026h-5.026zm4.053 4.054h-3.079v-3.08h3.079v3.08zm-264.668-.151a1.57 1.57 0 10-1.969-2.446 1.57 1.57 0 001.969 2.446zm-6.906.234a1.57 1.57 0 10-1.208-2.9 1.57 1.57 0 001.208 2.9zm-6.019-.35a1.57 1.57 0 10-2.222-2.22 1.57 1.57 0 002.222 2.22z" fill="#fff"/></svg>