<svg width="463" height="328" fill="none" xmlns="http://www.w3.org/2000/svg"><g clip-path="url(#clip0_582_7387)"><path d="M454.406.902H8.191A7.953 7.953 0 00.238 8.854v310.113a7.952 7.952 0 007.953 7.952h446.215a7.953 7.953 0 007.953-7.952V8.854a7.953 7.953 0 00-7.953-7.952z" fill="#FAFAFA"/><path d="M446.819 261.192H364.5a6.612 6.612 0 01-4.669-1.938 6.61 6.61 0 01-1.938-4.669V81.619a6.613 6.613 0 016.607-6.607h82.319a6.617 6.617 0 016.608 6.607v172.966a6.619 6.619 0 01-6.608 6.607zM364.5 75.89a5.7 5.7 0 00-5.692 5.692v172.966a5.701 5.701 0 005.692 5.693h82.319a5.705 5.705 0 005.693-5.693V81.582a5.704 5.704 0 00-5.693-5.692H364.5z" fill="#E0E0E0"/><path d="M34.145 1.24H8.886a8.831 8.831 0 00-8.831 8.832v308.281a8.832 8.832 0 008.831 8.832h25.259a8.832 8.832 0 008.831-8.832V10.072a8.831 8.831 0 00-8.831-8.832z" fill="#7F5AF0"/><path d="M40.67 141.736H7.687a2.567 2.567 0 00-2.562 2.608v26.009a2.563 2.563 0 002.562 2.563H43.38a2.572 2.572 0 001.9-.849 2.558 2.558 0 00.644-1.979l3.23-28.489-8.483.137z" fill="#FAFAFA"/><path d="M404.575 31.651s.083-.055.22-.137c.207-.125.388-.29.531-.485a4.322 4.322 0 00.732-2.553 7.81 7.81 0 01.357-1.922 2.618 2.618 0 011.51-1.73 2.743 2.743 0 012.535.33 3.837 3.837 0 011.189 2.443c.069.4.105.803.11 1.208a2.76 2.76 0 00.128 1.052 4.08 4.08 0 001.236 1.611l.494.403h-.622c-2.535 0-4.723-.11-6.187-.156l-2.233-.064 2.48-.064c1.519-.055 3.542-.155 5.94-.165l-.138.403a4.435 4.435 0 01-1.409-1.83 3.301 3.301 0 01-.165-1.208 7.971 7.971 0 00-.1-1.144 3.462 3.462 0 00-1.016-2.15 2.27 2.27 0 00-2.087-.285 2.242 2.242 0 00-1.299 1.446 8.81 8.81 0 00-.394 1.83 6.54 6.54 0 01-.293 1.575c-.137.39-.348.75-.622 1.061a1.653 1.653 0 01-.631.449.366.366 0 01-.183.046l-.083.036z" fill="#263238"/><path d="M411.183 27.844a1.803 1.803 0 100-3.607 1.803 1.803 0 000 3.607z" fill="#7F5AF0"/><path fill-rule="evenodd" clip-rule="evenodd" d="M407.65 32.795h2.489a1.208 1.208 0 01-.386.944 1.212 1.212 0 01-.968.32 1.034 1.034 0 01-1.135-1.264z" fill="#263238"/><path d="M437.942 19.965h-10.89a4.128 4.128 0 00-4.128 4.127v10.89a4.128 4.128 0 004.128 4.128h10.89a4.128 4.128 0 004.128-4.128v-10.89a4.128 4.128 0 00-4.128-4.127zm-218.88 166.312c-8.236 0-11.897-6.461-15.411-12.712-2.928-5.152-5.948-10.478-10.899-10.478-5.491 0-8.237 2.077-11.385 4.484-3.423 2.627-7.321 5.601-14.917 5.601-8.346 0-11.815-7.834-15.485-16.125-2.818-6.406-6.012-13.618-10.817-13.618-4.805 0-7.999 7.23-10.817 13.609-3.661 8.3-7.129 16.134-15.485 16.134-7.861 0-11.741-4.173-15.164-7.843-3.139-3.368-5.848-6.278-11.138-6.278v-.778c5.629 0 8.447 3.02 11.705 6.525 3.258 3.505 7.075 7.587 14.643 7.587 7.843 0 11.211-7.605 14.771-15.659 2.919-6.598 6.223-14.075 11.531-14.075 5.308 0 8.611 7.477 11.531 14.075 3.569 8.054 6.928 15.659 14.771 15.659 7.321 0 11.119-2.883 14.441-5.427 3.322-2.544 6.067-4.649 11.897-4.649 5.409 0 8.548 5.491 11.577 10.872 3.331 6.058 6.9 12.346 14.651 12.346 7.752 0 11.275-5.857 14.716-11.531 3.167-5.217 6.159-10.14 11.586-10.14 5.61 0 8.429 3.129 11.696 6.753 3.267 3.625 7.074 7.862 14.643 7.862 7.87 0 11.229-8.099 14.78-16.684 2.928-7.065 6.241-15.072 11.531-15.072 5.289 0 8.511 6.149 11.558 12.098 3.423 6.699 6.965 13.608 14.753 13.608 7.522 0 11.284-4.026 14.642-7.586 3.359-3.56 6.077-6.525 11.714-6.525v.778c-5.299 0-8.007 2.91-11.146 6.278-3.423 3.66-7.322 7.843-15.174 7.843-8.236 0-11.897-7.139-15.448-14.039-2.937-5.738-5.976-11.678-10.863-11.678s-7.98 7.752-10.808 14.588c-3.661 8.831-7.111 17.178-15.503 17.178-7.888 0-11.769-4.32-15.191-8.118-3.139-3.496-5.857-6.507-11.12-6.507-4.987 0-7.87 4.75-10.918 9.765-3.614 5.821-7.284 11.879-15.448 11.879z" fill="#7F5AF0"/><path d="M88.533 197.094l.21-.238a.818.818 0 00.705.403c.403 0 .604-.238.604-.723v-1.977h-1.199v-.302H90.4v2.252c0 .695-.33 1.034-.915 1.034a1.072 1.072 0 01-.952-.449zm4.695-1.089v1.529h-.32v-.385a.915.915 0 01-.852.403c-.558 0-.915-.284-.915-.714s.247-.695.915-.695h.778v-.147c0-.421-.238-.65-.696-.65a1.258 1.258 0 00-.814.284l-.156-.247a1.56 1.56 0 011.007-.329.91.91 0 01.752.225.92.92 0 01.3.726zm-.339.787v-.402h-.769c-.476 0-.631.192-.631.439s.228.467.622.467a.791.791 0 00.778-.504zm3.505-.686v1.428h-.302v-1.391a.687.687 0 00-.741-.787.803.803 0 00-.86.915v1.29h-.33v-2.462h.311v.458a1.039 1.039 0 01.915-.476.921.921 0 01.752.269.91.91 0 01.255.756zm27.885-1.547v1.282h1.693v.302h-1.693v1.391h-.348v-3.277h2.242v.302h-1.894zm4.603 1.849h-2.059a.92.92 0 00.97.851.982.982 0 00.411-.077 1 1 0 00.34-.243l.192.21a1.298 1.298 0 01-2.242-.851 1.199 1.199 0 112.397 0s-.009.073-.009.11zm-2.059-.247h1.748a.917.917 0 00-1.417-.466.917.917 0 00-.331.466zm5.235.137a1.195 1.195 0 01-.744 1.169c-.153.061-.318.09-.482.085a1.064 1.064 0 01-.915-.503v.485h-.321v-3.469h.33v1.474a1.07 1.07 0 01.915-.485 1.184 1.184 0 011.14.765c.058.153.085.316.077.479zm-.329 0a.91.91 0 00-.155-.508.907.907 0 00-.939-.389.912.912 0 00-.667 1.247.909.909 0 00.845.565.913.913 0 00.916-.915zm32.085-2.041v3.277h-.329v-2.618l-1.291 2.197h-.164l-1.282-2.188v2.609h-.338v-3.277h.293l1.418 2.426 1.409-2.426h.284zm2.892 1.748v1.529h-.311v-.385a.914.914 0 01-.851.403c-.558 0-.915-.284-.915-.714s.238-.695.915-.695h.778v-.147c0-.421-.238-.65-.696-.65a1.283 1.283 0 00-.823.284l-.147-.247c.284-.222.637-.339.998-.329a.907.907 0 01.752.225.917.917 0 01.3.726zm-.329.787v-.402h-.733c-.475 0-.631.192-.631.439s.229.467.622.467a.79.79 0 00.742-.504zm2.48-1.738v.32h-.083c-.512 0-.823.32-.823.915v1.254h-.339v-2.462h.32v.512a.918.918 0 01.925-.539zm28.489 1.601h-1.831l-.393.915h-.366l1.501-3.276h.338l1.501 3.276h-.366l-.384-.915zm-.128-.274l-.788-1.767-.787 1.767h1.575zm3.852-.083a1.19 1.19 0 01-1.226 1.254 1.062 1.062 0 01-.915-.485v1.373h-.339v-3.368h.311v.521c.097-.155.232-.282.393-.37.16-.089.34-.134.523-.133a1.185 1.185 0 011.163.732c.062.151.093.313.09.476zm-.329 0a.913.913 0 00-.915-.915.956.956 0 10.37 1.836.91.91 0 00.545-.921zm2.251-1.244v.32h-.082c-.513 0-.824.32-.824.915v1.254h-.329v-2.462h.311v.512a.918.918 0 01.924-.539zm33.898-.797v3.277h-.33v-2.618l-1.29 2.197h-.165l-1.281-2.188v2.609h-.329v-3.277h.283l1.419 2.426 1.409-2.426h.284zm2.883 1.748v1.529h-.312v-.385a.912.912 0 01-.851.403c-.558 0-.915-.284-.915-.714s.238-.695.915-.695h.778v-.147c0-.421-.238-.65-.695-.65-.3-.004-.591.096-.824.284l-.146-.247a1.55 1.55 0 01.997-.329.911.911 0 01.984.554.918.918 0 01.069.397zm-.33.787v-.402h-.769c-.475 0-.631.192-.631.439s.229.467.622.467a.79.79 0 00.751-.504h.027zm3.231-1.72l-1.227 2.745c-.21.485-.466.641-.823.641a.842.842 0 01-.595-.229l.156-.247a.596.596 0 00.448.183c.22 0 .366-.101.503-.412l.11-.238-1.098-2.452h.348l.915 2.086.915-2.086.348.009zm25.103 2.022l.201-.238c.075.123.18.224.305.294a.834.834 0 00.409.109c.393 0 .604-.238.604-.723v-1.977h-1.153v-.302h1.537v2.252c0 .695-.32 1.034-.915 1.034a1.07 1.07 0 01-.988-.449zm5.051-2.022v2.462h-.32v-.449a.994.994 0 01-.915.467.926.926 0 01-.784-.264.922.922 0 01-.25-.789v-1.427h.329v1.437c0 .53.275.796.741.796a.815.815 0 00.631-.263.797.797 0 00.202-.652v-1.291l.366-.027zm3.194 1.034v1.428h-.329v-1.391a.683.683 0 00-.436-.746.675.675 0 00-.305-.041.806.806 0 00-.861.915v1.29h-.329v-2.462h.311v.458c.098-.152.234-.276.395-.359.16-.084.339-.124.52-.117a.914.914 0 011.034 1.025zm28.27.988l.21-.238a.816.816 0 00.705.403c.402 0 .604-.238.604-.723v-1.977h-1.19v-.302h1.538v2.252c0 .695-.33 1.034-.961 1.034a1.06 1.06 0 01-.906-.449zm5.033-2.022v2.462h-.32v-.449a.979.979 0 01-.915.467.923.923 0 01-.791-.26.924.924 0 01-.253-.793v-1.427h.339v1.437c0 .53.265.796.732.796a.814.814 0 00.813-.564.82.82 0 00.029-.351v-1.291l.366-.027zm.915-1.007h.33v3.469h-.33v-3.469zm31.509 2.59h-1.83l-.394.915h-.357l1.501-3.276h.339l1.501 3.276h-.366l-.394-.915zm-.128-.274l-.787-1.767-.787 1.767h1.574zm3.533-1.309v2.462h-.321v-.449a.999.999 0 01-.915.467.917.917 0 01-1.006-1.043v-1.428h.329v1.428c0 .53.275.796.741.796a.815.815 0 00.631-.263.81.81 0 00.202-.652v-1.291l.339-.027zm3.212 0v2.16a1.088 1.088 0 01-1.236 1.235 1.695 1.695 0 01-1.144-.384l.165-.247c.274.221.618.338.97.329.623 0 .915-.284.915-.915v-.32a1.074 1.074 0 01-.915.485 1.195 1.195 0 01-1.202-.712 1.195 1.195 0 010-.966 1.204 1.204 0 011.202-.711 1.104 1.104 0 01.97.494v-.476l.275.028zm-.33 1.171a.909.909 0 00-.565-.845.912.912 0 00-1.195 1.195.909.909 0 00.845.565.912.912 0 00.915-.915zm-276.653-.65c0-.713.375-1.144.915-1.144s.915.431.915 1.144c0 .714-.375 1.144-.915 1.144s-.915-.448-.915-1.144zm1.556 0c0-.594-.266-.915-.66-.915-.393 0-.658.33-.658.915 0 .586.265.916.659.916.393 0 .659-.339.659-.916zm-3.588-11.787v2.251h-.238v-2.05h-.53v-.201h.768zm.531 1.126c0-.714.375-1.144.915-1.144s.915.43.915 1.144-.375 1.144-.915 1.144-.915-.43-.915-1.144zm1.556 0c0-.604-.266-.915-.66-.915-.393 0-.658.329-.658.915 0 .585.265.915.659.915.393 0 .659-.32.659-.915zm-1.181-7.88v.238h-1.574v-.164l.915-.916c.256-.247.302-.393.302-.549 0-.155-.183-.421-.53-.421a.766.766 0 00-.614.247l-.155-.137a.99.99 0 01.796-.32c.448 0 .741.229.741.604a.916.916 0 01-.366.705l-.769.75 1.254-.037zm.275-.924c0-.714.375-1.135.915-1.135s.915.421.915 1.135-.375 1.144-.915 1.144-.915-.421-.915-1.144zm1.565 0c0-.595-.275-.915-.668-.915-.394 0-.66.329-.66.915 0 .586.266.915.66.915.393 0 .668-.311.668-.915zm-1.886-8.621c0 .375-.274.668-.814.668a1.187 1.187 0 01-.815-.293l.12-.183a.914.914 0 00.695.266c.366 0 .576-.174.576-.458 0-.284-.192-.448-.604-.448h-.164v-.165l.622-.787h-1.144v-.201h1.437v.164l-.632.796c.485.028.723.284.723.641zm.321-.476c0-.714.375-1.144.915-1.144s.915.43.915 1.144-.375 1.144-.915 1.144-.915-.43-.915-1.144zm1.565 0c0-.604-.275-.915-.668-.915-.394 0-.66.329-.66.915 0 .586.266.915.66.915.393 0 .668-.32.668-.915zm-1.465-8.264h-.448v.586h-.229v-.586h-1.272v-.164l1.19-1.492h.265l-1.153 1.446h.97v-.485h.229v.512h.448v.183zm.211-.531c0-.722.375-1.143.915-1.143s.915.421.915 1.143c0 .723-.384 1.144-.915 1.144-.53 0-.915-.393-.915-1.144zm1.565 0c0-.604-.275-.915-.668-.915-.394 0-.66.33-.66.915 0 .586.266.916.66.916.393 0 .668-.321.668-.916zm-2.16-7.98c0 .385-.266.678-.815.678a1.18 1.18 0 01-.805-.284l.11-.183c.19.171.44.262.695.256.376 0 .586-.183.586-.458 0-.274-.183-.466-.76-.466h-.475l.119-1.135h1.226v.256h-1.025l-.082.714h.292c.678-.046.934.201.934.622zm.292-.421c0-.713.376-1.144.916-1.144s.915.431.915 1.144c0 .714-.375 1.144-.915 1.144s-.915-.466-.915-1.144zm1.556 0c0-.594-.265-.915-.658-.915-.394 0-.66.33-.66.915 0 .586.266.916.66.916.393 0 .659-.357.659-.916zm-1.684-8.383a.699.699 0 01-.482.657.695.695 0 01-.286.03c-.595 0-.915-.412-.915-1.126s.42-1.162 1.034-1.162a1.06 1.06 0 01.53.119l-.09.192a.77.77 0 00-.44-.11c-.485 0-.796.311-.796.915a1.27 1.27 0 000 .183.713.713 0 01.686-.384.689.689 0 01.76.686zm-.228 0c0-.292-.22-.485-.568-.485a.533.533 0 00-.395.123.517.517 0 00-.181.372.527.527 0 00.382.468c.07.02.142.025.213.017a.5.5 0 00.507-.292.496.496 0 00.042-.203zm.494-.457c0-.714.375-1.144.915-1.144s.915.43.915 1.144-.375 1.144-.915 1.144-.915-.43-.915-1.144zm1.556 0c0-.604-.266-.915-.66-.915-.393 0-.658.329-.658.915 0 .585.265.915.659.915.393 0 .659-.311.659-.915z" fill="#E0E0E0"/><path d="M351.477 141.544H82.191v.229h269.286v-.229zm0 8.776H82.191v.229h269.286v-.229zm0 8.777H82.191v.229h269.286v-.229zm0 8.776H82.191v.229h269.286v-.229zm0 8.777H82.191v.228h269.286v-.228zm0 8.785H82.191v.229h269.286v-.229z" opacity=".62" fill="#E0E0E0"/><path d="M142.765 143.429a2.674 2.674 0 00-1.649-2.484 2.684 2.684 0 00-3.661 1.948 2.682 2.682 0 105.31.536z" fill="#7F5AF0"/><path d="M221.469 185.627a2.683 2.683 0 00-3.192-2.668 2.675 2.675 0 00-2.119 2.112 2.674 2.674 0 001.157 2.76 2.681 2.681 0 004.154-2.204z" fill="#455A64"/><path d="M27.894 70.893a.393.393 0 01-.229-.082l-6.15-5.573-6.159 5.573a.348.348 0 11-.457-.513l6.406-5.774a.339.339 0 01.457 0l6.407 5.775a.348.348 0 010 .484.329.329 0 01-.275.11z" fill="#FAFAFA"/><path d="M26.146 75.771h-9.27a.348.348 0 01-.34-.338v-6.407a.349.349 0 11.687 0v6.105h8.585v-6.15a.348.348 0 11.686 0v6.406a.346.346 0 01-.348.384zm1.126 39.965h-12.08a.349.349 0 01-.348-.338v-7.66a1.74 1.74 0 011.739-1.739h3.139a1.943 1.943 0 011.83 1.199l.54 1.29h3.816a1.74 1.74 0 011.739 1.73v5.225a.346.346 0 01-.375.293zm-11.714-.677h11.375v-4.878a1.052 1.052 0 00-1.052-1.043h-4.045a.352.352 0 01-.32-.21l-.623-1.501a1.262 1.262 0 00-1.171-.778h-3.14a1.038 1.038 0 00-.739.331 1.05 1.05 0 00-.285.758v7.321zm2.26 142.216a.91.91 0 01-.54-.174.914.914 0 01-.366-.915l.504-3.212a.208.208 0 00-.064-.192l-2.298-2.279a.913.913 0 01.504-1.546l3.212-.513a.205.205 0 00.098-.038.214.214 0 00.067-.081l1.482-2.901a.917.917 0 011.292-.364c.144.088.26.214.337.364l1.483 2.901a.205.205 0 00.165.119l3.212.513a.92.92 0 01.755.602.917.917 0 01-.206.944l-2.297 2.306a.193.193 0 00-.064.193l.503 3.212a.914.914 0 01-1.318.961l-2.9-1.474a.208.208 0 00-.102-.027c-.035 0-.07.01-.1.027l-2.901 1.474a.919.919 0 01-.458.1zm3.414-2.278a.91.91 0 01.412.1l2.9 1.474a.247.247 0 00.239 0 .229.229 0 00.091-.22l-.503-3.212a.913.913 0 01.256-.787l2.297-2.306a.252.252 0 00.055-.229.23.23 0 00-.183-.156l-3.212-.512a.92.92 0 01-.705-.476l-1.482-2.901a.224.224 0 00-.202-.12.23.23 0 00-.201.12l-1.446 2.901a.917.917 0 01-.668.485l-3.212.512a.238.238 0 00-.114.052.235.235 0 00-.07.104.245.245 0 00.055.229l2.298 2.278a.922.922 0 01.256.788l-.504 3.212a.226.226 0 00.092.219.248.248 0 00.238 0l2.9-1.473a.913.913 0 01.413-.082zm6.781-45.951H14.45a.348.348 0 01-.347-.347v-8.53a.349.349 0 01.348-.338h13.562a.349.349 0 01.357.338v8.557a.348.348 0 01-.357.32zm-13.224-.64h12.885v-7.871H14.79v7.871z" fill="#FAFAFA"/><path d="M21.396 206.64a.32.32 0 01-.229-.092l-6.945-6.15a.339.339 0 01-.032-.48.34.34 0 01.48-.032l6.717 5.948 6.407-5.939a.337.337 0 01.485 0 .348.348 0 010 .485l-6.645 6.195a.401.401 0 01-.238.065z" fill="#FAFAFA"/><path d="M14.643 208.671a.362.362 0 01-.248-.101.356.356 0 010-.485l4.128-4.127a.342.342 0 01.38-.076.331.331 0 01.21.319.357.357 0 01-.096.242l-4.136 4.127a.325.325 0 01-.238.101zm13.462.284a.337.337 0 01-.238-.101l-4.42-4.411a.357.357 0 010-.485.351.351 0 01.11-.076.348.348 0 01.264 0 .35.35 0 01.11.076l4.439 4.448a.355.355 0 010 .485.368.368 0 01-.265.064z" fill="#FAFAFA"/><path d="M22.513 154.146h-2.004v2.004h2.004v-2.004zm3.78 0h-2.005v2.004h2.005v-2.004zm-7.56 0H16.73v2.004h2.004v-2.004zm7.56 3.157h-2.005v2.004h2.005v-2.004zm-3.78 0h-2.004v2.004h2.004v-2.004zm-3.78 0H16.73v2.004h2.004v-2.004z" fill="#7F5AF0"/><path d="M28.626 162.73h-14.23a.345.345 0 01-.132-.023.333.333 0 01-.207-.316v-11.705a.338.338 0 01.338-.338h14.231a.348.348 0 01.348.338v11.705a.337.337 0 01-.215.316.352.352 0 01-.133.023zm-13.883-.686h13.545v-10.982H14.743v10.982z" fill="#7F5AF0"/><path d="M18.248 152.443a.348.348 0 01-.347-.347v-3.771a.347.347 0 01.343-.404.35.35 0 01.265.123.342.342 0 01.078.281v3.771a.347.347 0 01-.339.347zm6.187 0a.348.348 0 01-.348-.347v-3.771a.347.347 0 01.343-.404.35.35 0 01.335.255c.014.049.017.1.008.149v3.771a.348.348 0 01-.338.347zm102.397 124.179h-4.557v15.283h4.557v-15.283zm-38.107-2.215h-4.557v17.498h4.557v-17.498zm9.527-3.651h-4.558v21.14h4.558v-21.14zm9.527 1.162h-4.558v19.978h4.558v-19.978zm9.527-6.754h-4.558v26.741h4.558v-26.741zm19.053.128h-4.557v26.613h4.557v-26.613zm9.527 8.74h-4.557v17.873h4.557v-17.873zm9.527-7.568h-4.558v25.441h4.558v-25.441zm9.527-5.729h-4.558v31.17h4.558v-31.17zm9.517 5.601H169.9v25.569h4.557v-25.569z" fill="#7F5AF0"/><path d="M184.003 310.849H71.795a9.279 9.279 0 01-9.271-9.261v-67.082a9.278 9.278 0 019.27-9.27h112.209a9.27 9.27 0 019.261 9.27v67.082a9.272 9.272 0 01-9.261 9.261zM71.795 226.151a8.36 8.36 0 00-8.356 8.355v67.082a8.364 8.364 0 008.355 8.346h112.209a8.358 8.358 0 008.346-8.346v-67.082a8.357 8.357 0 00-8.346-8.355H71.795z" fill="#E0E0E0"/><path d="M135.673 247.538c0 .137-12.986.247-28.993.247-16.006 0-28.992-.11-28.992-.247s12.977-.238 28.992-.238c16.016 0 28.993.11 28.993.238z" fill="#E0E0E0"/><path d="M253.5 287.439a15.737 15.737 0 01-3.734 1.547 15.417 15.417 0 01-8.017 0 15.747 15.747 0 01-3.733-1.547 15.485 15.485 0 01-5.665-21.149 15.56 15.56 0 019.398-7.212 15.29 15.29 0 014.009-.531V255.5a18.359 18.359 0 00-9.271 2.48 18.506 18.506 0 00-3.834 2.947 17.951 17.951 0 00-2.938 3.834 18.283 18.283 0 00-1.83 4.466 18.82 18.82 0 00-.009 9.646 18.33 18.33 0 001.83 4.475 17.932 17.932 0 002.938 3.835 18.133 18.133 0 003.834 2.938 18.386 18.386 0 004.475 1.83c3.146.83 6.454.83 9.6 0a18.307 18.307 0 004.466-1.83 18.038 18.038 0 003.798-2.911l-2.16-2.159a15.407 15.407 0 01-3.157 2.388z" fill="#7F5AF0"/><path d="M263.686 269.227a18.447 18.447 0 00-4.796-8.3 18.58 18.58 0 00-8.3-4.805 18.954 18.954 0 00-4.805-.622v3.048c2.72 0 5.391.72 7.743 2.086a15.557 15.557 0 017.211 9.39 15.413 15.413 0 01-1.556 11.75 15.491 15.491 0 01-2.452 3.203l2.159 2.16a18.536 18.536 0 005.427-13.105 18.518 18.518 0 00-.631-4.805z" fill="#E0E0E0"/><path d="M242.811 276a1.66 1.66 0 01-.555 1.222 1.666 1.666 0 01-1.275.416c-1.419 0-2.197-.979-2.197-2.672s.998-2.746 2.444-2.746c.444-.038.891.048 1.29.247l-.219.439a1.881 1.881 0 00-1.044-.256c-1.153 0-1.894.741-1.894 2.197a4.018 4.018 0 000 .439 1.693 1.693 0 011.629-.915 1.616 1.616 0 011.684.956c.094.212.14.441.137.673zm-.54 0c0-.696-.522-1.153-1.345-1.153a1.225 1.225 0 00-.941.287 1.248 1.248 0 00-.432.884c0 .586.485 1.144 1.409 1.144a1.18 1.18 0 00.912-.284c.124-.109.223-.243.291-.393.069-.149.105-.312.106-.476V276zm4.823.018c0 .915-.631 1.62-1.94 1.62a2.749 2.749 0 01-1.913-.687l.266-.43a2.34 2.34 0 001.647.614c.915 0 1.382-.44 1.382-1.09 0-.649-.421-1.116-1.785-1.116h-1.135l.275-2.681h2.929v.485h-2.471l-.183 1.702h.695c1.611 0 2.233.64 2.233 1.583zm.531-2.361c0-.87.485-1.446 1.208-1.446s1.208.567 1.208 1.446c0 .878-.504 1.455-1.208 1.455-.705 0-1.208-.577-1.208-1.455zm2.031 0c0-.696-.329-1.107-.823-1.107-.494 0-.824.421-.824 1.107 0 .686.32 1.107.824 1.107.503 0 .823-.412.823-1.107zm2.416-1.409h.449l-3.661 5.344h-.448l3.66-5.344zm-1.171 3.935c0-.87.494-1.455 1.208-1.455s1.208.585 1.208 1.455c0 .869-.494 1.446-1.208 1.446s-1.208-.586-1.208-1.446zm2.032 0c0-.687-.321-1.108-.824-1.108-.503 0-.824.412-.824 1.108 0 .695.33 1.107.824 1.107.494 0 .824-.421.824-1.107z" fill="#263238"/><path d="M317.699 274.041a18.781 18.781 0 01-.632 4.787 18.66 18.66 0 01-13.105 13.114 18.84 18.84 0 01-9.6 0 18.805 18.805 0 01-8.3-4.805 18.56 18.56 0 01-2.947-3.843 18.153 18.153 0 01-1.831-4.466 19.36 19.36 0 01-.585-3.506h3.075c.074.928.23 1.846.466 2.746a15.195 15.195 0 001.538 3.725 15.623 15.623 0 005.674 5.674 15.44 15.44 0 003.734 1.546c2.624.696 5.383.696 8.007 0a15.44 15.44 0 003.734-1.546 15.608 15.608 0 005.674-5.674 15.45 15.45 0 00-2.471-18.679 15.832 15.832 0 00-3.203-2.462 15.48 15.48 0 00-3.734-1.546 15.238 15.238 0 00-4.008-.522v-3.057c1.622 0 3.237.209 4.805.623a18.62 18.62 0 0113.105 13.114c.405 1.56.608 3.166.604 4.777z" fill="#E0E0E0"/><path d="M294.984 271.946v.384l-2.242 4.96h-.594l2.196-4.859h-2.746v.997h-.576v-1.482h3.962zm4.21 3.77c0 .915-.64 1.62-1.94 1.62a2.746 2.746 0 01-1.922-.686l.266-.44a2.309 2.309 0 001.647.623c.915 0 1.391-.449 1.391-1.09 0-.64-.43-1.116-1.83-1.116h-1.135l.274-2.681h2.929v.521h-2.361l-.183 1.702h.686c1.565-.036 2.178.604 2.178 1.547zm.54-2.334c0-.915.494-1.446 1.208-1.446s1.208.568 1.208 1.446c0 .879-.494 1.455-1.208 1.455s-1.208-.613-1.208-1.455zm2.032 0c0-.695-.33-1.107-.824-1.107-.494 0-.823.421-.823 1.107 0 .687.32 1.108.823 1.108.503 0 .824-.44.824-1.108zm2.416-1.409h.448l-3.66 5.344h-.449l3.661-5.344zm-1.172 3.935c0-.915.504-1.455 1.208-1.455.705 0 1.208.577 1.208 1.455 0 .879-.485 1.446-1.208 1.446a1.273 1.273 0 01-1.177-.941 1.291 1.291 0 01-.031-.532v.027zm2.032 0c0-.695-.32-1.107-.824-1.107-.503 0-.823.412-.823 1.107 0 .696.329 1.107.823 1.107.495 0 .824-.448.824-1.134v.027z" fill="#263238"/><path d="M314.642 274.041a15.419 15.419 0 01-4.576 10.936 15.86 15.86 0 01-3.203 2.462 15.442 15.442 0 01-3.734 1.547 15.635 15.635 0 01-8.007 0 15.442 15.442 0 01-3.734-1.547 15.6 15.6 0 01-5.674-5.674 15.18 15.18 0 01-1.538-3.725 15.749 15.749 0 01-.466-2.745c0-.43-.064-.851-.064-1.29.004-2.718.72-5.388 2.077-7.743a15.488 15.488 0 012.453-3.203 16.148 16.148 0 013.212-2.462 15.404 15.404 0 017.742-2.068v-3.056a18.54 18.54 0 00-13.114 5.426 19.078 19.078 0 00-2.938 3.835 18.492 18.492 0 00-2.489 9.271c0 .43 0 .86.046 1.29a19.35 19.35 0 00.585 3.505 18.121 18.121 0 001.831 4.466 18.596 18.596 0 002.946 3.844 18.807 18.807 0 008.301 4.804c3.146.83 6.454.83 9.6 0a18.618 18.618 0 0013.169-13.041c.416-1.561.628-3.17.632-4.786l-3.057-.046z" fill="#7F5AF0"/><path d="M332.296 309.678h-119.64a8.065 8.065 0 01-8.053-8.054V234.46a8.05 8.05 0 018.053-8.044h119.64a8.056 8.056 0 018.044 8.044v67.164a8.051 8.051 0 01-8.044 8.054zm-119.64-82.365a7.145 7.145 0 00-7.138 7.129v67.164a7.147 7.147 0 007.138 7.138h119.64a7.135 7.135 0 007.129-7.138V234.46a7.141 7.141 0 00-7.129-7.129l-119.64-.018z" fill="#E0E0E0"/><path d="M273.725 245.278c0 .137-12.51.238-27.931.238-15.42 0-27.949-.101-27.949-.238 0-.138 12.511-.238 27.949-.238 15.439 0 27.931.11 27.931.238zm98.865-91.636a1.913 1.913 0 01-1.346-.557 1.907 1.907 0 01-.557-1.346v-35.765a1.903 1.903 0 113.807 0v35.747a1.905 1.905 0 01-1.904 1.921z" fill="#E0E0E0"/><path d="M372.59 153.816a1.903 1.903 0 01-1.903-1.903v-23.044a1.91 1.91 0 011.903-1.913 1.914 1.914 0 011.904 1.913v23.044a1.904 1.904 0 01-1.904 1.903z" fill="#7F5AF0"/><path d="M371.391 155.326v3.176h-.329v-2.901h-.75v-.275h1.079zm.76 1.565c0-1.006.531-1.61 1.263-1.61.732 0 1.272.604 1.272 1.61 0 1.007-.54 1.62-1.272 1.62s-1.263-.604-1.263-1.62zm2.196 0c0-.842-.384-1.308-.915-1.308s-.915.466-.915 1.308c0 .842.375 1.318.915 1.318s.915-.467.915-1.318z" fill="#263238"/><path d="M380.204 153.642a1.913 1.913 0 01-1.346-.557 1.907 1.907 0 01-.557-1.346v-35.765a1.903 1.903 0 113.807 0v35.747a1.905 1.905 0 01-1.904 1.921z" fill="#E0E0E0"/><path d="M380.204 153.816a1.903 1.903 0 01-1.903-1.903v-30.301a1.914 1.914 0 011.903-1.913 1.913 1.913 0 011.904 1.913v30.301a1.904 1.904 0 01-1.904 1.903z" fill="#7F5AF0"/><path d="M379.793 158.191v.293h-2.224v-.229l1.318-1.3c.357-.347.43-.567.43-.778 0-.375-.256-.594-.741-.594a1.086 1.086 0 00-.87.347l-.229-.201a1.427 1.427 0 011.126-.448c.641 0 1.052.329 1.052.86a1.317 1.317 0 01-.521.988l-1.08 1.062h1.739zm.347-1.3c0-1.006.531-1.61 1.263-1.61.732 0 1.272.604 1.272 1.61 0 1.007-.53 1.62-1.272 1.62-.741 0-1.263-.604-1.263-1.62zm2.197 0c0-.842-.375-1.308-.915-1.308s-.916.466-.916 1.308c0 .842.385 1.318.916 1.318.53 0 .915-.467.915-1.318z" fill="#263238"/><path d="M387.819 153.642a1.895 1.895 0 01-1.759-1.175 1.895 1.895 0 01-.145-.728v-35.765a1.904 1.904 0 011.904-1.903 1.913 1.913 0 011.912 1.903v35.747a1.904 1.904 0 01-.557 1.358 1.907 1.907 0 01-1.355.563z" fill="#E0E0E0"/><path d="M387.819 153.816a1.903 1.903 0 01-1.904-1.903v-17.635a1.904 1.904 0 011.904-1.904 1.913 1.913 0 011.912 1.904v17.607a1.903 1.903 0 01-.553 1.365 1.922 1.922 0 01-1.359.566z" fill="#7F5AF0"/><path d="M387.324 157.568c0 .531-.384.916-1.153.916-.42.015-.83-.132-1.144-.412l.165-.256c.266.245.618.377.979.366.531 0 .824-.247.824-.641s-.275-.631-.86-.631h-.229v-.238l.915-1.099h-1.62v-.247h2.041v.229l-.915 1.135c.659.018.997.375.997.878zm.458-.677c0-1.006.531-1.61 1.272-1.61s1.263.604 1.263 1.61c0 1.007-.531 1.62-1.263 1.62-.732 0-1.272-.604-1.272-1.62zm2.206 0c0-.842-.385-1.308-.916-1.308-.53 0-.915.466-.915 1.308 0 .842.385 1.318.915 1.318.531 0 .916-.467.916-1.318z" fill="#263238"/><path d="M395.442 153.642a1.91 1.91 0 01-1.913-1.903v-35.765a1.914 1.914 0 011.913-1.903 1.903 1.903 0 011.904 1.903v35.747a1.9 1.9 0 01-1.904 1.921z" fill="#E0E0E0"/><path d="M395.442 153.816a1.91 1.91 0 01-1.913-1.903v-30.301a1.925 1.925 0 011.913-1.913 1.913 1.913 0 011.904 1.913v30.301a1.904 1.904 0 01-1.904 1.903z" fill="#7F5AF0"/><path d="M395.451 157.651h-.632v.833h-.329v-.833h-1.83v-.238l1.684-2.105h.366l-1.629 2.05h1.382v-.732h.32v.732h.631l.037.293zm.302-.76c0-1.006.531-1.61 1.263-1.61.732 0 1.272.604 1.272 1.61 0 1.007-.531 1.62-1.272 1.62s-1.263-.604-1.263-1.62zm2.196 0c0-.842-.375-1.308-.915-1.308s-.915.466-.915 1.308c0 .842.384 1.318.915 1.318s.915-.467.915-1.318z" fill="#263238"/><path d="M403.056 153.642a1.913 1.913 0 01-1.346-.557 1.91 1.91 0 01-.557-1.346v-35.765a1.903 1.903 0 113.807 0v35.747a1.905 1.905 0 01-1.904 1.921z" fill="#E0E0E0"/><path d="M403.056 153.816a1.903 1.903 0 01-1.903-1.903v-24.499a1.903 1.903 0 113.807 0v24.499a1.904 1.904 0 01-1.904 1.903z" fill="#7F5AF0"/><path d="M402.882 157.55c0 .54-.375.915-1.153.915a1.599 1.599 0 01-1.135-.412l.156-.256a1.4 1.4 0 00.979.366c.54 0 .824-.265.824-.649 0-.385-.257-.659-1.062-.659h-.65l.165-1.593h1.739v.293h-1.455l-.11 1.007h.412c.933.046 1.29.421 1.29.988zm.412-.659c0-1.006.531-1.61 1.272-1.61s1.272.604 1.272 1.61c0 1.007-.54 1.62-1.272 1.62s-1.272-.604-1.272-1.62zm2.205 0c0-.842-.384-1.308-.915-1.308-.53 0-.915.466-.915 1.308 0 .842.385 1.318.915 1.318.531 0 .915-.467.915-1.318z" fill="#263238"/><path d="M410.67 153.642a1.913 1.913 0 01-1.346-.557 1.91 1.91 0 01-.557-1.346v-35.765a1.903 1.903 0 113.807 0v35.747a1.905 1.905 0 01-1.904 1.921z" fill="#E0E0E0"/><path d="M410.67 153.642a1.83 1.83 0 01-1.903-1.729v-17.636a1.939 1.939 0 011.903-2.068 1.904 1.904 0 011.904 1.904v17.598a1.914 1.914 0 01-.548 1.364 1.905 1.905 0 01-1.356.567z" fill="#7F5AF0"/><path d="M410.423 157.532a.995.995 0 01-1.089.979c-.842 0-1.3-.586-1.3-1.592 0-1.007.586-1.638 1.456-1.638.261-.014.521.046.75.173l-.128.257a1.208 1.208 0 00-.622-.147c-.687 0-1.126.439-1.126 1.3v.265a1.01 1.01 0 01.97-.549.97.97 0 011.003.555c.057.124.086.26.086.397zm-.32 0c0-.412-.311-.687-.806-.687a.73.73 0 00-.558.171.726.726 0 00-.256.525c0 .357.293.686.842.686a.72.72 0 00.288-.029.713.713 0 00.49-.657v-.009zm.695-.641c0-1.006.531-1.61 1.263-1.61.732 0 1.272.604 1.272 1.61 0 1.007-.54 1.62-1.272 1.62s-1.263-.604-1.263-1.62zm2.197 0c0-.842-.375-1.308-.915-1.308s-.916.466-.916 1.308c0 .842.385 1.318.916 1.318.53 0 .915-.467.915-1.318z" fill="#263238"/><path d="M418.284 153.642a1.913 1.913 0 01-1.346-.557 1.907 1.907 0 01-.557-1.346v-35.765a1.903 1.903 0 113.807 0v35.747a1.905 1.905 0 01-1.904 1.921z" fill="#E0E0E0"/><path d="M418.284 153.816a1.904 1.904 0 01-1.903-1.903v-32.122a1.901 1.901 0 011.903-1.904 1.904 1.904 0 011.904 1.904v32.122a1.904 1.904 0 01-1.904 1.903z" fill="#7F5AF0"/><path d="M417.882 155.326v.229l-1.327 2.947h-.357l1.309-2.883h-1.639v.586h-.32v-.915l2.334.036zm.347 1.565c0-1.006.531-1.61 1.263-1.61.733 0 1.272.604 1.272 1.61 0 1.007-.53 1.62-1.272 1.62-.741 0-1.263-.604-1.263-1.62zm2.197 0c0-.842-.375-1.308-.915-1.308s-.915.466-.915 1.308c0 .842.384 1.318.915 1.318s.906-.467.906-1.318h.009z" fill="#263238"/><path d="M425.908 153.642a1.914 1.914 0 01-1.913-1.903v-35.765a1.913 1.913 0 013.259-1.346c.357.357.557.841.557 1.346v35.747a1.904 1.904 0 01-1.171 1.775 1.897 1.897 0 01-.732.146z" fill="#E0E0E0"/><path d="M425.908 153.816a1.914 1.914 0 01-1.913-1.903v-13.975a1.911 1.911 0 013.259-1.346c.357.357.557.841.557 1.346v13.975a1.903 1.903 0 01-1.903 1.903z" fill="#7F5AF0"/><path d="M425.551 157.596c0 .567-.476.915-1.236.915-.759 0-1.226-.348-1.226-.915a.794.794 0 01.613-.778.71.71 0 01-.494-.696c0-.521.439-.841 1.107-.841.668 0 1.126.32 1.126.841a.724.724 0 01-.513.696.795.795 0 01.623.778zm-.339 0c0-.394-.329-.641-.915-.641-.586 0-.915.247-.915.641 0 .393.338.64.915.64.576 0 .888-.247.888-.64h.027zm-.915-.915c.494 0 .787-.22.787-.568 0-.347-.311-.576-.787-.576-.476 0-.787.219-.787.576s.284.586.778.586l.009-.018zm1.675.21c0-1.006.53-1.61 1.272-1.61.741 0 1.272.604 1.272 1.61 0 1.007-.54 1.62-1.272 1.62s-1.272-.604-1.272-1.62zm2.205 0c0-.842-.384-1.308-.915-1.308s-.915.466-.915 1.308c0 .842.375 1.318.915 1.318s.915-.467.915-1.318z" fill="#263238"/><path d="M433.522 153.642a1.895 1.895 0 01-1.759-1.175 1.895 1.895 0 01-.145-.728v-35.765a1.904 1.904 0 013.807 0v35.747a1.904 1.904 0 01-1.171 1.775 1.897 1.897 0 01-.732.146z" fill="#E0E0E0"/><path d="M433.522 153.642a1.829 1.829 0 01-1.904-1.729v-4.906a1.953 1.953 0 01.106-.773 1.957 1.957 0 011.036-1.125c.24-.108.499-.165.762-.17a1.904 1.904 0 011.903 1.904v4.896a1.903 1.903 0 01-1.903 1.903z" fill="#7F5AF0"/><path d="M432.945 156.864c0 1.08-.585 1.647-1.455 1.647a1.403 1.403 0 01-.75-.174l.128-.265c.188.111.404.165.622.155.687 0 1.126-.439 1.126-1.308v-.257a1.02 1.02 0 01-.97.55.962.962 0 01-.982-1.359.985.985 0 011-.572c.824.045 1.281.585 1.281 1.583zm-.448-.632c0-.347-.293-.677-.842-.677a.69.69 0 00-.543.169.713.713 0 00-.173.234.71.71 0 00-.062.283c0 .421.311.687.805.687a.735.735 0 00.815-.687v-.009zm.915.659c0-1.006.531-1.61 1.272-1.61s1.272.604 1.272 1.61c0 1.007-.54 1.62-1.272 1.62s-1.272-.604-1.272-1.62zm2.205 0c0-.842-.384-1.308-.915-1.308s-.915.466-.915 1.308c0 .842.375 1.318.915 1.318s.915-.467.915-1.318z" fill="#263238"/><path d="M441.109 153.642a1.903 1.903 0 01-1.904-1.903v-35.765a1.904 1.904 0 013.807 0v35.747a1.904 1.904 0 01-1.171 1.775 1.897 1.897 0 01-.732.146z" fill="#E0E0E0"/><path d="M441.108 153.642a1.827 1.827 0 01-1.903-1.729v-17.636a1.953 1.953 0 01.508-1.442 1.952 1.952 0 011.395-.626 1.9 1.9 0 011.759 1.175 1.9 1.9 0 01.145.729v17.598a1.895 1.895 0 01-.548 1.364 1.905 1.905 0 01-1.356.567z" fill="#7F5AF0"/><path d="M438.409 155.326v3.176h-.33v-2.901h-.75v-.275h1.08zm.75 1.565c0-1.006.531-1.61 1.272-1.61.742 0 1.272.604 1.272 1.61 0 1.007-.54 1.62-1.272 1.62s-1.272-.604-1.272-1.62zm2.206 0c0-.842-.385-1.308-.915-1.308-.531 0-.916.466-.916 1.308 0 .842.376 1.318.916 1.318s.915-.467.915-1.318zm.796 0c0-1.006.54-1.61 1.272-1.61s1.272.604 1.272 1.61c0 1.007-.54 1.62-1.272 1.62s-1.272-.604-1.272-1.62zm2.205 0c0-.842-.384-1.308-.915-1.308s-.915.466-.915 1.308c0 .842.375 1.318.915 1.318s.915-.467.915-1.318z" fill="#263238"/><path d="M425.825 96.225c0 .128-12.4.238-27.693.238-15.292 0-27.702-.11-27.702-.238s12.401-.238 27.702-.238c15.302 0 27.693.11 27.693.238zm17.214 83.628c0 .128-16.253.238-36.304.238-20.051 0-36.305-.11-36.305-.238s16.254-.238 36.305-.238 36.304.1 36.304.238zm0 12.473c0 .128-16.253.238-36.304.238-20.051 0-36.305-.11-36.305-.238s16.254-.238 36.305-.238 36.304.101 36.304.238zm0 12.474c0 .128-16.253.238-36.304.238-20.051 0-36.305-.11-36.305-.238s16.254-.238 36.305-.238 36.304.101 36.304.238zm0 12.474c0 .128-16.253.238-36.304.238-20.051 0-36.305-.11-36.305-.238s16.254-.238 36.305-.238 36.304.11 36.304.238zm0 12.473c0 .128-16.253.238-36.304.238-20.051 0-36.305-.11-36.305-.238s16.254-.238 36.305-.238 36.304.11 36.304.238z" fill="#E0E0E0"/><path d="M440.193 272.202a12.245 12.245 0 0112.227 12.226v10.177a12.25 12.25 0 01-12.227 12.227h-68.362a12.24 12.24 0 01-12.227-12.227v-10.177a12.233 12.233 0 0112.227-12.226h68.362zm0-.915h-68.362a13.14 13.14 0 00-13.142 13.141v10.177a13.147 13.147 0 003.849 9.293 13.13 13.13 0 004.264 2.848 13.129 13.129 0 005.029 1.001h68.362a13.137 13.137 0 009.293-3.849 13.147 13.147 0 003.849-9.293v-10.177a13.138 13.138 0 00-13.142-13.141z" fill="#7F5AF0"/><path d="M434.428 290.542c0 .128-12.73.238-28.425.238s-28.443-.11-28.443-.238 12.73-.238 28.443-.238c15.713 0 28.425.11 28.425.238z" fill="#7F5AF0"/><path d="M167.246 41.434c7.047-5.49 13.27-12.318 21.36-16.161 13.901-6.608 30.319-3.258 45.154.832 14.835 4.091 30.521 8.832 45.328 4.622 13.764-3.89 24.645-15.96 27.702-29.825H52.045c3.386 28.168 24.618 51.386 52.842 56.273l1.766.284a80.362 80.362 0 0060.593-16.025zM340.13 27.03c7.165 6.506 17.626 8.282 27.253 7.165 6.47-.75 13.059-2.81 17.736-7.32 5.299-5.163 7.486-13.161 6.049-20.41a24.175 24.175 0 00-1.83-5.563h-53.08c-5.82 7.678-3.294 19.63 3.872 26.128z" fill="#7F5AF0" fill-opacity=".2"/><path d="M392.605 27.917s.137-.082.412-.055a1.64 1.64 0 011.016.54 1.779 1.779 0 01.357 1.693 1.835 1.835 0 01-1.678 1.25 1.829 1.829 0 01-1.754-1.14 1.769 1.769 0 01.247-1.711 1.6 1.6 0 01.979-.604h.421s-.65.064-1.126.778a1.479 1.479 0 00-.119 1.354 1.399 1.399 0 002.127.583 1.41 1.41 0 00.491-.674 1.456 1.456 0 00-.202-1.337 2.338 2.338 0 00-1.171-.677z" fill="#263238"/><path d="M393.053 25.867a5 5 0 01-.384-.823l.082.045-1.482.248.1-.11c0 .28-.018.585-.055.915v.082h-.082c-.288.128-.558.29-.805.485l-.073.055h-.083l-.833-.366.202-.046-.915 1.2v-.23l.585.687.083.091-.046.11a3.483 3.483 0 00-.229.915v.128l-.119.046-.842.32.137-.228c.064.466.138.97.211 1.491l-.201-.192.915.073h.128l.055.129c.126.281.282.548.467.796l.091.11-.064.128c-.11.256-.238.54-.375.823l-.064-.283c.375.292.787.594 1.199.915h-.302l.695-.586.11-.091.137.054c.294.118.601.198.915.238l.192.147v.055l.046.11.073.21.165.421-.256-.146 1.483-.202-.202.21.083-.914v-.138l.137-.055c.283-.12.55-.273.796-.457l.11-.092.119.064.833.376-.275.073.915-1.19v.311l-.576-.704-.083-.101.046-.119c.128-.29.212-.6.247-.915v-.128l.11-.046.86-.302-.128.21c-.064-.521-.128-1.015-.192-1.491l.165.155-.916-.091h-.109v-.092a3.348 3.348 0 00-.458-.814l-.055-.083v-.082c.137-.293.266-.567.394-.824v.174l-1.172-.915h.128l-.713.558c-.595-.265-.916-.283-.916-.32a.458.458 0 01.247 0c.251.027.497.085.733.174h-.074l.668-.613.065-.055.073.055 1.217.915.091.073-.045.1c-.119.266-.238.532-.366.834v-.156c.218.28.396.587.53.915l-.146-.1.915.064h.147v.146c.073.467.137.96.219 1.483v.155l-.146.055-.851.33.137-.174a4.374 4.374 0 01-.256 1.006v-.22l.585.696.11.128-.1.147-.916 1.199-.109.146-.165-.082-.824-.366h.229a3.767 3.767 0 01-.915.521l.146-.192c0 .293-.055.595-.073.915v.183h-.192l-1.483.202h-.192l-.064-.174-.165-.43-.073-.21-.046-.11v-.056l.193.147a3.544 3.544 0 01-1.007-.266h.247l-.696.586-.146.12-.156-.12-1.189-.915-.147-.119.074-.165.384-.823v.238a3.669 3.669 0 01-.522-.916l.183.138-.915-.083h-.183v-.174a57.188 57.188 0 01-.192-1.491v-.165l.165-.055.851-.311-.138.165c.045-.344.137-.68.275-.998v.201l-.577-.704-.091-.12.091-.109.916-1.19.082-.11.119.064.824.385h-.165c.279-.208.588-.375.915-.494l-.082.11c0-.32.073-.623.1-.916v-.1h.092l1.501-.156h.064v.055c.093.262.163.531.21.805z" fill="#263238"/><path d="M454.406 326.919h.256c.174 0 .43 0 .76-.064a7.844 7.844 0 002.837-.915 7.915 7.915 0 004.045-6.644v-3.661c0-10.414 0-25.762-.046-45.529 0-39.535-.046-96.751-.073-167.475V10.053a9.946 9.946 0 00-.421-3.66 7.742 7.742 0 00-5.207-4.988 13.24 13.24 0 00-3.771-.311H312.327l-304.09.045a7.742 7.742 0 00-7.404 5.4C.32 8.095.513 9.815.476 11.472v306.405a14.94 14.94 0 00.064 2.178 7.66 7.66 0 00.558 2.014 7.784 7.784 0 002.608 3.212 7.598 7.598 0 003.872 1.409c1.39.064 2.846 0 4.255 0H225.58l228.79.165-228.79.165H7.541a8.129 8.129 0 01-6.836-4.878 7.873 7.873 0 01-.595-2.087 14.633 14.633 0 01-.092-2.178V8.946a9.033 9.033 0 01.357-2.554A8.236 8.236 0 018.237.664h444.531c1.31-.073 2.624.05 3.898.366a8.152 8.152 0 015.491 5.207c.378 1.234.524 2.528.431 3.816v92.56c0 70.687-.065 127.903-.083 167.474 0 19.768 0 35.115-.046 45.53v3.66a7.884 7.884 0 01-.75 3.103 8.03 8.03 0 01-3.35 3.587c-.885.489-1.859.8-2.864.915a9.21 9.21 0 01-1.089.037z" fill="#263238"/><path d="M340.184 71.973h-72.426A8.758 8.758 0 00259 80.731v24.957a8.758 8.758 0 008.758 8.758h72.426a8.758 8.758 0 008.758-8.758V80.731a8.758 8.758 0 00-8.758-8.758z" fill="#E0E0E0"/><path d="M283.618 94.075v7.815h-.833v-7.065h-1.83v-.714l2.663-.037zm7.175 5.518c0 1.327-.915 2.37-2.837 2.37a4.027 4.027 0 01-2.8-1.007l.384-.64c.65.611 1.515.94 2.407.915 1.327 0 2.031-.65 2.031-1.592 0-.943-.622-1.638-2.617-1.638h-1.666l.403-3.917h4.283v.74h-3.578l-.266 2.49h1.007c2.352-.036 3.249.897 3.249 2.279zm1.016-1.611c0-2.49 1.309-3.972 3.121-3.972s3.129 1.483 3.129 3.972-1.317 3.981-3.129 3.981-3.121-1.492-3.121-3.98zm5.418 0c0-2.086-.916-3.24-2.297-3.24-1.382 0-2.307 1.154-2.307 3.24 0 2.087.915 3.24 2.307 3.24 1.391 0 2.297-1.153 2.297-3.24zm2.031 0c0-2.49 1.3-3.972 3.112-3.972s3.13 1.483 3.13 3.972-1.318 3.981-3.13 3.981c-1.812 0-3.112-1.492-3.112-3.98zm5.418 0c0-2.086-.915-3.24-2.306-3.24s-2.297 1.154-2.297 3.24c0 2.087.915 3.24 2.297 3.24 1.382 0 2.26-1.153 2.26-3.24h.046zm8.575 1.858h-1.565v2.05h-.805v-2.05h-4.411v-.586l4.145-5.18h.916l-4.036 5.052h3.395v-1.83h.778v1.83h1.565l.018.714zm6.04 1.336v.714H313.8v-.567l3.249-3.185c.915-.915 1.052-1.391 1.052-1.931 0-.915-.631-1.464-1.83-1.464a2.677 2.677 0 00-2.132.915l-.568-.485a3.504 3.504 0 012.746-1.117c1.592 0 2.59.806 2.59 2.105a3.217 3.217 0 01-1.281 2.453l-2.654 2.608 4.319-.046zm.961-3.194c0-2.49 1.309-3.972 3.112-3.972 1.802 0 3.129 1.483 3.129 3.972s-1.317 3.981-3.129 3.981-3.112-1.492-3.112-3.98zm5.418 0c0-2.086-.915-3.24-2.306-3.24s-2.297 1.154-2.297 3.24c0 2.087.915 3.24 2.297 3.24 1.382 0 2.306-1.153 2.306-3.24zM311.796 84.3c0 .129-8.703.238-19.429.238-10.726 0-19.429-.11-19.429-.238s8.694-.237 19.429-.237c10.735 0 19.429.1 19.429.237z" fill="#263238"/><path d="M242.106 72.202H169.68a8.758 8.758 0 00-8.758 8.758v24.957a8.758 8.758 0 008.758 8.758h72.426a8.758 8.758 0 008.758-8.758V80.96a8.758 8.758 0 00-8.758-8.758z" fill="#E0E0E0"/><path d="M194.014 101.661v.714h-5.491v-.567l3.258-3.185c.916-.915 1.044-1.4 1.044-1.931 0-.915-.632-1.464-1.831-1.464a2.642 2.642 0 00-2.132.915l-.567-.494a3.51 3.51 0 012.745-1.117c1.593 0 2.599.805 2.599 2.114a3.206 3.206 0 01-1.29 2.444l-2.654 2.617 4.319-.046zm6.141-1.528c0 1.299-.915 2.306-2.837 2.306a4.042 4.042 0 01-2.818-1.007l.393-.631a3.449 3.449 0 002.425.915c1.291 0 2.014-.604 2.014-1.574 0-.97-.659-1.556-2.114-1.556h-.559v-.595l2.169-2.745h-3.999v-.714h5.024v.567l-2.214 2.746c1.674.146 2.516 1.034 2.516 2.288zm6.324-.055c0 1.327-.915 2.361-2.837 2.361a3.98 3.98 0 01-2.8-1.007l.384-.631a3.415 3.415 0 002.407.915c1.327 0 2.032-.65 2.032-1.602 0-.951-.623-1.629-2.618-1.629h-1.665l.402-3.916h4.283v.713h-3.578l-.238 2.48h1.007c2.324 0 3.221.925 3.221 2.316zm1.016-1.611c0-2.49 1.309-3.98 3.121-3.98s3.129 1.49 3.129 3.98c0 2.489-1.317 3.972-3.129 3.972s-3.121-1.483-3.121-3.972zm5.418 0c0-2.086-.916-3.24-2.297-3.24-1.382 0-2.307 1.154-2.307 3.24 0 2.087.916 3.24 2.307 3.24s2.297-1.153 2.297-3.24zm3.065 3.35a1.82 1.82 0 01-.155.649l-.467 1.538h-.54l.375-1.62a.565.565 0 01-.402-.567.594.594 0 111.189 0zm1.044-3.35c0-2.49 1.299-3.98 3.111-3.98 1.812 0 3.13 1.49 3.13 3.98 0 2.489-1.318 3.972-3.13 3.972-1.812 0-3.111-1.483-3.111-3.972zm5.417 0c0-2.086-.915-3.24-2.306-3.24s-2.297 1.154-2.297 3.24c0 2.087.915 3.24 2.297 3.24 1.382 0 2.306-1.153 2.306-3.24zm1.977 0c0-2.49 1.309-3.98 3.112-3.98 1.803 0 3.13 1.49 3.13 3.98 0 2.489-1.318 3.972-3.13 3.972-1.812 0-3.112-1.483-3.112-3.972zm5.418 0c0-2.086-.915-3.24-2.306-3.24s-2.297 1.154-2.297 3.24c0 2.087.915 3.24 2.297 3.24 1.382 0 2.306-1.153 2.306-3.24zm-17.15-13.041c0 .128-7.88.238-17.599.238-9.719 0-17.598-.11-17.598-.238s7.879-.238 17.598-.238 17.599.1 17.599.238z" fill="#263238"/><path d="M143.681 72.202H71.255a8.758 8.758 0 00-8.758 8.758v24.957a8.758 8.758 0 008.758 8.758h72.426a8.758 8.758 0 008.758-8.758V80.96a8.758 8.758 0 00-8.758-8.758z" fill="#7F5AF0"/><path d="M94.81 101.661v.714h-5.49v-.567l3.249-3.185c.915-.915 1.052-1.4 1.052-1.931 0-.915-.64-1.464-1.83-1.464a2.646 2.646 0 00-2.132.915l-.577-.494a3.515 3.515 0 012.745-1.117c1.584 0 2.59.805 2.59 2.114a3.193 3.193 0 01-1.28 2.444l-2.664 2.617 4.338-.046zm3.177-7.101v7.815h-.806v-7.102h-1.83v-.714h2.636zm1.866 3.907c0-2.49 1.309-3.98 3.121-3.98s3.121 1.49 3.121 3.98c0 2.489-1.318 3.972-3.121 3.972s-3.12-1.483-3.12-3.972zm5.418 0c0-2.086-.915-3.24-2.297-3.24-1.382 0-2.306 1.154-2.306 3.24 0 2.087.915 3.24 2.306 3.24s2.27-1.153 2.27-3.24h.027zm1.977 0c0-2.49 1.309-3.98 3.121-3.98s3.129 1.49 3.129 3.98c0 2.489-1.317 3.972-3.129 3.972s-3.121-1.483-3.121-3.972zm5.418 0c0-2.086-.915-3.24-2.297-3.24-1.382 0-2.307 1.154-2.307 3.24 0 2.087.916 3.24 2.307 3.24s2.297-1.153 2.297-3.24zm3.065 3.35a1.82 1.82 0 01-.155.649l-.467 1.538h-.54l.385-1.62a.556.556 0 01-.403-.567.588.588 0 01.144-.468.59.59 0 01.446-.201.594.594 0 01.59.669zm6.809-3.423c0 2.663-1.455 4.045-3.578 4.045a3.597 3.597 0 01-1.83-.421l.329-.65c.459.27.987.4 1.519.375 1.684 0 2.746-1.089 2.746-3.212V97.9a2.51 2.51 0 01-2.398 1.336 2.369 2.369 0 01-2.636-2.343 2.452 2.452 0 01.808-1.79 2.452 2.452 0 011.865-.617c2.04 0 3.175 1.446 3.175 3.908zm-1.107-1.547c0-.86-.723-1.674-2.068-1.674a1.713 1.713 0 00-1.913 1.693c0 1.034.76 1.693 1.968 1.693a1.831 1.831 0 002.013-1.712zm2.27 1.62c0-2.49 1.299-3.98 3.111-3.98 1.812 0 3.13 1.49 3.13 3.98 0 2.489-1.318 3.972-3.13 3.972-1.812 0-3.111-1.483-3.111-3.972zm5.417 0c0-2.086-.915-3.24-2.306-3.24s-2.297 1.154-2.297 3.24c0 2.087.915 3.24 2.297 3.24 1.382 0 2.306-1.153 2.306-3.24zm-18.44-13.041c0 .128-7.239.238-16.162.238-8.923 0-16.171-.11-16.171-.238s7.239-.238 16.171-.238c8.932 0 16.162.1 16.162.238zm-89.165-48a7.825 7.825 0 01-7.788-7.834 7.825 7.825 0 0115.65 0 7.825 7.825 0 01-7.861 7.834zm60.192 62.221h-4.394v-.93h4.394c.406 0 .74-.07 1.006-.21a1.41 1.41 0 00.591-.584c.13-.248.194-.53.194-.845a1.77 1.77 0 00-.194-.84 1.375 1.375 0 00-.591-.584c-.265-.143-.6-.215-1.006-.215H79.73v7.723h-1.048v-8.653h3.025c.642 0 1.172.117 1.589.351.416.234.726.545.93.934.202.389.303.817.303 1.284 0 .468-.101.896-.304 1.285-.203.388-.513.7-.93.933-.416.234-.946.35-1.588.35zm-.067.811v.93h-4.327v-.93h4.326z" fill="#fff"/><path d="M181.935 99.647h-4.393v-.93h4.393c.406 0 .741-.07 1.006-.21a1.4 1.4 0 00.591-.584c.13-.248.195-.53.195-.845 0-.315-.065-.596-.195-.84a1.37 1.37 0 00-.591-.584c-.265-.143-.6-.215-1.006-.215h-1.977v7.723h-1.048v-8.653h3.025c.643 0 1.172.117 1.589.351.417.234.727.545.929.934.203.389.305.817.305 1.284 0 .468-.102.896-.305 1.285-.202.388-.512.7-.929.933-.417.234-.946.35-1.589.35zm-.067.811v.93h-4.326v-.93h4.326zm93.414-1.31h-4.394v-.93h4.394c.406 0 .741-.07 1.006-.211.264-.144.461-.338.591-.583.13-.248.194-.53.194-.845 0-.316-.064-.596-.194-.84a1.38 1.38 0 00-.591-.584c-.265-.144-.6-.215-1.006-.215h-1.977v7.723h-1.048V94.01h3.025c.642 0 1.172.117 1.589.35.416.235.726.546.929.935.203.388.304.816.304 1.284 0 .468-.101.896-.304 1.284a2.27 2.27 0 01-.929.934c-.417.234-.947.35-1.589.35zm-.068.81v.93h-4.326v-.93h4.326z" fill="#263238"/></g><defs><clipPath id="clip0_582_7387"><path fill="#fff" transform="translate(0 .664)" d="M0 0h462.56v326.512H0z"/></clipPath></defs></svg>