<svg width="505" height="302" fill="none" xmlns="http://www.w3.org/2000/svg"><g clip-path="url(#clip0_582_7599)"><path d="M438.392 39.374a2.765 2.765 0 01-1.053-.212 2.668 2.668 0 01-1.665-2.497v-3.063a.916.916 0 00-.919-.92h-3.447a3.679 3.679 0 01-3.668-3.667V16.088a3.667 3.667 0 013.668-3.668h22.171a3.675 3.675 0 013.668 3.668v12.927a3.673 3.673 0 01-3.668 3.668h-6.919a.92.92 0 00-.652.267l-5.623 5.623a2.674 2.674 0 01-1.893.801zm-7.069-25.18a1.892 1.892 0 00-1.892 1.894v12.927a1.889 1.889 0 001.169 1.744c.229.094.475.142.723.14h3.448a2.7 2.7 0 012.686 2.703v3.063a.918.918 0 001.099.905.921.921 0 00.472-.254l5.623-5.623a2.711 2.711 0 011.909-.785h6.919a1.886 1.886 0 001.885-1.885V16.088a1.89 1.89 0 00-1.885-1.893h-22.156z" fill="#ECF1F7"/><path d="M448.979 24.845a2.18 2.18 0 01-2.024-1.345 2.185 2.185 0 012.855-2.854 2.182 2.182 0 01.705 3.56c-.408.407-.96.637-1.536.639zm0-3.464a1.289 1.289 0 101.192.794 1.29 1.29 0 00-1.192-.794zm-6.59 3.809a2.18 2.18 0 01-2.018-1.35 2.182 2.182 0 011.597-2.975 2.182 2.182 0 012.605 2.15 2.173 2.173 0 01-1.349 2.012 2.172 2.172 0 01-.835.163zm0-3.463a1.288 1.288 0 10.001 2.576 1.288 1.288 0 00-.001-2.576zm-6.236 3.463a2.186 2.186 0 01-2.023-1.344 2.185 2.185 0 011.591-2.98 2.186 2.186 0 012.243.933 2.19 2.19 0 01-.272 2.754 2.177 2.177 0 01-1.539.637zm0-3.463a1.287 1.287 0 10.032 2.574 1.287 1.287 0 00-.032-2.574zM43.981 141.458l-5.647-5.584a.908.908 0 00-.652-.267h-6.919a3.673 3.673 0 01-3.668-3.668v-12.966a3.669 3.669 0 013.668-3.668h22.171a3.676 3.676 0 013.668 3.668V131.9a3.675 3.675 0 01-3.667 3.668h-3.456a.92.92 0 00-.92.919v3.063a2.652 2.652 0 01-1.664 2.497c-.33.139-.686.211-1.045.212a2.66 2.66 0 01-1.869-.801zm-13.194-24.347a1.893 1.893 0 00-1.893 1.893v12.927a1.89 1.89 0 00.555 1.336 1.883 1.883 0 001.338.549h6.911c.715.002 1.4.284 1.909.786l5.623 5.623a.915.915 0 001.004.201.92.92 0 00.567-.853v-3.063a2.694 2.694 0 01.774-1.917 2.692 2.692 0 011.904-.808h3.456a1.887 1.887 0 001.884-1.885v-12.927a1.893 1.893 0 00-1.885-1.893l-22.147.031z" fill="#ECF1F7"/><path d="M33.088 125.554a2.173 2.173 0 011.343-2.01 2.179 2.179 0 012.842 2.843 2.177 2.177 0 01-2.01 1.343 2.182 2.182 0 01-2.175-2.176zm.887 0a1.29 1.29 0 002.2.911 1.289 1.289 0 00-.912-2.199 1.296 1.296 0 00-1.288 1.288zm5.695.346a2.182 2.182 0 114.364-.016 2.182 2.182 0 01-4.365.016zm.887 0a1.289 1.289 0 101.288-1.288 1.296 1.296 0 00-1.288 1.288zm5.348 0a2.183 2.183 0 112.184 2.175 2.188 2.188 0 01-2.184-2.175zm.896 0a1.289 1.289 0 102.577-.002 1.289 1.289 0 00-2.577.002z" fill="#ECF1F7"/><path d="M401.047 130.612h-6.103c-.594 0-1.076.482-1.076 1.076v13.171c0 .594.482 1.076 1.076 1.076h6.103c.594 0 1.076-.482 1.076-1.076v-13.171c0-.594-.482-1.076-1.076-1.076zm3.424.181a.184.184 0 01.104-.172.184.184 0 01.069-.017c.848 0 4.539-.4 4.539-3.534v-7.163a2.013 2.013 0 012.324-1.982c.384.061.741.231 1.03.49 1.312 1.209 2.513 3.927 2.545 9.652a.175.175 0 00.05.133.178.178 0 00.13.056h9.48a3.535 3.535 0 013.526 3.495c.071 5.152-.895 14.184-8.474 14.184H404.66a.17.17 0 01-.071-.015.187.187 0 01-.099-.102.194.194 0 01-.011-.072l-.008-14.953z" stroke="#FEFEFE" stroke-miterlimit="10"/><path d="M487.415 68.158h-2.937c-.594 0-1.076.482-1.076 1.076v7.289c0 .594.482 1.076 1.076 1.076h2.937c.594 0 1.076-.482 1.076-1.076v-7.289c0-.594-.482-1.076-1.076-1.076zm2.529.11a.098.098 0 01.006-.041.1.1 0 01.096-.069c.526 0 2.796-.25 2.796-2.175v-4.414a1.247 1.247 0 01.735-1.14 1.24 1.24 0 011.339.213c.785.786 1.57 2.404 1.57 5.954 0 .029.012.057.033.077a.11.11 0 00.077.032h5.844a2.183 2.183 0 012.175 2.16c0 3.142-.55 8.742-5.223 8.742h-9.314a.12.12 0 01-.079-.038.12.12 0 01-.031-.08l-.024-9.22zM4.406 235.445H1.469c-.595 0-1.076.481-1.076 1.076v7.288c0 .594.481 1.076 1.076 1.076h2.937c.594 0 1.076-.482 1.076-1.076v-7.288c0-.595-.482-1.076-1.076-1.076zm2.521.11a.11.11 0 01.032-.078.108.108 0 01.078-.032c.526 0 2.796-.252 2.796-2.176v-4.414a1.245 1.245 0 01.734-1.139 1.241 1.241 0 011.34.212c.785.786 1.57 2.404 1.57 5.954 0 .014.003.028.008.042a.11.11 0 00.024.035c.01.011.023.019.036.024a.102.102 0 00.042.009h5.843a2.18 2.18 0 012.176 2.159c.039 3.142-.55 8.742-5.223 8.742H7.068a.119.119 0 01-.117-.118l-.024-9.22zM33.465 24.962h-2.937c-.595 0-1.076.482-1.076 1.076v7.289c0 .594.481 1.076 1.076 1.076h2.937c.594 0 1.076-.482 1.076-1.076v-7.288c0-.595-.482-1.077-1.076-1.077zm2.521.111a.11.11 0 01.11-.11c.526 0 2.796-.252 2.796-2.176v-4.414a1.24 1.24 0 012.073-.927c.786.747 1.571 2.404 1.571 5.954a.11.11 0 00.11.11h5.843a2.183 2.183 0 012.176 2.16c0 3.14-.55 8.74-5.223 8.74h-9.315a.118.118 0 01-.117-.117l-.024-9.22zm447.502 222.938h-2.937c-.594 0-1.076.481-1.076 1.076v7.288c0 .594.482 1.076 1.076 1.076h2.937c.595 0 1.076-.482 1.076-1.076v-7.288c0-.595-.481-1.076-1.076-1.076zm2.529.11a.11.11 0 01.027-.078.106.106 0 01.075-.032c.527 0 2.796-.252 2.796-2.176v-4.414a1.245 1.245 0 011.436-1.232c.238.038.459.144.638.306.785.785 1.571 2.403 1.571 5.953a.11.11 0 00.11.11h5.843a2.184 2.184 0 012.175 2.16c0 3.141-.549 8.741-5.222 8.741h-9.315a.115.115 0 01-.078-.037.117.117 0 01-.032-.081l-.024-9.22z" stroke="#ECF1F7" stroke-miterlimit="10"/><path d="M92.392 225.643H86.29c-.595 0-1.076.482-1.076 1.076v13.171c0 .594.481 1.076 1.076 1.076h6.102c.594 0 1.076-.482 1.076-1.076v-13.171c0-.594-.482-1.076-1.076-1.076zm3.424.181a.182.182 0 01.173-.189c.848-.039 4.54-.4 4.54-3.534v-7.163a2.003 2.003 0 013.353-1.492c1.312 1.21 2.513 3.927 2.545 9.652a.177.177 0 00.05.133.178.178 0 00.13.056h9.48a3.535 3.535 0 013.526 3.495c.071 5.152-.895 14.184-8.474 14.184H96.005a.174.174 0 01-.071-.015.168.168 0 01-.06-.041.18.18 0 01-.05-.133l-.008-14.953zm293.529-33.096a3.976 3.976 0 013.644-2.411 4.162 4.162 0 013.974 4.021 3.916 3.916 0 01-.126 1.523 6.67 6.67 0 01-2.097 3.417l-4.523 3.927a1.316 1.316 0 01-1.736 0l-4.43-3.927a6.682 6.682 0 01-2.097-3.417 4.015 4.015 0 01-.133-1.523c.204-2.191 1.783-4.021 3.974-4.021a3.831 3.831 0 013.55 2.411v0zM122.315 83.56a3.984 3.984 0 013.644-2.411 4.165 4.165 0 013.974 4.02 3.92 3.92 0 01-.125 1.525 6.682 6.682 0 01-2.097 3.416l-4.524 3.927a1.312 1.312 0 01-1.736 0l-4.429-3.927a6.67 6.67 0 01-2.097-3.416 4.02 4.02 0 01-.134-1.524c.204-2.191 1.783-4.021 3.974-4.021a3.83 3.83 0 013.55 2.41v0z" stroke="#FEFEFE" stroke-miterlimit="10"/><path opacity=".58" d="M284.198 31.293a1.413 1.413 0 11-2.762-.598 1.413 1.413 0 012.762.598z" fill="#3E479B"/><path d="M347.468 43.906h43.699a5.334 5.334 0 015.333 5.333v43.698a5.333 5.333 0 01-5.333 5.333h-35.138a2.93 2.93 0 00-1.964.785l-7.068 6.401a2.928 2.928 0 01-4.893-2.167v-54.05a5.332 5.332 0 015.364-5.333z" fill="#EF929C"/><path opacity=".11" d="M347.217 43.835h43.675a5.334 5.334 0 015.333 5.333v43.675a5.333 5.333 0 01-5.333 5.333h-35.115a2.914 2.914 0 00-1.971.785l-7.029 6.393a2.928 2.928 0 01-4.893-2.168V49.168a5.333 5.333 0 015.333-5.333z" fill="#373449"/><path d="M349.329 43.835h39.434a4.816 4.816 0 014.815 4.815v39.457a4.814 4.814 0 01-4.815 4.814h-31.729c-.657 0-1.291.247-1.775.692l-6.354 5.772a2.645 2.645 0 01-3.99-.516 2.64 2.64 0 01-.431-1.44V48.65a4.813 4.813 0 014.845-4.814z" fill="#EF929C"/><path d="M369.577 67.79a3.962 3.962 0 013.644-2.412c2.191 0 3.77 1.83 3.966 4.021a3.92 3.92 0 01-.126 1.524 6.67 6.67 0 01-2.097 3.416l-4.516 3.927a1.327 1.327 0 01-1.735 0l-4.438-3.927a6.682 6.682 0 01-2.097-3.416 3.92 3.92 0 01-.125-1.524c.196-2.19 1.775-4.02 3.974-4.02a3.847 3.847 0 013.55 2.41z" fill="#fff"/><path opacity=".22" d="M377.061 70.923a6.669 6.669 0 01-2.097 3.416l-4.516 3.927a1.326 1.326 0 01-1.735 0l-4.438-3.927a6.682 6.682 0 01-2.097-3.416c-.11-.448 3.432 2.812 6.197.785 4.626-3.51 8.812-1.311 8.686-.785z" fill="#EF929C"/><path d="M369.624 84.487a13.214 13.214 0 01-12.21-8.15 13.209 13.209 0 1125.412-5.06 13.224 13.224 0 01-13.202 13.21zm0-25.25a12.048 12.048 0 1012.071 12.04 12.05 12.05 0 00-3.542-8.52 12.052 12.052 0 00-8.529-3.52z" fill="#fff"/><path opacity=".89" d="M189.795 63.619a1.268 1.268 0 01-1.168-.78 1.256 1.256 0 01-.096-.484V54.28a1.256 1.256 0 01.37-.894 1.265 1.265 0 012.158.894v8.097a1.265 1.265 0 01-1.264 1.241zM328.941 98.05a1.265 1.265 0 01-1.264-1.264V78.062a1.265 1.265 0 112.528 0v18.724a1.265 1.265 0 01-1.264 1.264zm-139.146 0a1.268 1.268 0 01-1.168-.78 1.255 1.255 0 01-.096-.484V78.062a1.256 1.256 0 01.37-.894 1.261 1.261 0 011.788 0c.237.237.37.559.37.894v18.724a1.265 1.265 0 01-1.264 1.264zm0 25.297a1.278 1.278 0 01-.894-.37 1.256 1.256 0 01-.37-.894v-18.724a1.259 1.259 0 01.78-1.168 1.265 1.265 0 011.748 1.168v18.724a1.259 1.259 0 01-.78 1.168 1.278 1.278 0 01-.484.096z" fill="#4C65BA"/><path d="M311.482 15.57H207.003c-9.643 0-17.459 7.816-17.459 17.458v250.71c0 9.642 7.816 17.459 17.459 17.459h104.479c9.642 0 17.459-7.817 17.459-17.459V33.028c0-9.642-7.817-17.459-17.459-17.459z" fill="#3E479B"/><path opacity=".21" d="M308.419 298.888h-98.353c-9.079 0-16.431-7.673-16.431-17.137V35.604c0-9.424 7.352-17.137 16.431-17.137h98.353c9.071 0 16.43 7.674 16.43 17.137v246.147c0 9.464-7.359 17.137-16.43 17.137z" fill="#7F5AF0"/><path d="M320.718 50.487H197.767v217.575h122.951V50.487z" fill="#fff"/><path opacity=".47" d="M315.33 56.401H205.377v203.414H315.33V56.401z" fill="#ECF1F7"/><path d="M259.238 293.359a8.852 8.852 0 100-17.704 8.852 8.852 0 000 17.704z" fill="#3E479B"/><path d="M239.635 34.56a2.275 2.275 0 01-3.885 1.621 2.285 2.285 0 01-.626-1.166 2.283 2.283 0 01.968-2.34 2.274 2.274 0 012.873.28c.427.425.668 1.002.67 1.605zm21.111-7.351a1.523 1.523 0 11-3.046.019 1.523 1.523 0 013.046-.02zm10.132 8.607h-23.271a1.011 1.011 0 01-.998-1.013 1.015 1.015 0 01.998-1.028h23.271a1.013 1.013 0 011.013 1.013 1.015 1.015 0 01-1.013 1.029z" fill="#3E479B" opacity=".89"/><path d="M306.055 65.88h-151.83a4.272 4.272 0 00-4.272 4.273V116.5a4.272 4.272 0 004.272 4.272h151.83a4.272 4.272 0 004.272-4.272V70.153a4.272 4.272 0 00-4.272-4.272z" fill="#599AF2"/><path opacity=".07" d="M301.775 116.876H154.759a4.065 4.065 0 01-2.889-1.132 4.062 4.062 0 01-1.242-2.842V69.8a4.056 4.056 0 012.574-3.696 4.055 4.055 0 011.557-.278h147.016a4.055 4.055 0 014.131 3.974v43.102a4.059 4.059 0 01-4.131 3.974z" fill="#373449"/><g opacity=".87"><path d="M232.614 88.154l.691 1.406a.533.533 0 00.416.299l1.571.227a.551.551 0 01.306.943l-1.123 1.092a.554.554 0 00-.157.486l.267 1.571a.55.55 0 01-.785.581l-1.39-.722a.537.537 0 00-.511 0l-1.382.722a.551.551 0 01-.752-.286.541.541 0 01-.033-.295l.259-1.57a.535.535 0 00-.157-.487l-1.116-1.092a.554.554 0 01-.143-.568.547.547 0 01.45-.375l1.57-.227a.556.556 0 00.307-.322l.691-1.406a.546.546 0 01.518-.335.554.554 0 01.503.358zm8.679 0l.691 1.406a.529.529 0 00.416.298l1.571.228a.555.555 0 01.445.375.555.555 0 01-.131.568l-1.123 1.092a.556.556 0 00-.157.486l.259 1.571a.552.552 0 01-.786.581l-1.382-.722a.533.533 0 00-.51 0l-1.383.722a.556.556 0 01-.785-.58l.267-1.572a.556.556 0 00-.157-.486l-1.123-1.092a.552.552 0 01-.134-.565.557.557 0 01.44-.378l1.571-.227a.533.533 0 00.416-.299l.691-1.406a.565.565 0 01.452-.23.554.554 0 01.452.23zm8.67 0l.691 1.406a.555.555 0 00.416.299l1.571.227a.55.55 0 01.307.943l-1.116 1.092a.535.535 0 00-.157.487l.259 1.57a.551.551 0 01-.493.636.551.551 0 01-.292-.055l-1.382-.722a.551.551 0 00-.519 0l-1.382.722a.548.548 0 01-.752-.286.551.551 0 01-.033-.295l.267-1.57a.556.556 0 00-.157-.487l-1.123-1.092a.547.547 0 01.027-.82.55.55 0 01.279-.123l1.571-.227a.538.538 0 00.416-.299l.691-1.406a.544.544 0 01.456-.242.548.548 0 01.455.242zm8.679 0l.691 1.406a.529.529 0 00.416.298l1.571.228a.548.548 0 01.459.68.545.545 0 01-.153.263l-1.115 1.092a.541.541 0 00-.165.486l.267 1.571a.552.552 0 01-.786.581l-1.382-.722a.551.551 0 00-.518 0l-1.382.722a.553.553 0 01-.57-.051.55.55 0 01-.216-.53l.267-1.57a.549.549 0 00-.165-.487l-1.115-1.092a.545.545 0 01-.143-.568.547.547 0 01.449-.375l1.571-.227a.529.529 0 00.416-.299l.691-1.406a.56.56 0 01.456-.242.551.551 0 01.456.242z" fill="#fff"/><path opacity=".36" d="M267.32 88.154l.691 1.406a.533.533 0 00.416.299l1.571.227a.55.55 0 01.306.943l-1.123 1.092a.554.554 0 00-.157.486l.267 1.571a.551.551 0 01-.493.636.548.548 0 01-.292-.055l-1.382-.722a.552.552 0 00-.519 0l-1.382.722a.551.551 0 01-.785-.58l.259-1.572a.535.535 0 00-.157-.486l-1.116-1.092a.553.553 0 01-.143-.568.547.547 0 01.45-.375l1.571-.227a.556.556 0 00.416-.299l.691-1.406a.544.544 0 01.455-.242.548.548 0 01.456.242z" fill="#4C65BA"/></g><path opacity=".84" d="M290.881 71.67h-62.453v4.625h62.453v-4.626z" fill="#fff"/><path opacity=".36" d="M259.655 78.604h-31.227v3.471h31.227v-3.471zm31.226 21.975h-62.453v1.154h62.453v-1.154zm0 4.626h-62.453v1.154h62.453v-1.154zm0 4.626h-62.453v1.154h62.453v-1.154zm0 4.626h-62.453v1.154h62.453v-1.154z" fill="#4C65BA"/><path d="M182.271 115.611c14.635 0 26.499-11.864 26.499-26.499 0-14.634-11.864-26.498-26.499-26.498-14.635 0-26.499 11.864-26.499 26.498 0 14.635 11.864 26.499 26.499 26.499z" fill="#fff"/><path d="M182.271 118.439c16.066 0 29.091-13.025 29.091-29.09 0-16.067-13.025-29.091-29.091-29.091-16.066 0-29.09 13.024-29.09 29.09 0 16.066 13.024 29.091 29.09 29.091z" stroke="#fff" stroke-miterlimit="10"/><path d="M172.462 116.656h19.634a16.694 16.694 0 0016.697-16.698 12.294 12.294 0 00-12.291-12.283h-28.431a12.282 12.282 0 00-12.283 12.284 16.689 16.689 0 0016.674 16.697z" fill="#EF929C"/><path d="M177.708 48.846c4.775-.133 6.071-1.272 7.909-2.09 1.838-.816 1.814-5.143 6.746-4.209 4.932.935 2.545 5.953 2.545 5.953 2.065-1.79 6.55-4.256 9.833-.612 3.283 3.644-2.356 8.325-2.356 8.325s.785 1.201.282 5.01c-.502 3.81-3.015 4.265-3.015 4.265l-24.308 2.207a3.087 3.087 0 01-3.181-2.034l-1.201-3.707c-2.035-8.129 1.979-12.974 6.746-13.108z" fill="#373449"/><path d="M174.676 63.43l-.078-1.94a.66.66 0 010-.125h.063c.115.008.23.008.345 0 .723 1.853 9.472 2.246 9.472-3.793 0-.055 10.83 0 13.728-.84h.142a5.542 5.542 0 011.696 3.745l.574 13.957c.282 6.919 1.405 12-11.781 11.78l-.189 4.108c.511 4.783-2.356 9.008-6.369 9.33-3.723.307-7.069-2.906-7.713-7.343l-.212-20.506a4.25 4.25 0 01.362-8.372h-.04z" fill="#F9DCD2"/><path d="M195.057 65.26c.315.11.653.138.982.079.353 0 .707-.047 1.013-.047h1.005c.33.055.669.022.982-.094.267-.134.369-.519.063-.99a2.696 2.696 0 00-4.131 0c-.299.534-.197.919.086 1.052zm-9.786.362c.305.138.641.195.974.165h1.006c.306 0 .659.062 1.005.117.328.113.68.138 1.021.071.275-.11.416-.487.141-.982a2.672 2.672 0 00-1.976-1.129 2.68 2.68 0 00-2.131.8c-.377.416-.299.808-.04.958z" fill="#373449"/><path d="M191.193 73.428l1.649-.133a2.946 2.946 0 002.686-3.142 1.343 1.343 0 00-.936-1.174 1.347 1.347 0 00-.524-.059 1.702 1.702 0 01-1.838-1.57l-.189-2.254a.298.298 0 00-.33-.283.305.305 0 00-.274.33l.18 2.254a2.356 2.356 0 002.506 2.128.73.73 0 01.785.668 2.354 2.354 0 01-2.121 2.505l-1.649.134a.322.322 0 00-.283.33.308.308 0 00.338.266z" fill="#EF929C"/><path d="M197.5 69.8a.647.647 0 00.62-.66l-.047-1.28a.65.65 0 00-.667-.62.644.644 0 00-.613.667l.047 1.28a.645.645 0 00.414.573.64.64 0 00.246.04zm-9.582.345a.652.652 0 00.62-.667l-.047-1.272a.64.64 0 00-.909-.563.636.636 0 00-.371.602l.047 1.28a.642.642 0 00.66.62z" fill="#33322F"/><path d="M201.914 81.95a3.14 3.14 0 00-.511-1.783 4.477 4.477 0 01-.628-2.356v-.338h-.079a1.644 1.644 0 00-.495-1.516c-1.154-.871-3.526-1.995-8.183-1.657-7.988.59-9.558 6.142-11.64 2.835-1.57-2.481-2.426-10.21-2.756-13.909a3.677 3.677 0 00-2.019-2.953l-1.57-.785s-.189-1.68.675 12.747c.66 11.144 3.825 16.87 11.898 17.686 1.546.174 3.062.552 4.509 1.123a3.142 3.142 0 001.971.086 4.218 4.218 0 012.474 0c.853.28 1.767.316 2.639.103a4.714 4.714 0 003.408-3.244 4.851 4.851 0 000-2.882 2.708 2.708 0 01.095-1.971 3.29 3.29 0 00.212-1.186z" fill="#373449"/><path d="M191.931 80.701h3v-3.597h-6.283v.299a3.3 3.3 0 003.283 3.298z" fill="#fff"/><path d="M369.561 131.539h-151.83a4.273 4.273 0 00-4.273 4.272v46.346a4.273 4.273 0 004.273 4.272h151.83a4.272 4.272 0 004.272-4.272v-46.346a4.272 4.272 0 00-4.272-4.272z" fill="#599AF2"/><path opacity=".07" d="M364.605 182.848H217.59a4.04 4.04 0 01-1.557-.279 4.05 4.05 0 01-2.575-3.695v-43.102a4.073 4.073 0 011.243-2.843 4.042 4.042 0 012.889-1.131h147.015a4.045 4.045 0 012.889 1.131 4.042 4.042 0 011.242 2.843v43.102a4.062 4.062 0 01-4.131 3.974z" fill="#373449"/><g opacity=".87"><path d="M233.768 152.925l.692 1.398a.56.56 0 00.416.306l1.571.22a.554.554 0 01.447.38.555.555 0 01-.141.57l-1.139 1.084a.561.561 0 00-.165.495l.267 1.57a.554.554 0 01-.215.53.556.556 0 01-.57.052l-1.382-.731a.6.6 0 00-.519 0l-1.382.731a.557.557 0 01-.57-.052.55.55 0 01-.215-.53l.267-1.57a.59.59 0 00-.165-.495l-1.116-1.084a.555.555 0 01-.141-.57.558.558 0 01.448-.38l1.57-.22a.564.564 0 00.417-.306l.691-1.398a.546.546 0 01.934 0zm8.679 0l.691 1.398a.57.57 0 00.17.204.569.569 0 00.246.102l1.571.22a.553.553 0 01.447.38.555.555 0 01-.141.57l-1.178 1.084a.59.59 0 00-.157.495l.267 1.571a.552.552 0 01-.215.529.556.556 0 01-.57.052l-1.382-.731a.6.6 0 00-.519 0l-1.382.731a.557.557 0 01-.57-.052.55.55 0 01-.215-.529l.259-1.571a.56.56 0 00-.157-.495l-1.116-1.084a.555.555 0 01-.141-.57.558.558 0 01.448-.38l1.57-.22a.585.585 0 00.417-.306l.691-1.398a.544.544 0 01.483-.288.546.546 0 01.483.288zm8.678 0l.691 1.398a.562.562 0 00.417.306l1.57.22a.561.561 0 01.439.383.564.564 0 01-.132.567l-1.123 1.084a.577.577 0 00-.157.495l.259 1.57a.555.555 0 01-.216.53.549.549 0 01-.57.052l-1.382-.731a.578.578 0 00-.51 0l-1.383.731a.559.559 0 01-.785-.582l.267-1.57a.585.585 0 00-.157-.495l-1.123-1.084a.559.559 0 01-.132-.567.558.558 0 01.438-.383l1.571-.22a.56.56 0 00.416-.306l.691-1.398a.564.564 0 01.456-.236.556.556 0 01.455.236zm8.671 0l.691 1.398a.598.598 0 00.416.306l1.571.22a.553.553 0 01.448.38.564.564 0 01-.142.57l-1.115 1.084a.554.554 0 00-.157.495l.259 1.57a.554.554 0 01-.215.53.556.556 0 01-.57.052l-1.382-.731a.6.6 0 00-.519 0l-1.382.731a.557.557 0 01-.57-.052.55.55 0 01-.215-.53l.267-1.57a.587.587 0 00-.157-.495l-1.124-1.084a.555.555 0 01-.141-.57.558.558 0 01.448-.38l1.571-.22a.565.565 0 00.416-.306l.691-1.398a.547.547 0 01.911 0z" fill="#fff"/><path opacity=".36" d="M268.474 152.925l.692 1.398a.56.56 0 00.416.306l1.571.22a.554.554 0 01.447.38.557.557 0 01-.141.57l-1.115 1.084a.55.55 0 00-.165.495l.267 1.57a.555.555 0 01-.216.53.549.549 0 01-.57.052l-1.382-.731a.595.595 0 00-.518 0l-1.383.731a.553.553 0 01-.569-.052.55.55 0 01-.216-.53l.267-1.57a.554.554 0 00-.165-.495l-1.115-1.084a.557.557 0 01.306-.95l1.571-.22a.56.56 0 00.416-.306l.691-1.398a.554.554 0 01.456-.242.554.554 0 01.455.242z" fill="#4C65BA"/><path d="M267.98 158.705a.604.604 0 00-.26.063l-1.382.73a.544.544 0 01-.57-.051.548.548 0 01-.215-.53l.267-1.571a.551.551 0 00-.165-.494l-1.115-1.084a.558.558 0 01.306-.951l1.571-.22a.554.554 0 00.416-.306l.691-1.398a.55.55 0 01.495-.306s-.032 6.118-.039 6.118z" fill="#fff"/></g><path opacity=".84" d="M292.036 136.432h-62.453v4.626h62.453v-4.626z" fill="#fff"/><path opacity=".36" d="M260.809 143.374h-31.226v3.472h31.226v-3.472zm31.227 21.968h-62.453v1.154h62.453v-1.154zm0 4.633h-62.453v1.155h62.453v-1.155zm0 4.626h-62.453v1.155h62.453v-1.155zm0 4.626h-62.453v1.155h62.453v-1.155z" fill="#4C65BA"/><path d="M360.605 173.78c10.349-10.349 10.349-27.127 0-37.475-10.348-10.349-27.126-10.349-37.474 0-10.349 10.348-10.349 27.126 0 37.475 10.348 10.348 27.126 10.348 37.474 0z" fill="#fff"/><path d="M341.869 185.204c16.517 0 29.907-13.39 29.907-29.908 0-16.517-13.39-29.907-29.907-29.907-16.518 0-29.908 13.39-29.908 29.907 0 16.518 13.39 29.908 29.908 29.908z" stroke="#fff" stroke-miterlimit="10"/><path d="M352.927 182.573h-19.996a14.287 14.287 0 01-14.294-14.286 9.89 9.89 0 019.888-9.88h28.823a9.88 9.88 0 019.88 9.88 14.274 14.274 0 01-14.301 14.286z" fill="#EF929C"/><path d="M355.361 147.011c9.001-14.137-3.259-31.934-16.367-31.934a19.64 19.64 0 00-10.611 3.102 66.252 66.252 0 00-1.649-.251 5.594 5.594 0 00-4.375 1.398 5.233 5.233 0 00-1.24 6.44c.218.468.507.9.856 1.28a14.184 14.184 0 00-.165 5.215c1.484 9.896 10.139 20.106 21.315 20.106a7.996 7.996 0 0011.092 8.664 7.993 7.993 0 001.144-14.028v.008z" fill="#373449"/><path d="M350.798 135.607h-.722l-.04 5.184c-5.757-.44-5.686-9.983-5.497-12.975-5.105 2.537-11.907 4.469-18.849 1.406a10.608 10.608 0 00-.15 1.743v14.216a10.778 10.778 0 003.159 7.625 10.787 10.787 0 007.625 3.158h.086l.094 7.398a5.176 5.176 0 1010.32-.141l-.141-10.446a10.742 10.742 0 003.141-7.594v-1.83h.982c1.571 0 2.906-1.728 2.906-3.872s-1.304-3.872-2.914-3.872z" fill="#F9DCD2"/><path opacity=".32" d="M339.701 155.933l7.068 2.646-.078-5.788a10.771 10.771 0 01-6.99 3.142z" fill="#EF929C"/><path d="M352.55 142.942a1.385 1.385 0 01-1.774 1.093 1.384 1.384 0 01-.842-1.905 1.382 1.382 0 011.257-.798c.393.036.755.225 1.009.527.255.301.38.69.35 1.083z" fill="#EF929C"/><path opacity=".32" d="M329.075 144.38h-2.145a1.308 1.308 0 01-1.225-1.367 1.294 1.294 0 011.225-1.359h2.145a1.288 1.288 0 01.898.424 1.298 1.298 0 01.335.935 1.307 1.307 0 01-1.233 1.367zm12.856 0h-2.152a1.312 1.312 0 01-.894-.431 1.308 1.308 0 01-.331-.936 1.294 1.294 0 011.225-1.359h2.152a1.3 1.3 0 011.225 1.359 1.3 1.3 0 01-1.225 1.367z" fill="#EF929C"/><path d="M333.316 143.453h2.403a.37.37 0 00.226-.607.364.364 0 00-.226-.123h-2.403l-.338-.338.283.228a4.616 4.616 0 001.029-2.906v-2.262a.366.366 0 00-.106-.256.364.364 0 00-.617.256v2.293a3.924 3.924 0 01-.872 2.45.79.79 0 00-.112.85.783.783 0 00.733.446v-.031z" fill="#EF929C"/><path d="M328.965 140.202a.695.695 0 01-.493-.178.696.696 0 01-.222-.474v-1.32a.691.691 0 01.715-.66.695.695 0 01.49.184.694.694 0 01.217.476v1.304a.68.68 0 01-.707.668zm1.335-5.113a2.353 2.353 0 01-.888.298l-.95.212-.958.275a2.23 2.23 0 01-.927.165c-.267 0-.448-.306-.251-.746a2.624 2.624 0 011.735-1.241 2.56 2.56 0 012.09.251c.4.252.369.581.149.786zm9.322 5.113a.682.682 0 01-.707-.652v-1.32a.687.687 0 01.444-.617.692.692 0 01.263-.043.696.696 0 01.715.66v1.304a.672.672 0 01-.447.626.682.682 0 01-.268.042zm2.584-4.132a2.147 2.147 0 01-.919-.204 17.62 17.62 0 00-.911-.314 15.635 15.635 0 00-.934-.251 2.363 2.363 0 01-.88-.338c-.212-.181-.22-.503.173-.785a2.599 2.599 0 012.128-.157 2.533 2.533 0 011.649 1.303c.165.464-.031.723-.306.746z" fill="#373449"/><path d="M336.206 148.935h-3.008v-3.597h6.283v.306a3.294 3.294 0 01-.961 2.319 3.294 3.294 0 01-2.314.972z" fill="#fff"/><path d="M303.903 197.197h-151.83a4.272 4.272 0 00-4.272 4.272v46.345a4.273 4.273 0 004.272 4.273h151.83a4.273 4.273 0 004.273-4.273v-46.345a4.272 4.272 0 00-4.273-4.272z" fill="#599AF2"/><path opacity=".07" d="M299.419 248.034H152.403a4.045 4.045 0 01-2.889-1.131 4.058 4.058 0 01-1.242-2.843v-43.101a4.045 4.045 0 011.242-2.843 4.053 4.053 0 012.889-1.131h147.016a4.037 4.037 0 012.888 1.131 4.042 4.042 0 011.243 2.843v43.101a4.058 4.058 0 01-4.131 3.974z" fill="#373449"/><path d="M233.769 218.85l.691 1.397a.562.562 0 00.416.307l1.571.22a.558.558 0 01.279.122.555.555 0 01.18.557.545.545 0 01-.153.263l-1.139 1.092a.549.549 0 00-.165.487l.267 1.571a.558.558 0 01-.785.589l-1.382-.731a.559.559 0 00-.519 0l-1.382.731a.553.553 0 01-.568-.061.55.55 0 01-.217-.528l.267-1.571a.569.569 0 00-.165-.487l-1.115-1.092a.546.546 0 01.027-.82.554.554 0 01.279-.122l1.571-.22a.56.56 0 00.416-.307l.691-1.397a.546.546 0 01.935 0zm8.678 0l.691 1.397a.565.565 0 00.416.307l1.571.22a.554.554 0 01.45.375.551.551 0 01-.143.567l-1.179 1.092a.565.565 0 00-.157.487l.267 1.571a.558.558 0 01-.785.589l-1.382-.731a.559.559 0 00-.519 0l-1.35.683a.559.559 0 01-.786-.589l.259-1.57a.545.545 0 00-.157-.487l-1.115-1.092a.545.545 0 01-.143-.568.552.552 0 01.449-.374l1.571-.22a.578.578 0 00.416-.307l.691-1.398a.551.551 0 01.935.048zm8.679-.001l.691 1.398a.562.562 0 00.416.307l1.571.22a.55.55 0 01.44.378.55.55 0 01-.134.564l-1.123 1.092a.56.56 0 00-.157.487l.259 1.571a.558.558 0 01-.785.589l-1.383-.731a.54.54 0 00-.51 0l-1.445.683a.559.559 0 01-.786-.589l.267-1.57a.572.572 0 00-.157-.487l-1.123-1.092a.563.563 0 01-.134-.565.562.562 0 01.441-.377l1.57-.22a.564.564 0 00.417-.307l.691-1.398a.554.554 0 01.501-.263.556.556 0 01.473.31zm8.67.001l.691 1.397a.592.592 0 00.416.307l1.571.22a.554.554 0 01.45.375.551.551 0 01-.143.567l-1.116 1.092a.54.54 0 00-.157.487l.259 1.571a.558.558 0 01-.785.589l-1.382-.731a.559.559 0 00-.519 0l-1.382.731a.553.553 0 01-.568-.061.55.55 0 01-.217-.528l.267-1.571a.565.565 0 00-.157-.487l-1.123-1.092a.546.546 0 01.027-.82.554.554 0 01.279-.122l1.571-.22a.56.56 0 00.416-.307l.691-1.397a.55.55 0 01.911 0zm8.679 0l.691 1.397a.562.562 0 00.416.307l1.571.22a.551.551 0 01.306.942l-1.115 1.092a.549.549 0 00-.165.487l.267 1.571a.556.556 0 01-.786.589l-1.382-.731a.559.559 0 00-.518 0l-1.382.731a.558.558 0 01-.786-.589l.267-1.571a.55.55 0 00-.165-.487l-1.115-1.092a.545.545 0 01-.143-.567.55.55 0 01.449-.375l1.571-.22a.562.562 0 00.416-.307l.691-1.397a.554.554 0 01.456-.242.554.554 0 01.456.242z" opacity=".87" fill="#fff"/><path opacity=".84" d="M292.036 202.357h-62.453v4.625h62.453v-4.625z" fill="#fff"/><path opacity=".36" d="M260.809 209.292h-31.226v3.471h31.226v-3.471zm31.227 21.974h-62.453v1.155h62.453v-1.155zm0 4.626h-62.453v1.155h62.453v-1.155zm0 4.626h-62.453v1.155h62.453v-1.155zm0 4.626h-62.453v1.155h62.453v-1.155z" fill="#4C65BA"/><path d="M208.032 224.821c3.411-14.232-5.36-28.535-19.592-31.946-14.232-3.412-28.534 5.36-31.946 19.592-3.411 14.231 5.36 28.534 19.592 31.945 14.232 3.412 28.534-5.36 31.946-19.591z" fill="#fff"/><path d="M182.271 248.82c16.517 0 29.907-13.39 29.907-29.908 0-16.517-13.39-29.907-29.907-29.907s-29.907 13.39-29.907 29.907c0 16.518 13.39 29.908 29.907 29.908z" stroke="#fff" stroke-miterlimit="10"/><path d="M172.462 246.189h19.634a16.698 16.698 0 0016.697-16.698 12.293 12.293 0 00-12.291-12.283h-28.431a12.28 12.28 0 00-12.283 12.283 16.689 16.689 0 0016.674 16.698z" fill="#EF929C"/><path d="M164.027 183.625l.471-.22c3.487-1.57 6.032-3.298 8.066-6.063.785-1.084 1.335-2.167 2.717-2.945 8.639-4.869 14.137.212 14.318.141 3.801-1.735 12.063 5.349 10.728 11.333-.385 1.736 1.123 3.487 2.136 5.105.291.472.597.99.919 1.571a10.827 10.827 0 011.846 7.406c-.487 3.864-3.142 7.069-6.833 8.844a83.296 83.296 0 00-12.919 7.469 16.853 16.853 0 01-12.818 2.701c-7.068-1.233-12.401-6.471-12.676-12.33a9.975 9.975 0 01.785-4.398 2.094 2.094 0 00-.4-2.191c-.149-.181-.291-.37-.432-.558l-.888-1.241c-3.094-4.257-1.46-11.686 4.98-14.624z" fill="#373449"/><path d="M182.585 188.055c-1.139 3.66-3.597 9.613-7.61 9.95v-3.487h-1.461c-1.571 0-2.906 1.948-2.906 4.359s1.304 4.359 2.906 4.359h1.626v1.107a10.414 10.414 0 003.031 7.352l-.141 10.398a5.171 5.171 0 005.096 5.05 5.166 5.166 0 005.232-4.909l.102-7.461a10.436 10.436 0 0010.21-10.43v-13.351c-8.003.463-12.99-1.06-16.085-2.937z" fill="#F9DCD2"/><path opacity=".32" d="M178.187 211.718l-.078 5.6 6.825-2.56a10.415 10.415 0 01-6.747-3.04z" fill="#EF929C"/><path d="M188.491 203.04h1.249a2.213 2.213 0 001.568-.63 2.211 2.211 0 00.663-1.554 1.023 1.023 0 00-1.006-1.028 1.294 1.294 0 01-1.18-.81 1.286 1.286 0 01-.092-.494v-1.704a.23.23 0 00-.064-.167.227.227 0 00-.164-.069.238.238 0 00-.164.066.237.237 0 00-.071.162v1.704a1.757 1.757 0 00.496 1.245 1.75 1.75 0 001.231.53.54.54 0 01.392.164.548.548 0 01.158.394 1.768 1.768 0 01-1.775 1.735h-1.241a.214.214 0 00-.09.013.199.199 0 00-.078.049.21.21 0 00-.067.166.225.225 0 00.069.164.23.23 0 00.166.064z" fill="#EF929C"/><path d="M195.332 200.754a.683.683 0 00.691-.683v-1.366a.692.692 0 00-.691-.692.69.69 0 00-.683.692v1.382a.682.682 0 00.683.667zm-1.971-4.798c.31.078.633.097.95.055h1.916c.308.039.621.015.919-.071.228-.102.275-.377-.094-.723a3.245 3.245 0 00-2.12-.706 2.13 2.13 0 00-1.799.714.464.464 0 00.228.731zm-8.357 4.798a.69.69 0 00.691-.683v-1.366a.7.7 0 00-.691-.692.698.698 0 00-.691.692v1.382a.689.689 0 00.691.667zm-2.097-4.806a2.2 2.2 0 00.927.063h1.932c.321.037.646.013.958-.071a.441.441 0 00.309-.301.451.451 0 00-.089-.422 2.235 2.235 0 00-1.838-.691 3.27 3.27 0 00-2.12.715c-.361.322-.314.613-.079.707z" fill="#373449"/><path d="M187.156 207.98h3.691v-3.487h-6.966v.22a3.264 3.264 0 002.022 3.02c.398.164.823.248 1.253.247z" fill="#fff"/><path d="M106.026 172.732v-40.596a4.955 4.955 0 014.956-4.956h40.596c1.315 0 2.575.522 3.505 1.451a4.959 4.959 0 011.451 3.505v32.64c.001.675.25 1.326.699 1.83l5.946 6.534a2.722 2.722 0 01-.527 4.108c-.442.287-.957.44-1.484.44h-50.225a4.956 4.956 0 01-4.917-4.956z" fill="#EF929C"/><path opacity=".11" d="M105.956 172.583v-40.55a4.943 4.943 0 013.054-4.571 4.959 4.959 0 011.893-.376h40.55a4.946 4.946 0 014.948 4.947v32.602a2.695 2.695 0 00.706 1.822l5.93 6.534a2.704 2.704 0 01.443 2.913 2.705 2.705 0 01-2.477 1.595h-50.1a4.948 4.948 0 01-4.947-4.916z" fill="#373449"/><path d="M105.956 170.619v-36.63a4.469 4.469 0 014.468-4.469h36.631a4.467 4.467 0 014.468 4.469v29.452c0 .61.227 1.198.637 1.649l5.364 5.898c.318.353.528.79.604 1.259a2.46 2.46 0 01-2.419 2.849h-45.285a4.477 4.477 0 01-4.468-4.477z" fill="#EF929C"/><path d="M130.169 148.746a3.982 3.982 0 013.644-2.411 4.163 4.163 0 013.974 4.021 3.921 3.921 0 01-.126 1.524 6.678 6.678 0 01-2.096 3.417l-4.524 3.926a1.312 1.312 0 01-1.736 0l-4.43-3.926a6.678 6.678 0 01-2.096-3.417 4.022 4.022 0 01-.134-1.524c.204-2.191 1.783-4.021 3.974-4.021a3.839 3.839 0 013.55 2.411z" fill="#fff"/><path d="M130.224 165.444a13.21 13.21 0 1113.202-13.203 13.224 13.224 0 01-13.202 13.203zm0-25.25a12.046 12.046 0 00-2.361 23.863 12.05 12.05 0 0014.401-11.816 12.061 12.061 0 00-12.04-12.047z" fill="#fff"/><path d="M176.758 46.859a1.133 1.133 0 01-.786-.338l-13.995-13.964h-15.794a1.157 1.157 0 01-1.155-1.154 1.157 1.157 0 011.155-1.155h16.752l14.64 14.64a1.166 1.166 0 010 1.633 1.148 1.148 0 01-.817.338z" fill="#599AF2"/><path d="M140.826 50.315h-30.708a6.024 6.024 0 01-6.016-6.024V19.504a6.024 6.024 0 016.016-6.024h30.708a6.029 6.029 0 015.578 3.716c.304.732.461 1.516.462 2.308v24.787a6.033 6.033 0 01-6.04 6.024zm-30.708-34.518a3.706 3.706 0 00-3.707 3.707v24.787a3.714 3.714 0 003.707 3.707h30.708a3.713 3.713 0 003.684-3.707V19.504a3.708 3.708 0 00-3.707-3.707h-30.685z" fill="#599AF2"/><path d="M138.29 26.148h-26.625a1.153 1.153 0 01-.816-1.97 1.15 1.15 0 01.816-.338h26.625a1.153 1.153 0 01.816 1.97 1.15 1.15 0 01-.816.338zm.495 7.399H112.16a1.179 1.179 0 010-2.356h26.625a1.179 1.179 0 010 2.356zm0 7.893H112.16a1.161 1.161 0 010-2.317h26.625a1.162 1.162 0 110 2.317z" fill="#599AF2"/><path d="M105.708 22.666c5.71-2.342 8.441-8.87 6.099-14.581-2.342-5.71-8.87-8.441-14.58-6.1-5.712 2.343-8.442 8.87-6.1 14.582 2.342 5.71 8.87 8.441 14.581 6.099z" fill="#fff"/><path d="M101.471 24.672a12.338 12.338 0 1112.338-12.338 12.353 12.353 0 01-12.338 12.338zm0-22.313a10.02 10.02 0 10.063 20.042 10.02 10.02 0 00-.063-20.042z" fill="#599AF2"/><path d="M105.359 8.422a3.931 3.931 0 01-2.424 3.628 3.928 3.928 0 11-1.503-7.555 3.89 3.89 0 013.927 3.927z" fill="#599AF2"/><path d="M108.037 16.198c0 2.144-2.938 3.887-6.566 3.887-3.628 0-6.558-1.743-6.558-3.887s2.937-3.927 6.558-3.927 6.566 1.775 6.566 3.927zm260.911 223.747h-19.564l-17.105-17.114a1.14 1.14 0 01-.342-.816 1.142 1.142 0 01.342-.817 1.162 1.162 0 011.633 0l16.431 16.43h18.605a1.162 1.162 0 010 2.317z" fill="#599AF2"/><path d="M412.081 259.603h-37.698a6.025 6.025 0 01-6.016-6.024v-30.748a6.022 6.022 0 013.714-5.558 6.022 6.022 0 012.302-.458h37.698a6.023 6.023 0 016.024 6.016v30.748a6.03 6.03 0 01-6.024 6.024zm-37.69-40.479a3.715 3.715 0 00-3.707 3.707v30.748a3.713 3.713 0 003.707 3.715h37.698a3.713 3.713 0 003.707-3.715v-30.748a3.715 3.715 0 00-3.707-3.707h-37.698z" fill="#599AF2"/><path d="M409.427 247.461H378.2a1.163 1.163 0 010-2.317h31.227a1.162 1.162 0 010 2.317zm-.574-8.702h-31.226a1.157 1.157 0 01-1.155-1.155 1.157 1.157 0 011.155-1.154h31.226a1.157 1.157 0 011.155 1.154 1.157 1.157 0 01-1.155 1.155zm0-9.228h-31.226a1.157 1.157 0 01-1.155-1.155 1.155 1.155 0 011.155-1.154h31.226a1.153 1.153 0 110 2.309z" fill="#599AF2"/><path d="M418.875 224.905c7.239 0 13.108-5.869 13.108-13.108 0-7.24-5.869-13.108-13.108-13.108-7.239 0-13.108 5.868-13.108 13.108 0 7.239 5.869 13.108 13.108 13.108z" fill="#ECF1F7"/><path d="M418.875 226.067a14.264 14.264 0 01-13.19-8.804 14.269 14.269 0 0110.395-19.462 14.27 14.27 0 0117.057 13.996 14.277 14.277 0 01-14.262 14.27zm0-26.216a11.957 11.957 0 00-11.05 7.376 11.95 11.95 0 002.59 13.03 11.952 11.952 0 1016.902-16.903 11.96 11.96 0 00-8.442-3.503z" fill="#599AF2"/><path d="M423.43 207.21a4.559 4.559 0 01-2.818 4.217 4.563 4.563 0 112.818-4.217z" fill="#599AF2"/><path d="M418.875 220.884c4.251 0 7.697-2.04 7.697-4.556 0-2.515-3.446-4.555-7.697-4.555-4.251 0-7.697 2.04-7.697 4.555 0 2.516 3.446 4.556 7.697 4.556z" fill="#599AF2"/></g><defs><clipPath id="clip0_582_7599"><path fill="#fff" transform="translate(0 .003)" d="M0 0h505v301.201H0z"/></clipPath></defs></svg>