<svg width="18" height="17" fill="none" xmlns="http://www.w3.org/2000/svg"><path d="M7.037 3.582c.652-1.631.978-2.447 1.508-2.56a1 1 0 01.422 0c.53.113.856.929 1.508 2.56.371.928.556 1.391.903 1.707.098.088.203.167.316.235.4.243.901.288 1.902.378 1.695.152 2.542.228 2.8.713.055.1.09.209.109.322.085.543-.537 1.111-1.783 2.249l-.346.316c-.583.531-.874.797-1.042 1.129-.101.2-.17.413-.2.634-.054.37.031.755.202 1.526l.061.276c.306 1.383.459 2.075.268 2.415-.172.305-.487.5-.836.517-.389.02-.936-.429-2.03-1.324-.722-.59-1.083-.884-1.483-1a2.024 2.024 0 00-1.12 0c-.4.116-.76.41-1.482 1-1.094.895-1.642 1.343-2.03 1.324a1.015 1.015 0 01-.836-.517c-.191-.34-.038-1.032.267-2.415l.061-.276c.17-.771.256-1.157.203-1.526a2.043 2.043 0 00-.2-.634c-.169-.332-.46-.598-1.042-1.13l-.346-.315C1.545 8.048.922 7.48 1.008 6.936c.018-.112.054-.22.108-.321.258-.485 1.106-.561 2.8-.713 1.001-.09 1.502-.135 1.903-.378.112-.068.218-.147.315-.235.347-.316.533-.78.903-1.707z" fill="#F8D959" stroke="#F8D959" stroke-width="2"/></svg>